<svg xmlns="http://www.w3.org/2000/svg" viewBox="0 0 467.74 334.98"><defs><style>.cls-1{fill:#721717;}.cls-2,.cls-4{fill:#fedcca;}.cls-3{fill:#f64541;}.cls-4{opacity:0.38;}.cls-5{fill:#cc2f2f;}.cls-6{opacity:0.73;}</style></defs><g id="Calque_14" data-name="Calque 14"><path class="cls-1" d="M255.49,260.06c2.05,4.47,2.67,9.26,3.18,14.06.22,1.58.07,3.18.73,4.66a3.13,3.13,0,0,1-1.1-.75c-3.63-4.74-4.22-12.31-2.81-18Z"/><path class="cls-1" d="M259.4,264.14c2.64,4,3.26,8.76,3.86,13.36l.25,2.23a3.93,3.93,0,0,0,.66,2.11c-1.7-.3-2.52-2.35-3.19-3.73a27.93,27.93,0,0,1-1.58-14Z"/><path class="cls-1" d="M317.45,260.4a32.43,32.43,0,0,1,1.19,19.74,32.36,32.36,0,0,1-1.19-19.74Z"/><path class="cls-1" d="M66.38,37.76c14.46-8.06,38.16-6.1,55.66-3.07,17,3,42.39-1.53,56.68,0s47,7.66,69.45,14.3,78.64,15.83,120.51,15.32c32.95,0,59.67,25.18,62.76,39.54s7.11,72.6,6,90.83-1.39,24.1-15.44,36-22.25,22.71-39.08,33.52-58.85,26.57-89.59,27.65-57.93-13.44-82-22.55-50.51-24.41-70.12-29.35-72.6-25-88.36-39.7S32.92,157,33.69,130.11,37,53.53,66.38,37.76Z"/><path class="cls-2" d="M89.19,43.72c26.55.34,46,5.44,62.3,3.4s45.28,1,55.15,4.08,51.74,11.92,65.36,16,60.6,8.52,84.09,8.17,37.44,5.45,43.23,11.24,10.89,10.21,16.34,13.62,5.11,19.74,2.72,25.87S420.09,139,417.7,152s-12.93,41.19-37.79,56.17-58.55,31.32-93.61,29.62-82.39-32.34-99.07-40.51-54.46-19.41-76.59-26.56-39-25-53.79-55.83C41.83,83.55,55.19,61,65.7,53.25,71.83,48.74,81.7,43.72,89.19,43.72Z"/><path class="cls-2" d="M425.44,208.12v0a22.23,22.23,0,0,1-11.57,14.21c-13.79,7.15-12.25,18.39-32.68,29.36s-59.49,28.86-92.43,28.35-64.59-18.64-82.46-25.54-42.9-20.68-63.58-25.27-66.17-25.24-82-37C43.66,179.46,47.23,134,47.23,120.48,62,150.1,73.28,174.86,121.79,186.35s90.63,39.58,113.36,48.77,50.3,22.47,96.76,6.89c43.34-14.52,72.47-26.61,89.24-64.84A106.74,106.74,0,0,1,425.44,208.12Z"/><path class="cls-1" d="M214.72,127.05a7,7,0,0,1,2.54-5.62c12.14-10.15,37.28-6.17,46.57,1.09,9.79,7.66,15.49,21.71.77,27s-40.77-5.27-47.49-15.57A14.19,14.19,0,0,1,214.72,127.05Z"/><path class="cls-2" d="M226.7,127.38a1.43,1.43,0,0,0-.59,2.46c9.07,7.73,32.59,16.2,35.76,8.51S241,123.58,226.7,127.38Z"/><path class="cls-3" d="M60.94,80.31c6.4-3.62,8.17,1.36,15.15,1.7s15.31-2.21,22.8,3.24,23.32,10.38,34.9,10,34.55,11.57,41.36,14.3,10.89,1,17.53,5.61,14.47,16,2.89,15.83-26.89-4.25-35.23-1.19-8,4.77-14.3,7.15-16.85,2-24.68,4.09-10.21,11.57-19.06,11.06-25.36-18.89-32.17-35.4S51.57,86.1,60.94,80.31Z"/><path class="cls-3" d="M68.25,59A4.19,4.19,0,0,1,71,55.8c17.36-6.28,35.3-3.92,46-1.43,11,2.57,51.63-1.14,65-.14s58.48,17.26,59.77,28.1c.71,6.85-4.14,3.57-5.57,8s3.43,6.84.57,12.12-12.83,2.85-21.11,9.84S175,100.16,168.62,95.74s-27.38-8.28-40.08-10.41-22-11.13-28.95-13C93.23,70.66,66.87,67.31,68.25,59Z"/><path class="cls-3" d="M253.62,72c17.87,1,32,7.15,47.49,6.64s58.72,1.36,72.34,3.06S393.19,96,399,99s13.11,9.2,13.45,17,.34,30.12-10.9,42.21-20.76,19.23-38.81,13.45c-12.25-4.26-21.78-7.32-33.19-6.3s-18.72-8.17-27.23-11.24-17.36-8.85-21.79-23.32-24.17-19.57-30.13-26-8.89-12.14-1.91-19.12C253.13,81.77,240.32,71.09,253.62,72Z"/><path class="cls-3" d="M121.26,158.55a7.89,7.89,0,0,1,4.51-3.84,347,347,0,0,0,35.08-15.08c6.64-3.32,23.24,2.55,28.85,2.3s15.58-4.34,20.43-.26,28.59,20.94,48.51,16.34,24.25-4.59,34,2.81,31.66,11.49,40.85,11,22.46,7.66,29.87,7.92,24.51.76,25.28,6.63S377.36,201.67,361,209.08s-50,20.17-70.47,20.68S242,217,222.64,205.25s-45.7-26.56-64.85-30.13C140.35,171.86,116.34,168.4,121.26,158.55Z"/><path class="cls-4" d="M69,80c-3,.44-4.42,3.5-4.43,6.25-.17,5.28,3.08,11.65,8.72,12.29,2.94.07,5.6-.48,8.64,0,5.93.71,11.17,3.57,16.63,4.74,5.58,1.37,11.18.52,16.77-.51A49.54,49.54,0,0,1,124,102c5.93,0,11.35,2.65,16.65,5,7.83,3.51,15.8,7.09,24.35,8.27a84.26,84.26,0,0,1,17,3.48c2.81.86,15.25,5.35,11.76,9.17a4.33,4.33,0,0,1-2.59.4,62.8,62.8,0,0,1-8.62-1.56c-8-1.67-17-4.65-25.11-4.16-9.8,1.85-18.11,9.77-28.52,9.58-7.3-.16-14.45-2-21.44-3.54-4-.67-8.41-2.19-12.31-.42a15.66,15.66,0,0,1-4.11,1.67,13.43,13.43,0,0,1-13.88-8.81l.19-.06c2,5.31,8,8.61,13.51,7.88a15.49,15.49,0,0,0,3.79-1.73c4.1-2.05,8.92-.71,13.12-.06,8.33,1.52,16.82,4,25.23,2.66,8.58-1.64,15.43-7.83,24.18-9.24,8.62-.45,17.46,2.65,25.76,4.52,3.21.74,7,1.89,9.9,1.67-.21-1.51-2.18-2.53-3.48-3.42-7.46-4.21-15.95-6.29-24.45-7.33-11.5-1.71-21.76-7.6-32.62-11.24-5.44-1.93-11.14-1.37-16.71-.25s-11.73,2.12-17.45.6c-5.77-1.35-10.87-4.23-16.45-4.94-2.84-.52-5.74,0-8.59-.24-6.31-.93-9.72-7.8-9.24-13.64.15-2.9,1.9-6.16,5.08-6.41l0,.2Z"/><path class="cls-4" d="M77.15,54.65c4.26,7,12.76,8.28,20.23,9.45,4.16.53,8,2.62,10,6.49a5.72,5.72,0,0,0,4.35,2.84c7.46.91,15.35-1.6,22.49,1.67a201,201,0,0,0,27,13.74A160.8,160.8,0,0,0,183.17,97a28.13,28.13,0,0,0,7.67,1.13l0,.19c-5.28.71-10.56-.81-15.61-2.16A155.63,155.63,0,0,1,139.36,80c-2.23-1.31-4.11-3.21-6.48-4.28-4.72-2.24-10.17-1.74-15.28-1.46-2.82.07-5.79.59-8.5-.45a7.34,7.34,0,0,1-2.83-2.4c-3.58-6.09-10.94-5.33-16.94-7.24C84.2,62.88,79.13,59.74,77,54.75l.17-.1Z"/><path class="cls-4" d="M233,97.12c-10.33,1.44-20.57,4-31.1,3.64s-21.2-3.5-29.12-10.56c-5-4.12-7.55-10.58-13.11-14.11-12.15-7.43-25.19-13.35-37.87-19.9l.08-.18a250.72,250.72,0,0,1,28.73,12.46,92.84,92.84,0,0,1,10.21,6c5.65,3.72,8,10.33,12.71,14.93,11.25,11.93,29,10.14,43.86,8.67A142.12,142.12,0,0,1,233,96.92v.2Z"/><path class="cls-4" d="M230.72,74.64c-6.11,1-11.48-2.82-17-4.62-11.55-3.87-23.15,2.35-33.74,6.54-5.5,2.28-12.27,3.43-17.6,0l.09-.18a17.31,17.31,0,0,0,8.52.8c7.14-1.41,13.68-5.39,20.83-7.08a69.84,69.84,0,0,1,8.85-1.48c4.48-.45,9-1.22,13.5-.21s8,3.8,12.28,5.14a26,26,0,0,0,4.28.89v.2Z"/><path class="cls-4" d="M263,113.07c7.67,2.47,16.23,3.47,24,1.08,4-1.15,6.88-3.88,9.74-6.76a65.52,65.52,0,0,1,25.34-14.08c16.12-4.59,33.17-2.26,49.65-1.91,2.75,0,5.49.12,8.22-.1s5.53-.49,7.69-2.21l.15.14c-2,2-5,2.61-7.73,3.07a70.66,70.66,0,0,1-8.33.67c-16.45.61-33.22-2.08-49.38,1.4-11.06,2.37-20.21,8.44-27.42,17.07-8.24,8.06-22.45,6.34-32,1.81l.08-.18Z"/><path class="cls-4" d="M411.1,121.59a43.31,43.31,0,0,1-14.45,4c-5,.51-10.22.53-15.11-1.08a12.42,12.42,0,0,1-5.64-3.73,7.12,7.12,0,0,0-.64-.58c-6.1-4.14-14.16-4.33-21.33-4.56a138.71,138.71,0,0,0-22.13,1.59c-7.68,1.45-15.33-2.12-21.88-5.48-4.22-1.91-9-5.36-13.69-3.09l-.11-.17c2.08-1.59,5-1.42,7.39-.78a51.1,51.1,0,0,1,7.08,2.61c4.56,2,9.07,4,13.81,4.76,4.87,1,9.71-.52,14.57-.67a104.27,104.27,0,0,1,15,.14c6.22.55,12.5,1.17,18.46,3.12a12.73,12.73,0,0,1,4.28,2.24,11.27,11.27,0,0,0,2.09,1.67c5.36,2.78,11.7,2.7,17.71,2.46A59.24,59.24,0,0,0,411,121.41l.08.18Z"/><path class="cls-4" d="M310.63,157.91c12,1,23.36-4.34,34-9.24,7.28-3.79,16-4.13,23.78-1.88,3.92,1,7.72,2.31,11.51,2.72a76.28,76.28,0,0,0,17.74,0c1.9-.34,4-.65,5.36-2l.17.11a5.61,5.61,0,0,1-2.42,1.91,29.66,29.66,0,0,1-8.91,2.07,65.85,65.85,0,0,1-12.16.06c-4.21-.42-8-1.95-11.79-3-11.49-3.43-18.07-2.89-28.23,3.6a51.25,51.25,0,0,1-17,6.37,28.4,28.4,0,0,1-12.11-.46l0-.2Z"/><path class="cls-4" d="M120.79,160.72c6,.95,11.92-.3,17.88-1.31s12.28-1.48,18.31,0,11.7,3.2,17.52,4.86c11.63,3.35,23.39,6.25,34.92,9.94s23.54,4.1,35.53,4.06c5.24,0,13-.36,18.15.25v.2c-6,0-12,.84-18.09,1.13-9.08.51-18.35.46-27.33-1.35-6.06-1.19-19.95-6.4-26-8.34a224.29,224.29,0,0,0-26.17-7.34c-5.85-1.22-11.69-2.66-17.69-2.54-9,0-18.17,3.2-27.07.69l0-.2Z"/><path class="cls-4" d="M232.44,154.92c3.83,8.81,14.52,15.19,22.79,19.47a59.62,59.62,0,0,0,21.92,6.73,64.69,64.69,0,0,0,20.92-1.8L300,179c5.25-1,10.56-.57,15.69-.08,10.33,1.34,20.45,1.39,29.68-4.09l.11.17c-12,9-24,6.3-37.64,5.49a45.69,45.69,0,0,0-6.61.21c-2.81.43-5.76,1.09-8.58,1.39a74.22,74.22,0,0,1-23.26-1.54c-10.19-2.05-20.2-6-28.14-12.93-3.86-3.41-7.78-7.44-9-12.59l.2-.06Z"/><path class="cls-4" d="M353.28,212.35c-7.09,2.52-13.81-3-20.71-3.57-4.66-.31-9.52.43-14.22-.4a26,26,0,0,1-8.47-3.11,48.52,48.52,0,0,0-11.08-5.5,67,67,0,0,0-26-3.56c-6.6-.5-13.17-5.62-16.23-11.31-2.35-4.48-.45-7.69,4.73-7.32v.2c-2.09.17-4.9.9-4.72,3.44,1.06,6,9.72,12,15.51,12.79a13.52,13.52,0,0,0,2.47,0,49.25,49.25,0,0,1,10.85.67A60,60,0,0,1,305.62,202c4,2.5,8,5.1,12.87,5.31,4.76.42,9.42-.74,14.25-.25s9.09,3.12,13.62,4.58a13.68,13.68,0,0,0,6.87.56l0,.19Z"/><path class="cls-1" d="M50,121.84c1.14,10.57,3.09,26.58,4.22,37.3s2.13,22,4.12,32.46a18.4,18.4,0,0,0,1.36,4.46,15.89,15.89,0,0,1-2.16-4.22c-3.63-10.42-5-21.48-6.3-32.38C50.1,147,49,134.37,50,121.84Z"/><path class="cls-1" d="M54.81,130c2.13,14.14,3.69,31.41,5.37,45.63,1.13,9.06,1.83,18.28,4.5,27.05l-1.09-2c-4.62-10.64-6-22.38-7.41-33.8A250.44,250.44,0,0,1,54.81,130Z"/><path class="cls-1" d="M59.91,138.86c1.55,12.77,3.85,25.41,6,38.08,1.58,8.34,2.91,16.89,5.44,25a35.43,35.43,0,0,0,1.54,4l-1.24-1.78c-8.35-14.19-13.3-48.75-11.7-65.29Z"/><path class="cls-1" d="M69.79,175.29c3.69,11.17,4.35,22.87,8,34-7.06-8.14-8.68-23.58-8-34Z"/><path class="cls-1" d="M73.36,180.91c4.48,9.13,6,19.16,8.34,28.93-5.62-6.51-8.28-20.4-8.34-28.93Z"/><path class="cls-1" d="M76.43,172.91c2.9,13.25,8.09,26.43,10.38,39.83-5.71-10.27-12-28.1-10.38-39.83Z"/><path class="cls-1" d="M84.26,189.59c2.77,7.49,5.86,14.77,6.63,22.81-4.4-5.79-8.13-15.53-6.63-22.81Z"/><path class="cls-1" d="M88.51,196.4A44.81,44.81,0,0,1,92.23,205a29.4,29.4,0,0,1,1.56,9.29,18.49,18.49,0,0,1-2.66-4c-2-4.27-3.58-9.07-2.62-13.84Z"/><path class="cls-1" d="M109.79,202.86c-5.92-7-5.36-19-1.88-27.06.73,9.14-.15,18.06,1.88,27.06Z"/><path class="cls-1" d="M115.74,203.37c-4.46-7-5.2-17.89-3.57-25.87,2.58,8.28,3,17.28,3.57,25.87Z"/><path class="cls-1" d="M119.66,203.72a54.14,54.14,0,0,1-3.4-25.54,54.39,54.39,0,0,1,3.4,25.54Z"/><path class="cls-1" d="M126,196.57c2.35,8.09,3.48,16.35,4.56,24.66.42,2.75.49,5.54,1.39,8.19-5.49-6.41-7.13-24.54-6-32.85Z"/><path class="cls-1" d="M130.89,202c2.83,9.78,5.69,19.89,7.15,30-3-4.34-4.63-9.36-6-14.39-1.18-5.07-2.09-10.36-1.17-15.57Z"/><path class="cls-1" d="M136.34,207c4.15,8.63,5.27,18.1,8.34,27.06-6.09-5.28-8.7-19.22-8.34-27.06Z"/><path class="cls-1" d="M142.13,188.06c3.49,11,4.54,22.53,4.93,34-2.5-5.28-3.44-11.06-4.29-16.77a79.79,79.79,0,0,1-.64-17.27Z"/><path class="cls-1" d="M152.34,220.74c-2.47-4.8-3.39-10.14-4.13-15.4-.58-5.29-1-10.64,0-15.92a140.07,140.07,0,0,1,4.08,31.32Z"/><path class="cls-1" d="M155.91,215.12c2.14,4.64,2.84,9.7,3.88,14.6s1.65,9.64,4.81,13.65c-8.63-4.2-8.94-19.87-8.69-28.25Z"/><path class="cls-1" d="M161.36,195.55c2.92,9.54,3.85,19.42,4.94,29.27-4.59-6.53-6.39-21.44-4.94-29.27Z"/><path class="cls-1" d="M171.4,226c-4.79-7.88-5.86-20.75-4.59-29.78,3,9.71,3.56,19.73,4.59,29.78Z"/><path class="cls-1" d="M175.66,226c-2-4.34-2.58-9-3-13.73a51.83,51.83,0,0,1,.62-14c2.62,9,3,18.41,2.38,27.74Z"/><path class="cls-1" d="M181.28,225.84l4,19.9c.45,2.21.8,4.41,1.46,6.66a17.09,17.09,0,0,1-3.72-6c-2.48-6.46-3.79-13.84-1.72-20.59Z"/><path class="cls-1" d="M198.64,240.65c-3.63-6.8-4.16-14.76-4.34-22.32a45.9,45.9,0,0,1,.59-7.64,79.15,79.15,0,0,1,2.79,14.91c.57,5,.69,10,1,15.05Z"/><path class="cls-1" d="M160.17,214.78c7.77.15,15.27,2.76,22.61,5.05s14.55,5.23,21.68,8.17c14.18,6.07,28.34,12.38,41.5,20.48-3.54-1.53-7.12-3-10.68-4.43-12.16-5-30.49-12.72-42.62-17.7-7.1-2.92-14.21-5.82-21.44-8.41a64,64,0,0,0-11.05-3.16Z"/><path class="cls-1" d="M201.7,214.78c1.87,6.27,2.43,12.69,3,19.15a41.33,41.33,0,0,0,.77,6.38c-4.93-5.35-5.43-18.68-3.75-25.53Z"/><path class="cls-1" d="M186.38,231.29c10.39,1.22,37.31,10.13,43.24,18.55-3.07-2.44-7-3.49-10.52-5.05l-10.95-4.29c-7.32-2.94-14.6-5.82-21.77-9.21Z"/><path class="cls-1" d="M214,260.06c-5-6.52-5.84-16.73-3.92-24.51,2.28,7.91,2.82,16.38,3.92,24.51Z"/><path class="cls-1" d="M218.72,262.78c-4.19-5.41-5.13-13.89-3.57-20.43,2.63,6.56,3.24,13.43,3.57,20.43Z"/><path class="cls-1" d="M223.83,264.48c-4.38-5.3-6.13-13-5.11-19.74a53,53,0,0,1,5.11,19.74Z"/><path class="cls-1" d="M235.06,258.86c-2.49-6.51-2.27-13.66-1.5-20.47a36.73,36.73,0,0,1,1.5-6.76,65.15,65.15,0,0,1,1,13.64,119.45,119.45,0,0,1-1,13.59Z"/><path class="cls-1" d="M242.55,260.06c-4.64-7.24-4.87-18.29-2.55-26.39,1.74,7.58,1.94,18.59,2.55,26.39Z"/><path class="cls-1" d="M250,254.78c2.29,6.41,1.86,13.07,1.7,19.74-3.71-4.62-3.57-14.3-1.7-19.74Z"/><path class="cls-1" d="M294.3,244.91c1.83,5.53,1.3,11.22.17,16.85-3-4.63-2.43-12-.17-16.85Z"/><path class="cls-1" d="M298.89,264c-3.36-5.33-2.48-13.65.34-19.06,1.28,6.26.35,12.79-.34,19.06Z"/><path class="cls-1" d="M303.66,244.06c1.92,9.23,1.41,18.64,0,27.91-1.63-4.5-1.74-9.27-1.77-14a53.83,53.83,0,0,1,1.77-13.94Z"/><path class="cls-1" d="M313.87,254.78a62,62,0,0,1,.34,27.57,62.13,62.13,0,0,1-.34-27.57Z"/><path class="cls-1" d="M336.17,237.42a91.37,91.37,0,0,1,1.83,17.9,37.37,37.37,0,0,1-.47,6.1,28.72,28.72,0,0,1-1.87-5.86c-1.15-5.95-1.67-12.34.51-18.14Z"/><path class="cls-1" d="M348.26,242.35c10.1-4.61,20.46-9.84,30.44-14.73,8.78-4.4,17.72-8.58,26.1-13.72a22.82,22.82,0,0,0,3.37-2.53,17.69,17.69,0,0,1-2.86,3.19c-7.53,6.56-16.45,11.24-25.29,15.75-10.21,4.86-20.67,9.61-31.76,12Z"/><path class="cls-1" d="M347.06,249.16c9.11-2.55,17.69-6.32,26.42-9.86,7.41-3.09,15.42-6.32,22.68-9.75a12.69,12.69,0,0,0,3-1.83,10.39,10.39,0,0,1-2.55,2.53c-11.75,8.57-35,18.65-49.54,18.91Z"/><path class="cls-1" d="M380.6,232.82c4.46,5.35,5,16.08.68,21.62a200,200,0,0,0-.68-21.62Z"/><path class="cls-1" d="M385.87,228.4c4.35,6.64,3.61,20,.34,27.06-.31-4.58-.44-9.05-.35-13.59,0-4,.34-9.47,0-13.47Z"/><path class="cls-1" d="M390.81,218.35c4.74,4.92,4.11,17.75,3.38,24.23a45.48,45.48,0,0,1-1.68,8.11,82.05,82.05,0,0,1-.67-8.21c-.19-4.71-.13-11.42-.15-16.19-.09-2.68.11-5.38-.88-7.94Z"/><path class="cls-1" d="M394.72,211.37c4.91,6.92,6.49,23,2.9,30.64-.06-4.51-.93-10.8-1.3-15.33s-.85-10.81-1.6-15.31Z"/><path class="cls-1" d="M399.32,204.91c5.3,8.41,6.44,25.7,2.21,34.72.15-3,0-5.85-.09-8.74-.52-8.45-.8-17.63-2.12-26Z"/><path class="cls-1" d="M404.6,199c6.35,6.63,7.63,24.72,2.89,32.51.56-5.54.11-10.89-.31-16.38-.59-5.42-.78-10.94-2.58-16.13Z"/><path class="cls-1" d="M409.7,190.61c6.46,8.3,8.54,26.37,4.09,35.91.32-6.12-.37-12-1-18.08a113,113,0,0,0-3.11-17.83Z"/><path class="cls-1" d="M415,182.27c6.69,9.52,8.71,29.49,3.57,40,.74-6.77.16-13.39-.38-20.11A120,120,0,0,0,415,182.27Z"/><path class="cls-5" d="M68.41,97.63c5.47,6.44,13.26,9.92,20.54,13.88,5.4,3.15,11.32,5.62,16.09,9.76a14.39,14.39,0,0,1,3.67,5.08,15.25,15.25,0,0,0-4-4.71c-3.15-2.74-12.52-7.15-16.24-9.25-7.21-4-15.22-7.77-20.07-14.76Z"/><path class="cls-5" d="M77.3,111.7a46.54,46.54,0,0,0,10,4.85c4.39,1.16,6.63,2.73,8.37,7.08A17.68,17.68,0,0,0,92,119.5c-1.43-1-3.26-1.39-5.07-2a25.87,25.87,0,0,1-9.67-5.8Z"/><path class="cls-5" d="M82.82,116.1a51.56,51.56,0,0,0,16.31,16.09A29.53,29.53,0,0,1,82.82,116.1Z"/><path class="cls-5" d="M90.48,131.22c1.32.26,2.27,1.45,3.07,2.44,1.22,1.49,3.7,4.48,4.94,6a14.86,14.86,0,0,0,2.75,2.68,8.83,8.83,0,0,1-3.32-2.14,32.47,32.47,0,0,1-5-6,7.82,7.82,0,0,0-2.45-2.89Z"/><path class="cls-5" d="M84.42,92.79c4.77-3,10.93-1.26,15.59,1.09-5.23-1-10.31-2.69-15.59-1.09Z"/><path class="cls-5" d="M85.64,102.53a22,22,0,0,1,13.71-4.09c-4.71,1.17-9.13,2.49-13.71,4.09Z"/><path class="cls-5" d="M122.56,101.86a47.4,47.4,0,0,1,15.68-2.18c3.83.2,8,.79,11.79,1.28,1.31.2,2.61.37,3.91.61-1.32,0-2.63-.09-3.95-.13-3.82-.17-8-.55-11.8-.76-5.25-.35-10.42.51-15.63,1.18Z"/><path class="cls-5" d="M129,106.42a59.35,59.35,0,0,1,24.72.16c-8.28-.42-16.43-.48-24.72-.16Z"/><path class="cls-5" d="M150.43,110.09A33.93,33.93,0,0,1,173.88,113a64,64,0,0,0-23.45-2.93Z"/><path class="cls-5" d="M122.68,132.35c6.92-.53,15.26,0,20.72-5,.83-.64,1.6-1.36,2.41-2a23,23,0,0,1-4.49,4.49c-5.45,3.61-12.43,3.11-18.64,2.52Z"/><path class="cls-5" d="M89.68,66.18c4.73-2,10-2.25,15.08-2.11,1.66.09,3.57,0,5,1-1.6-.63-3.28-.24-5-.2a112,112,0,0,0-15.09,1.33Z"/><path class="cls-5" d="M92.51,62.91a56.75,56.75,0,0,1,10-1.44c3.34,0,7-.3,10,1.52-3.22-1.06-6.62-.58-9.94-.52s-6.7.44-10.1.44Z"/><path class="cls-5" d="M127.75,66.93a70.94,70.94,0,0,1,29.54-4.25l-3.73.31a189,189,0,0,0-25.81,3.94Z"/><path class="cls-5" d="M139.18,67.76a36.24,36.24,0,0,1,17.35-3.56c-5.86,1.11-11.53,2.27-17.35,3.56Z"/><path class="cls-5" d="M147.9,69.09a28.31,28.31,0,0,1,16.89-5.4,99.13,99.13,0,0,0-16.89,5.4Z"/><path class="cls-5" d="M152.82,70.07a16.17,16.17,0,0,1,13.48-4.18,42,42,0,0,0-13.48,4.18Z"/><path class="cls-5" d="M118.86,76.37c1.4,1.11,3.45.63,5.12,1A113.14,113.14,0,0,1,139.82,80a115.51,115.51,0,0,1-15.95-1.9c-1.59-.45-3.94-.34-5-1.74Z"/><path class="cls-5" d="M160.72,87.45A53.17,53.17,0,0,1,183,93.93c-7.37-2.49-14.69-4.63-22.25-6.48Z"/><path class="cls-5" d="M194.45,74.9a59.69,59.69,0,0,1,23.25,4.31c-7.76-1.64-15.41-3.07-23.25-4.31Z"/><path class="cls-5" d="M201.54,77.71c2.55-.55,5.2-.09,7.72.34a52.74,52.74,0,0,1,7.48,1.86c-5.19-.06-10.1-1.6-15.2-2.2Z"/><path class="cls-5" d="M202.94,80.26a46.09,46.09,0,0,1,27.19,4c-.56-.15-1.11-.32-1.66-.49a87.5,87.5,0,0,0-25.53-3.47Z"/><path class="cls-5" d="M191.66,97.4c8.05.74,16.2,2.15,24-.85-7.2,4.34-16.26,3-24,.85Z"/><path class="cls-5" d="M202.94,102.08a41.11,41.11,0,0,1,14.47-1.57,26.83,26.83,0,0,0,4.81.23c-3.13,1-6.43.39-9.64.73-3.21.13-6.4.41-9.64.61Z"/><path class="cls-5" d="M195.08,103.49c3.43.12,6.66,1.37,10.08,1.49,3.35.28,6.75.14,10.19.3a39.67,39.67,0,0,1-10.27.7c-3.49-.16-6.69-1.59-10-2.49Z"/><path class="cls-5" d="M260.62,83c8-1.93,15.65,2.55,23.58,2.67-8,1.27-15.57-3.21-23.58-2.67Z"/><path class="cls-5" d="M255.31,88.31A177.16,177.16,0,0,1,296.47,93c-13.32-1.77-27.79-3.43-41.16-4.69Z"/><path class="cls-5" d="M258.26,94.24a84.85,84.85,0,0,1,14.24-12,83.6,83.6,0,0,1-14.24,12Z"/><path class="cls-5" d="M261.53,94.61A50.7,50.7,0,0,1,278,82.4c-5.53,4.08-10.94,8.09-16.45,12.21Z"/><path class="cls-5" d="M266.6,105.82a16.28,16.28,0,0,1,12.55,11.5,26.74,26.74,0,0,0-12.55-11.5Z"/><path class="cls-5" d="M278.56,105.92a46.12,46.12,0,0,1,11.2,9.45c3.28,3.67,5.55,8,8.56,11.89a30.25,30.25,0,0,1-2.53-2.66c-5.11-6.82-10.53-13.36-17.23-18.68Z"/><path class="cls-5" d="M288.38,120.71c3.86,4.72,4.57,11.07,5.56,16.87.37,1.91.44,4,1.67,5.58a6,6,0,0,1-1.62-2.54c-2.14-6.59-2.23-13.73-5.61-19.91Z"/><path class="cls-5" d="M288.38,133.22c2-.49,3.26,3.68,3.05,5.23a20.47,20.47,0,0,1-2.12-4.17,1.73,1.73,0,0,0-.93-1.06Z"/><path class="cls-5" d="M297.86,109.93a69.53,69.53,0,0,1,.41,16.87,70,70,0,0,1-.41-16.87Z"/><path class="cls-5" d="M303,115.39a117.47,117.47,0,0,1-1.59,21.92A117.47,117.47,0,0,1,303,115.39Z"/><path class="cls-5" d="M316.92,131.48c1.16,2.5,2.15,5.24,3.15,7.78.34.8.54,1.83,1.53,2-2.54.63-4.81-7.81-4.68-9.79Z"/><path class="cls-5" d="M325.77,96.22c3.07-2.53,7.17-3.31,11-3.9s7.81-.72,11.71-.94a185.53,185.53,0,0,1,23.46.47l-5.86.07c-5.86.06-11.71.18-17.55.46-3.9.13-7.8.32-11.67.7s-7.79,1-11.09,3.14Z"/><path class="cls-5" d="M323.63,92.15c10.72.33,22.07-1.56,32.75-2.37a9.7,9.7,0,0,1,4.65.75c-3-1-6.18.07-9.25.42-9.28,1.35-18.79,2.55-28.15,1.2Z"/><path class="cls-5" d="M353.3,102.77a51.81,51.81,0,0,1,27.05,7.94c-.94-.39-2.31-1-3.28-1.37a104,104,0,0,0-23.77-6.57Z"/><path class="cls-5" d="M394.79,113.89a182.4,182.4,0,0,1-13,19.13,101.15,101.15,0,0,1,13-19.13Z"/><path class="cls-5" d="M398.41,117.53a64.09,64.09,0,0,1-6.89,14.68,64.09,64.09,0,0,1,6.89-14.68Z"/><path class="cls-5" d="M359,160.51c4,0,7.75-1.53,11.39-3.08s7.33-3.1,11-4.74,7.27-3.22,10.89-4.86c3.68-1.48,7-4,8.07-8-.62,4.14-4.11,7.07-7.73,8.68-3.57,1.79-7.2,3.45-10.83,5.09s-7.34,3.12-11.07,4.53-7.66,2.8-11.68,2.37Z"/><path class="cls-5" d="M357.23,154.91l4.18-.25c4.21-.17,8-2,12.3-2.12-2.69.8-5.24,1.88-8,2.51a19.59,19.59,0,0,1-8.45-.14Z"/><path class="cls-5" d="M344.3,152.57a33.12,33.12,0,0,1,11.65-.75,33.59,33.59,0,0,1-11.65.75Z"/><path class="cls-5" d="M342.78,149.51a52.36,52.36,0,0,1,16.48.15,89.83,89.83,0,0,1-16.48-.15Z"/><path class="cls-5" d="M322.51,150.9c4.2.31,8.07,2.33,11.52,4.63,1.1.78,2.49,1.58,2.93,2.95-.8-1.17-2.14-1.59-3.34-2.28a82.55,82.55,0,0,0-11.11-5.3Z"/><path class="cls-5" d="M259.48,165.67a155.15,155.15,0,0,1,25.23.46,155.15,155.15,0,0,1-25.23-.46Z"/><path class="cls-5" d="M267.09,169.26a208.22,208.22,0,0,1,23.83.28,103.22,103.22,0,0,1-23.83-.28Z"/><path class="cls-5" d="M264.94,162.15c9.43,5.42,20.44,6.36,30.7,9.43,1.47.47,2.94.95,4.37,1.55-1.5-.38-3-.76-4.49-1.07-10.41-2.35-21.75-3.36-30.58-9.91Z"/><path class="cls-5" d="M236.79,165.77c6.9,0,13.08,3.37,19.78,4.49-6.91.25-13.15-3.15-19.78-4.49Z"/><path class="cls-5" d="M236.91,168.82a3.92,3.92,0,0,1,1.68.61c3.47,2.14,7,4.06,10.52,6.11a23.4,23.4,0,0,1-9.46-4.57,18.79,18.79,0,0,0-2.74-2.15Z"/><path class="cls-5" d="M150.14,149.59c2.59,3.27,5,6.74,8.09,9.5a49.25,49.25,0,0,0,7.68,5.31c.89.55,1.8,1.07,2.69,1.64-1-.37-1.95-.8-2.92-1.21a32,32,0,0,1-8.11-5,36,36,0,0,1-7.43-10.25Z"/><path class="cls-5" d="M141.72,156.68c4.51.73,8.58,3,12.65,5a79.09,79.09,0,0,1,11.52,7.25c-1-.51-2-1.08-3-1.59-1.87-1-7-3.74-9-4.77-4-2-7.92-4.4-12.19-5.87Z"/><path class="cls-5" d="M156.65,150.42a55.7,55.7,0,0,1,19.28-1.61c-6.44.79-12.8,1.31-19.28,1.61Z"/><path class="cls-5" d="M181.64,172.78c2.6-.15,6,1.78,8.42,2.62,8.15,3.38,16.25,7.33,23,13.12-1.25-.79-2.47-1.61-3.74-2.35a216.29,216.29,0,0,0-19.57-10.07l-4-1.9a11.11,11.11,0,0,0-4.12-1.42Z"/><path class="cls-5" d="M187.46,178.79a51,51,0,0,1,18.27,8.4c1.78,1.32,3.73,2.76,4.64,4.85a10,10,0,0,0-2.32-2.35,105.62,105.62,0,0,0-20.59-10.9Z"/><path class="cls-5" d="M199.16,187a307,307,0,0,1,35.19,5.14A311.76,311.76,0,0,1,199.16,187Z"/><path class="cls-5" d="M268.12,215.85c5.29-1.21,10.37-2.91,15.56-4.39,1.68-.51,3.42-1.08,4.55-2.53-1.84,3.3-6.19,3.76-9.43,5a39.17,39.17,0,0,1-10.68,1.9Z"/><path class="cls-5" d="M278.82,218.93c3.64-1.51,7.29-2.9,11-4.27s7.52-2.23,10.84-4.37c-2.86,2.79-6.89,3.85-10.5,5.31a76.42,76.42,0,0,1-11.31,3.33Z"/><path class="cls-5" d="M277.38,222.87c3.52-.94,7-2,10.43-3s7.09-1.62,10.18-3.57c-2.64,2.62-6.5,3.33-9.89,4.53a44.5,44.5,0,0,1-10.72,2.07Z"/><path class="cls-5" d="M330.37,190.22a42.69,42.69,0,0,1,15.37,5.31,134.11,134.11,0,0,1-15.37-5.31Z"/><path class="cls-5" d="M362.31,192.47a25.42,25.42,0,0,1-10.18,8.83c3.33-3.11,6.64-6,10.18-8.83Z"/></g></svg>