<svg xmlns="http://www.w3.org/2000/svg" viewBox="0 0 467.74 334.98"><defs><style>.cls-1{opacity:0.73;}.cls-2{fill:#ad622a;}.cls-3{fill:#e3903f;}.cls-4{fill:#a43b3f;}.cls-5{fill:#72242d;}.cls-6{fill:#f4a42f;}.cls-7{fill:#9b671c;}.cls-8{fill:#fff;opacity:0.53;}</style></defs><g id="Calque_18" data-name="Calque 18"><path class="cls-2" d="M399.36,77.08A61,61,0,0,0,393.94,65a28.89,28.89,0,0,0-2.49-3.48c-.49-.61-1-1.21-1.57-1.78-6.13-6.43-14.72-10.18-23.32-12.71h0c-1-.3-2-.58-3-.84h0c-1.06-.28-2.1-.54-3.15-.79-16.56-3.52-33.54-3.12-50.25-1.86-10.33.84-20.6,2-30.84,3.61-17.92,3.05-36.43,9.44-53.59,15.41C210.17,68,194.85,74.05,179.39,79.75,148,90.65,117.77,104,89.27,121.43c-13.09,8.22-26.38,17.88-35.53,30.7a53.61,53.61,0,0,0-8.22,17.8c-.45,2-1,4.12-1.32,6.24h0c-.15.86-.29,1.72-.4,2.57s-.17,1.58-.21,2.35c-.52,7.84,3.37,16,10.2,20,2.88,1.86,6.53,1.42,9.58,0,2.44-.92,4.87-2.9,7.53-2.86a200.78,200.78,0,0,0,24.61-2c24.5-3.27,48.72-8.37,72.75-14.08a976.84,976.84,0,0,0,95-27.25c35.07-12.15,70-25.14,102.93-42.45,10.15-5.47,29.94-17,33.71-28.16A10.12,10.12,0,0,0,399.36,77.08Zm-5.54,11c-5.1,6.06-12.31,10.27-19.12,14.34-42.84,24.16-90,39.68-136.51,55.21-39.14,12.41-78.33,24.91-118.51,33.56-16.05,3.39-32.34,6.55-48.78,6.55-4.66-.43-4.78-6.55-5.35-10a33.75,33.75,0,0,0-1.83-3.56,15.88,15.88,0,0,1-2.53-6.32,22.9,22.9,0,0,1,0-5.1,28,28,0,0,1,1.07-5.46h0a42.23,42.23,0,0,1,4-9.2,78.32,78.32,0,0,1,10.14-13.45c.35-.37.7-.75,1.06-1.11,12-12.58,27.55-22.14,42.7-30.59,19.76-10.52,40-21.15,60.18-30.89,11-5.18,22.79-9.76,34.26-13.88,21.16-7.52,42.89-14.22,65.21-17.19A307.42,307.42,0,0,1,319,49h0c6.39.13,12.84.51,19.15,1.24h0a123.83,123.83,0,0,1,25.8,5.55,0,0,0,0,1,0,0A76.33,76.33,0,0,1,374.1,60a60.4,60.4,0,0,1,5.29,3c6.2,4.17,13.07,8.34,16.22,15.54C397.67,81.83,396.08,85.22,393.82,88.07Z"/><path class="cls-3" d="M70.9,198a18.4,18.4,0,0,1-18.28-17.48c-.7-15.21,7.25-33.26,37.36-54.14C129.7,98.83,235.21,54.76,279.85,49S385.08,42,398.12,79.41C409.82,113,140.67,198.52,70.9,198Z"/><path class="cls-2" d="M130,114.34a207.55,207.55,0,0,0-22.5,16.84C87.84,147.82,68.55,165,50.39,183.26c-1.5,1.5-3.36,3.61-4.76,5.21a63.09,63.09,0,0,1,3.85-6c16.49-22.46,54.75-58,80.51-68.17Z"/><path class="cls-2" d="M141.94,102.81c-14.61,8.08-27.94,18.15-41.34,28C89,139.63,77.38,148.57,66.25,158q-8.67,7.33-16.94,15.16c-1.88,1.81-3.73,3.65-5.51,5.56.11-.85.25-1.71.4-2.57h0c1.17-1.5,2.37-3,3.59-4.41a247.09,247.09,0,0,1,29.66-28.29c6.75-5.53,13.72-10.79,20.79-15.88C112,118.12,126.14,108.56,141.94,102.81Z"/><path class="cls-2" d="M154.34,101.94c15.31-9.45,32.08-16.29,49-22.31,15.4-5.21,31.19-10.1,47.46-11.52,1.68-.16,3.4-.07,5.07-.08-8.8,1.56-17.28,4.37-25.79,7q-38.19,12.62-75.73,26.87Z"/><path class="cls-2" d="M366.56,47c-9.53.77-19,1.89-28.44,3.21h0c-27.52,3.88-54.75,9.56-82.24,13.89A363.94,363.94,0,0,1,312.22,50q3.36-.56,6.74-1.05h0c14.74-2.2,29.71-3.69,44.58-2.82h0C364.55,46.43,365.56,46.71,366.56,47Z"/><path class="cls-2" d="M391.45,61.5A170.32,170.32,0,0,0,374.1,60l-.84-.05c-8.62-.32-17.26-.37-25.89-.32-17.34.16-34.6.61-51.93,1.64,16.2-4.32,44.19-7.06,68.48-5.52a0,0,0,0,1,0,0,128.47,128.47,0,0,1,25.94,3.95C390.43,60.29,391,60.89,391.45,61.5Z"/><path class="cls-4" d="M247.85,190c-67,25-128,50-138.3,60.88C87.62,274,31.72,286.52,20.85,261.31a30.81,30.81,0,0,1-2-13.86s0,0,0,0c2.15-27.24,37.24-59.45,89-85.7C168.68,130.86,339.57,69.12,410,78.25c14.88,1.61,36.65,5.21,42.27,14.36,3.8,12.28.06,21.79-9.88,29Z"/><path class="cls-5" d="M248.16,190.86l-.59.22-.2-.54c-.24.76-.77.76-1.21,1-1.39.48-2.83.81-4.18,1.42-26.79,10.66-55.3,22.13-81.8,33.34q-10.81,4.64-21.46,9.62c-8.75,4.25-17.62,8.35-25.47,14a38.22,38.22,0,0,0-4.17,3.87,66.8,66.8,0,0,1-9.46,7.51,98.9,98.9,0,0,1-45,15.58c-17,1.45-36-3.32-37.75-23.44-2.86-21.81,21.44-46.5,36.68-59.88a218.52,218.52,0,0,1,49.78-32.34c17.93-8.2,36.16-15.58,54.46-22.88,11-4.29,33-12.88,44-17.06C223.19,113,246.59,103.21,269,98.62c30.79-6.84,61.15-15.44,92.46-19.69,7.82-1.08,15.66-2,23.55-2.41,15.81-1,31.66.71,47.19,4,7.74,1.94,16.9,4.25,21.74,11.21,5.35,10.88,2.07,21.93-7.27,29.32-8,6.59-18.37,9.29-27.88,12.65-54.17,18.42-116.33,39.41-170.63,57.2Zm-.63-1.74c53.78-19.31,115.79-41,169.85-59.71,3.28-1.18,10.69-3.56,14.05-4.87,13.8-5.31,25.59-15.85,19.23-30.93-6.6-10-30.69-13-42.17-14.35-23.39-2.35-46.91,1.65-69.78,6.34-22.94,5.11-45.84,10.92-67.77,19.47-29.23,11.43-60,18.38-89.29,29.58q-33.17,12.09-65.61,26c-7.19,3.08-14.27,6.22-21.15,9.92C68.73,184.47,31,213.28,21.72,242.07a30.42,30.42,0,0,0,.22,16.34C24.41,267.67,34,272,43,272.94c21.36,2.18,48-7.05,63.72-21.65a41.94,41.94,0,0,1,9.55-7.46A235.12,235.12,0,0,1,137.34,233a1141.21,1141.21,0,0,1,109.79-43.06l-.2-.54.6-.23Z"/><path class="cls-5" d="M54.71,257.65a30.27,30.27,0,0,0,7.79-3.21c4.11-2.28,8.07-4.8,12-7.39,18.74-12.64,36.75-26.27,55.52-38.92,15.7-10.47,31.59-21.21,49.36-27.95,24.82-9.07,50.35-16,75.81-23,36.41-9.71,73-18.9,110-26.24,7.41-1.34,14.82-3,22.35-3.35-7.49.7-14.81,2.67-22.16,4.24-58.47,14.28-116.81,29.51-174.19,47.72-21.7,6.5-40.83,18.5-59.66,30.79S94.16,235.85,75,247.8c-4,2.46-8.08,4.89-12.31,7a30,30,0,0,1-8,2.87Z"/><path class="cls-5" d="M27.77,253.42c3.64-.39,7-1.93,10.3-3.43s6.51-3.24,9.69-5c6.38-3.51,12.62-7.29,18.86-11.08,31.17-19.12,61.63-39.4,93.28-57.76,6.38-3.61,12.76-7.28,19.44-10.33-6.12,4-12.1,8.25-18.1,12.44-24,16.72-48.41,33.23-73.5,48.19-12.65,7.47-25.45,14.73-38.87,20.78-3.38,1.47-6.77,2.91-10.28,4.08s-7.13,2.31-10.82,2.13Z"/><path class="cls-5" d="M209.17,156.88c29.65-12.89,61.3-21.14,92.88-27.78,21.14-4.26,42.6-7.85,64.2-8.24,3.22-.14,7.56.17,10.79.35-5.39.28-10.71.75-16.06,1.41-19.47,2.6-38.86,6.46-58.07,10.55C271.44,140,240,147.54,209.17,156.88Z"/><path class="cls-5" d="M92,181.73a343.71,343.71,0,0,0-36.3,25.65c-7.35,6.17-15.24,12.38-20.47,20.47a6.62,6.62,0,0,0-1.19,3.92,1.42,1.42,0,0,0,.44.72l0,0a2.14,2.14,0,0,0,.4.07,13.76,13.76,0,0,0,4.6-1,105.69,105.69,0,0,0,13.11-6.24c4.31-2.35,8.57-4.84,12.8-7.38,25.5-15.2,50.25-31.74,76.14-46.33,8.72-4.66,17.38-9.92,27-12.44-4.71,1.54-9,4.08-13.29,6.5-29.76,17.81-57.89,38.16-87.7,55.93-8.69,5-17.28,10.27-26.76,13.75-2.39.74-5.1,1.71-7.7.8C28.89,234.19,30,229,32,226c10.5-15.68,42.69-35.71,60-44.23Z"/><path class="cls-5" d="M210.57,142.6c29-11.72,59.65-18.95,90.15-25.66,15.32-3.14,30.71-6,46.22-8.09s31.22-3.89,46.83-2.48c-15.61.37-31,3.19-46.32,5.77q-23,4.11-45.86,9c-30.49,6.51-61,13.05-91,21.5Z"/><path class="cls-5" d="M142.61,151.8c38.25-16.64,78.73-28.7,118.6-40.83,9.33-2.66,20.91-6,30.32-8.1,2.85-.68,7.37-1.59,10.28-2-2.9.56-7.26,1.62-10.17,2.42C251.51,114.78,211.7,128,172.08,141.13c-9.43,3.27-20.3,6.79-29.47,10.67Z"/><path class="cls-5" d="M37.22,274c6.83.46,12.11-16.16,12.11-19"/><path class="cls-5" d="M41.41,275.21c6.84.46,13.36-20.51,13.36-23.3"/><path class="cls-5" d="M60.31,246c2.54,8.07-2.07,26.83-10.87,29.67a10.42,10.42,0,0,0,2.65-3,50,50,0,0,0,4.68-10.95A81,81,0,0,0,60.31,246Z"/><path class="cls-5" d="M67.7,237.61c1.21,3.5.55,7.38-.06,10.95-2.08,10-7.72,22.65-17.88,26.55,7.21-5.44,11-13.82,14.24-22,1.7-5,3.74-10.16,3.7-15.51Z"/><path class="cls-5" d="M75.63,234.13c2.28,9.4-7,31.68-13.48,38.85a7.64,7.64,0,0,1-2.17,1.8,9.89,9.89,0,0,0,1.6-2.21c3.83-7.27,6.62-15.05,9.57-22.71,1.71-5.08,4.17-10.34,4.48-15.73Z"/><path class="cls-5" d="M82.81,227.17c3.27,13.23-4.63,33.92-14.29,43.22a14.36,14.36,0,0,1-5.71,3.52,17.41,17.41,0,0,0,4.79-4.37c5.3-6.88,8.77-15,11.58-23.18,2-6.21,3.72-12.55,3.63-19.19Z"/><path class="cls-5" d="M346.66,136.66c5-4.5,7.92-10.48,12.69-15.23-1.14,5.86-6.31,14.34-12.69,15.23Z"/><path class="cls-5" d="M352.19,136.3c5-4.5,7.92-10.49,12.69-15.23-1.15,5.86-6.31,14.34-12.69,15.23Z"/><path class="cls-5" d="M358.26,133.35c5.45-4.7,9.25-10.74,14.84-15.34-2.05,6-8.26,14.33-14.84,15.34Z"/><path class="cls-5" d="M365.61,131.68c5.45-4.71,9.25-10.74,14.83-15.34-2,6-8.26,14.32-14.83,15.34Z"/><path class="cls-5" d="M372.15,130.59c5-4.33,8.3-9.82,13.31-14.11-1.58,5.75-7,13.3-13.31,14.11Z"/><path class="cls-5" d="M379.57,127.46c4.95-4.33,8.29-9.82,13.31-14.1-1.58,5.75-7,13.3-13.31,14.1Z"/><path class="cls-5" d="M385.9,126.37c4.94-4.33,8.29-9.82,13.3-14.1-1.58,5.75-7,13.3-13.3,14.1Z"/><path class="cls-5" d="M388.73,128.56c4.95-4.34,8.3-9.83,13.31-14.11-1.58,5.75-7,13.3-13.31,14.11Z"/><path class="cls-5" d="M394.62,126.81c3.18-3.12,5.81-6.15,9.24-9-.24,4.65-4.47,9.17-9.24,9Z"/><path class="cls-5" d="M247.85,190c-67,25-128,50-138.3,60.88C87.62,274,31.72,286.52,20.85,261.31a30.81,30.81,0,0,1-2-13.86c2.54,18.9,22.87,30.79,62.06,2,46.68-34.32,105.48-68.39,121.13-69.65C211.45,179,232.59,185.08,247.85,190Z"/><path class="cls-5" d="M91.64,223.86c-.43,10.82-7.9,30.75-16.8,37.22,4.06-5.55,6.51-11.9,9.26-18.14s5.26-12.58,7.54-19.08Z"/><path class="cls-5" d="M98.24,219.36c.68,9.43-7.42,30.8-15.9,35.51a20.21,20.21,0,0,0,2.85-4,153.84,153.84,0,0,0,8.08-17.72c1.76-4.57,3.79-9.06,5-13.84Z"/><path class="cls-5" d="M107.75,213c.47,9.28-10.28,31-18.61,35.51a22.93,22.93,0,0,0,1.63-1.94c4.35-6.15,7.57-13,11-19.72,1.83-3.73,3.73-7.56,5.25-11.43l.44-1.19.32-1.23Z"/><path class="cls-5" d="M115.35,208c.47,9.28-10.28,31-18.61,35.51a22.75,22.75,0,0,0,1.63-1.95c4.35-6.14,7.57-13,11-19.71,1.83-3.74,3.73-7.56,5.25-11.43l.44-1.19.32-1.23Z"/><path class="cls-5" d="M121.65,205c.47,9.28-10.28,31-18.61,35.51a22.75,22.75,0,0,0,1.63-1.95c4.35-6.14,7.58-13,11-19.71,1.83-3.74,3.73-7.56,5.26-11.43l.43-1.19.32-1.23Z"/><path class="cls-5" d="M129.35,199.36c1.26,8.59-3.09,24.24-11.3,28.41,3.42-4,5.06-8.79,6.82-13.6s3.24-9.75,4.48-14.81Z"/><path class="cls-5" d="M135.05,195.46c1.49,8.3-1.17,23.19-9.4,27.3,3.24-3.78,4.55-8.39,5.92-13,1.16-4.05,2.51-10.09,3.48-14.26Z"/><path class="cls-5" d="M142.46,190.75c1.48,8.31-1.18,23.2-9.41,27.31,3.24-3.78,4.55-8.39,5.93-13,1.16-4.05,2.5-10.09,3.48-14.27Z"/><path class="cls-5" d="M147.56,188.15c3.81,8,.57,23.64-8.41,26.91,6.2-5.72,8.57-18.7,8.41-26.91Z"/><path class="cls-5" d="M154.46,186.65c3.85,7.86.49,22.81-8.39,26,6.2-5.84,8.52-17.68,8.39-26Z"/><path class="cls-5" d="M160.16,186.75c2.69,3,2.45,8,.15,11.14-1.21-3.72-.91-7.36-.15-11.14Z"/><path class="cls-5" d="M165.36,185.15c2.6,2.64,2.48,7.2.31,10.07-1.34-3.31-1.14-6.65-.31-10.07Z"/><path class="cls-5" d="M170.56,183.05c2.52,2.31,2.49,6.56.42,9.16a12.39,12.39,0,0,1-.42-9.16Z"/><path class="cls-5" d="M175.07,183.75a3.74,3.74,0,0,1,.63,6,4.76,4.76,0,0,1-.63-6Z"/><path class="cls-6" d="M398.3,76.35a2.83,2.83,0,0,0-.64-1.52,1.31,1.31,0,0,0-1.53-.38,5.13,5.13,0,0,0-.87.51A15.14,15.14,0,0,0,393,77.35c-2.43,2.82-6,7.48-9.36,11.75-13.59,17.54-32.21,41.56-46.91,46-12.29,3.67-33.23-2.08-55.4-8.16-15.42-4.23-31.37-8.62-40.15-8.08-18.65,1.1-31.65,15.14-37.12,26.84-6.23,13.31-22.71,31.54-38.46,37.79-7.62,3-18,1.79-30.1.35-13.69-1.62-29.2-3.47-40.58,1.63-19.29,8.64-24.57,37.41-21,50.19a4.68,4.68,0,0,1-3.26,5.76,4.6,4.6,0,0,1-1.26.17,4.67,4.67,0,0,1-4.51-3.43c-4.26-15.35,1-49.92,26.22-61.24,13.74-6.16,30.63-4.15,45.52-2.38,10.35,1.23,20.11,2.4,25.53.25,13.19-5.24,27.94-21.32,33.43-33.07a59.45,59.45,0,0,1,20.18-23.75,49.31,49.31,0,0,1,24.87-8.46,6.13,6.13,0,0,1,.62,0c10.36-.42,26,3.88,42.57,8.43,19,5.21,40.52,11.11,50.23,8.22,11.83-3.54,30.84-28.06,42.2-42.71,1.59-2.06,3-3.88,4.29-5.51,5.21-6.65,8-9.92,10.32-11.2,4.9-2.77,8.5-2,10.64-.78,5.32,2.89,6.07,9.54,6.15,11"/><path class="cls-7" d="M398.2,76.36c-.76-3.54-3.21-1.27-4.63.51s-2.85,3.62-4.28,5.43c-2.85,3.63-5.7,7.25-8.49,10.93-10.47,13.31-27.18,36.18-43.09,42.17-7.26,2.47-15.21,1.5-22.62.41-18.28-3.06-35.84-9-53.81-13.26-8.84-2-18-4.17-26.93-1.83-13.28,3.27-24.11,13.6-29.92,25.81a73.07,73.07,0,0,1-7.5,11.79c-8.59,10.85-19.1,20.91-32.23,25.94-4.5,1.48-9.25,1.59-13.86,1.4-17.16-.75-34.53-5.9-51.52-1.52C78.75,189.7,70,217.82,74.5,236.75c.09,6.16-8.8,7.35-10.26,1.2-4.48-20,2.92-46,20.09-58.15,15.83-11.05,36.36-8.05,54.34-6,6.78.68,13.69,1.78,20.41.74,6.58-1.54,12.11-5.93,17.24-10.21a81.25,81.25,0,0,0,17.2-21.05c5.79-12.74,15.54-24,28.37-30.08a49.16,49.16,0,0,1,20.51-4.8c11.67.19,23,3.58,34.17,6.51,13.35,3.62,26.58,7.72,40.19,10.09,5,.82,10.2,1.5,15.26.79,11.94-2,30.42-26.05,38.33-35.74l8.57-10.88c3.73-4.39,6.91-9.5,11.76-12.77,8.67-5.06,16.44,1,17,10.43h-.2a16.36,16.36,0,0,0-1.93-6.53c-3.07-5.61-9.34-6.67-14.6-3.41-4.68,3.29-7.77,8.41-11.37,12.79l-8.46,11C362.82,101,346.39,122.73,334,126.8c-13.94,3.42-43.12-6.45-57.95-10-11.12-2.79-22.21-6.13-33.67-6.32a47.05,47.05,0,0,0-19.62,4.64c-12.42,5.87-21.77,16.78-27.39,29.21a82.64,82.64,0,0,1-17.73,21.58,56.68,56.68,0,0,1-14.72,9.58c-3.31,1.43-7.11,1.5-10.61,1.44-18.27-.72-36.77-6.07-54.83-1.41C84,178.75,73.84,189.73,68.87,202.42a66.67,66.67,0,0,0-4.78,26.82c.24,3.31.37,6.85,1.75,9.89a4.22,4.22,0,0,0,7.41-3.95C71.06,224.9,73.1,214,77.1,204.45s11.7-18.21,22.05-20.9c17-4.44,34.59.62,51.72,1.29,4.57.14,9.23,0,13.52-1.5,12.8-5.06,23.11-15.13,31.43-25.87A71.58,71.58,0,0,0,203,145.86c5.88-12.72,17.07-23.37,30.89-26.84,9.21-2.46,18.73-.28,27.75,1.82,17.95,4.28,35.48,10.34,53.65,13.46,7.26,1.07,14.86,2.1,21.94-.2,15.61-5.74,32.39-28.31,43-41.27q6.45-8.14,13.06-16.17A8.3,8.3,0,0,1,396,74.39a1.39,1.39,0,0,1,1.71.32,2.92,2.92,0,0,1,.7,1.62l-.2,0Z"/><path class="cls-3" d="M203.69,179.48c-19.53,9.32-137.62,68.37-104.32,96.78s120.31-8.88,153.16-30.19,79.91-43.95,109.66-45.73,67-30.18,73.25-51.49,1.77-34.19-44.4-23.53S223.67,170.16,203.69,179.48Z"/><path class="cls-2" d="M211.3,239.35,182.23,254c-9.66,4.91-19.24,9.84-28.68,15.13-11.27,6-24.55,12-37.78,13.42a49.68,49.68,0,0,1-9.9.13,38.62,38.62,0,0,1-3.77-2.11,48.55,48.55,0,0,0,7.72-.13c9.4-.84,18.73-4.07,27.31-7.86,9.91-4.29,19.12-10,28.85-14.74A347.41,347.41,0,0,1,211.3,239.35Z"/><path class="cls-2" d="M244.78,231.52c-21.89,13.28-45.34,26-67.87,38.26a232.51,232.51,0,0,1-31,14.67h0c-3.81,1.41-7.66,2.67-11.55,3.71a81,81,0,0,1-9.15-.36c3.15-.81,6.26-1.76,9.35-2.82h0c14-4.79,27.39-11.73,40.35-18.94C197.79,253.74,221,242,244.78,231.52Z"/><path class="cls-2" d="M439.67,128.69a31,31,0,0,1-5.7,11.56l-.21.25c-15.9,20.1-48.49,33.57-72.47,41.3-10.72,3.21-21.63,6.51-32.85,7.31a146.28,146.28,0,0,0,16-4.78q15.82-5.4,31.24-11.83a307.73,307.73,0,0,0,30-14.24c9.59-5.35,19.08-11.25,26.59-19.34.62-.67,1.23-1.37,1.8-2.09a29.84,29.84,0,0,0,5.16-8.94C439.45,128.16,439.56,128.43,439.67,128.69Z"/><path class="cls-2" d="M441.1,136c0,.76,0,1.52,0,2.29h0a37.28,37.28,0,0,1-5.52,9,72.29,72.29,0,0,1-6.09,6.34c-18.77,17.48-49.07,29.94-72,37.67-5.7,1.9-11.47,3.58-17.29,5.1s-11.71,3-17.72,3.3c5.85-1.23,11.47-3.36,17.12-5.29q16.84-6,33.33-13c10.95-4.63,21.78-9.6,32.21-15.28,9.5-5.23,18.94-10.88,26.88-18.32.69-.63,1.36-1.28,2-1.95A36.06,36.06,0,0,0,441.1,136Z"/><path class="cls-2" d="M430,120c-5.3,1.23-10.54,2.76-15.79,4.19l-1.8.52c-25.71,7.42-54,16.56-79.65,23.74a376,376,0,0,1,41.76-16.68C391.64,126,410,121,425,118.88q.75.11,1.5.24A23.44,23.44,0,0,1,430,120Z"/><path class="cls-8" d="M114.62,263.19c15.45-22.52,57.39-41,81.93-54,28.43-13.83,57.27-27.8,87.56-37.13,1-.27,2-.49,3-.73l-2.77,1.31c-6.27,3.11-12.77,6.75-18.87,10.12-33,18.47-73.83,41.05-106.63,59.47-14.19,8.18-29.1,14.61-44.21,21Z"/><path class="cls-8" d="M304.49,167.82c10.68-7.34,32.76-11.84,45.8-12.76-9.37,3.11-19.15,5.41-28.69,7.88a177.53,177.53,0,0,0-17.11,4.88Z"/><path class="cls-8" d="M378.41,149.85c5.62-3.78,12.21-5.84,18.58-8a120.4,120.4,0,0,1,19.68-4.5c-12.27,5.54-25.37,8.77-38.26,12.47Z"/><path class="cls-2" d="M439.67,128.69c-.11-.26-.22-.53-.35-.8A15,15,0,0,0,430,120a23.44,23.44,0,0,0-3.56-.89q-.75-.14-1.5-.24c-6-.84-12.19-.24-18.09.6-20.63,3.46-40.6,9.78-60.7,15.1-44,12.36-87.88,25-131.15,39.61-3.43,1.23-8.46,2.92-11.74,4.41-15.1,7-30.43,13.62-44.77,22.15-17.83,11.06-87.58,51.87-61,76.38a40.39,40.39,0,0,0,8.41,5.53,55.15,55.15,0,0,0,19.32,5.14h0a81,81,0,0,0,9.15.36c26.95-.35,58.06-12,77.61-20.34a304.39,304.39,0,0,0,44.12-23.18c14-8.77,29-16,44.24-22.42,7.58-3.26,15.29-6.13,22.83-9.38,11.38-4.55,22.92-9.44,35.19-10.81,12.64-.89,25.6-2.56,37.17-8.24a109.91,109.91,0,0,0,30.66-23.17,61.45,61.45,0,0,0,11.14-16.36,52.16,52.16,0,0,0,3.77-16h0c0-.77,0-1.53,0-2.29A20.59,20.59,0,0,0,439.67,128.69Zm-5.51,8.14a34,34,0,0,1-.4,3.67,47.47,47.47,0,0,1-1.79,7.28c-.41,1.23-.85,2.41-1.33,3.52-.37.77-.76,1.52-1.18,2.26-4.27,7.8-10.64,14.28-17.54,20.17a124.91,124.91,0,0,1-19.85,13.55c-7,4-14.07,8.13-21.87,10.31-3.24,1-8.82,1.54-12.16,1.86a183.44,183.44,0,0,0-36.79,8.36c-15.81,5.47-30.42,13.95-44.75,22.44s-27.75,18.28-42.58,25.8a302.1,302.1,0,0,1-45.8,19.08c-12,3.77-27.19,7.88-42.23,9.32h0a108.79,108.79,0,0,1-11.35.53h0a69.87,69.87,0,0,1-18.77-2.45,44.15,44.15,0,0,1-6-2.11,41.17,41.17,0,0,1-5.08-2.6c-13.16-7.85-10.63-18.13-2.42-28.58,5-6.35,11.18-11.84,17.49-17,12.82-10.36,26.95-19,41.2-27.28s28.31-17.24,43.1-24.64c3.19-1.44,8.18-3.32,11.49-4.53,27.49-9.31,55.54-16.86,83.5-24.62,23.81-6.48,48.23-12.89,72.25-18.69l3.19-.74c11-2.57,21.91-5.34,33.07-6.66,1.41-.12,3.05-.29,4.82-.4,9.13-.64,21.54-.29,21.75,10.13C434.2,135.5,434.19,136.16,434.16,136.83Z"/><path class="cls-8" d="M82.52,165c6-11.47,20.39-20.78,31.47-26.82a675.65,675.65,0,0,1,73.92-34.83c12.71-4.92,25.51-9.86,38.83-12.9-34.57,17.67-73.27,39-107.35,57.48C107.66,154.78,95.18,160,82.52,165Z"/><path class="cls-8" d="M256.83,83.11A101.07,101.07,0,0,1,277,76.76,113.82,113.82,0,0,1,298,74c-6.73,2.15-13.55,3.7-20.43,5.21s-13.81,2.89-20.71,3.86Z"/><path class="cls-8" d="M315.89,71.61a127.38,127.38,0,0,1,29.75-6c6.06-.41,12.26-.92,18.25.28-3.49.15-8.49.92-12,1.33-11.17,1.42-24.82,3.42-36,4.43Z"/></g></svg>