<svg xmlns="http://www.w3.org/2000/svg" viewBox="0 0 64.6 64.6"><defs><style>.cls-1{fill:#e6a116;}</style></defs><g id="Calque_2" data-name="Calque 2"><g id="Calque_21" data-name="Calque 21"><g id="Icon_ionic-logo-instagram" data-name="Icon ionic-logo-instagram"><path id="Tracé_1" data-name="Tracé 1" class="cls-1" d="M45.76,5.38A13.5,13.5,0,0,1,59.21,18.84V45.76A13.49,13.49,0,0,1,45.76,59.21H18.84A13.5,13.5,0,0,1,5.38,45.76V18.84A13.52,13.52,0,0,1,18.84,5.38H45.76m0-5.38H18.84A18.9,18.9,0,0,0,0,18.84V45.76A18.9,18.9,0,0,0,18.84,64.6H45.76A18.9,18.9,0,0,0,64.6,45.76V18.84A18.9,18.9,0,0,0,45.76,0Z"/><path id="Tracé_2" data-name="Tracé 2" class="cls-1" d="M49.79,18.84a4,4,0,1,1,4-4,4,4,0,0,1-4,4Z"/><path id="Tracé_3" data-name="Tracé 3" class="cls-1" d="M32.3,21.53A10.77,10.77,0,1,1,21.53,32.3,10.77,10.77,0,0,1,32.3,21.53m0-5.38A16.15,16.15,0,1,0,48.45,32.3,16.15,16.15,0,0,0,32.3,16.15Z"/></g></g></g></svg>