<svg xmlns="http://www.w3.org/2000/svg" viewBox="0 0 527.71 85.57"><defs><style>.cls-1{fill:#a12a13;}</style></defs><g id="Calque_2" data-name="Calque 2"><g id="Calque_2-2" data-name="Calque 2"><path class="cls-1" d="M42.53,42.75,72.6,72.82a42.53,42.53,0,1,1,0-60.14Z"/><circle class="cls-1" cx="115.06" cy="42.8" r="42.77"/><polygon class="cls-1" points="197.8 57.9 197.8 0 163.64 0 163.64 85.57 192.52 85.57 197.8 85.57 235.16 85.57 235.16 57.9 197.8 57.9"/><path class="cls-1" d="M288.45,57.81l15.92,27.76h33.3L288.58,0,242,85.57h31.35Z"/><path class="cls-1" d="M389.46,0h-43V85.57h30.3V67.79L393,85.57h31.18L401.62,52.38c9.33-5.51,18.64-15.68,18.64-27.31C421.08,10.05,407.23,0,389.46,0Z"/><rect class="cls-1" x="434.11" y="35.83" width="29.06" height="49.74"/><circle class="cls-1" cx="448.64" cy="14.29" r="14.29"/><polygon class="cls-1" points="527.71 24.55 527.71 0 504.25 0 496.61 0 474.04 0 474.04 85.57 496.61 85.57 504.25 85.57 527.71 85.57 527.71 61.03 504.25 61.03 504.25 55.06 527.71 55.06 527.71 30.51 504.25 30.51 504.25 24.55 527.71 24.55"/></g></g></svg>