<svg xmlns="http://www.w3.org/2000/svg" viewBox="0 0 73.1 43.86"><defs><style>.cls-1{fill:#e6a116;}</style></defs><g id="Calque_2" data-name="Calque 2"><g id="Calque_21" data-name="Calque 21"><path id="Icon_payment-mastercard" data-name="Icon payment-mastercard" class="cls-1" d="M51.17,0A21.81,21.81,0,0,0,36.55,5.59a21.93,21.93,0,1,0,0,32.68A21.93,21.93,0,1,0,51.17,0ZM9.05,27.18l1.27-8-2.9,8H5.8v-8l-1.45,8H2.18L4,16.68H7.24v6.51L9.6,16.68H13l-1.81,10.5ZM19.18,25a11.28,11.28,0,0,1-.36,1.63v.55H17v-.91a2.64,2.64,0,0,1-2.35,1.09,2,2,0,0,1-1.44-.55A2.92,2.92,0,0,1,12.67,25a2.85,2.85,0,0,1,.9-2.35,5.2,5.2,0,0,1,3.08-.9h.9v-.54c0-.48-.48-.73-1.45-.73a9.92,9.92,0,0,0-2.35.37c.12-.48.24-1.09.36-1.81a7.42,7.42,0,0,1,2.54-.55c2.05,0,3.07.85,3.07,2.54a8.82,8.82,0,0,1-.17,1.62c-.12.79-.24,1.57-.37,2.35Zm6.52-4.34a5.59,5.59,0,0,0-1.63-.18c-.73,0-1.09.24-1.09.72a.78.78,0,0,0,.18.55l.73.36a2.69,2.69,0,0,1,1.63,2.35q0,2.89-3.44,2.9a10.86,10.86,0,0,1-2.35-.19c.11-.48.24-1.14.36-2a10.27,10.27,0,0,0,2,.37c.84,0,1.27-.24,1.27-.73a.76.76,0,0,0-.19-.54,2.24,2.24,0,0,0-.9-.54,2.43,2.43,0,0,1-1.62-2.36c0-1.92,1.08-2.89,3.25-2.89a8.76,8.76,0,0,1,2.17.18l-.36,2Zm4.7.18H29.13A6.37,6.37,0,0,1,29,22.47a4.3,4.3,0,0,1-.09.72,1.36,1.36,0,0,1-.27.73v.72a.64.64,0,0,0,.54.73h.19a1.78,1.78,0,0,0,.72-.18l-.36,2a5.59,5.59,0,0,1-1.63.18A1.61,1.61,0,0,1,26.24,26a1.7,1.7,0,0,1,0-.45,8.47,8.47,0,0,1,.36-2.35l.9-5.79h2.17l-.18,1.26h1.09l-.18,2.18Zm7.05,2.9H32.93A1.75,1.75,0,0,0,33.29,25a2.22,2.22,0,0,0,1.63.54,4.73,4.73,0,0,0,2.35-.72L36.91,27a6.25,6.25,0,0,1-2.35.36q-3.8,0-3.8-3.8a5.42,5.42,0,0,1,1.09-3.62,3.27,3.27,0,0,1,2.71-1.45,3.18,3.18,0,0,1,2.36.9,3,3,0,0,1,.72,2.17,11.22,11.22,0,0,1-.18,2.17Zm3.62-1.63a36.37,36.37,0,0,0-.9,5.07H37.82l.18-.54q.72-5.07,1.09-8h2.17l-.18,1.26a2.29,2.29,0,0,1,1.08-1.09.79.79,0,0,1,1.09-.18,13.37,13.37,0,0,0-.9,2.53c-.48-.12-.91.18-1.27.9ZM49.21,27a4.51,4.51,0,0,1-2,.36,3.6,3.6,0,0,1-2.89-1.27,4.4,4.4,0,0,1-1.09-3.25,7,7,0,0,1,1.45-4.53,4.16,4.16,0,0,1,3.62-1.81,8.81,8.81,0,0,1,2.53.55l-.36,2.17a4.5,4.5,0,0,0-2-.55,2.44,2.44,0,0,0-2.17,1.09,4.61,4.61,0,0,0-.72,2.89,2.52,2.52,0,0,0,.54,1.81,1.69,1.69,0,0,0,1.45.72,4.49,4.49,0,0,0,2-.54L49.22,27Zm8-5.25a6.86,6.86,0,0,0-.09.9c-.12.61-.24,1.42-.36,2.44a12.06,12.06,0,0,1-.36,2.08H54.64v-.9a2.63,2.63,0,0,1-2.35,1.09,2,2,0,0,1-1.45-.55A3,3,0,0,1,50.3,25a2.85,2.85,0,0,1,.9-2.35,4.93,4.93,0,0,1,2.9-.9H55a.75.75,0,0,0,.18-.54c0-.48-.49-.72-1.45-.72a9.28,9.28,0,0,0-2.35.36A5.6,5.6,0,0,1,51.74,19a7.35,7.35,0,0,1,2.53-.54c2,0,3.08.84,3.08,2.53a4.43,4.43,0,0,1-.09.72Zm3.53.36a36.37,36.37,0,0,0-.9,5.07H57.54l.18-.55c.48-2.63.84-5.29,1.09-8H61a4.53,4.53,0,0,1-.18,1.27,2.29,2.29,0,0,1,1.08-1.09A1.28,1.28,0,0,1,63,18.67a4.73,4.73,0,0,0-.9,2.53c-.49-.12-.91.18-1.27.9Zm6.15,5.07.18-.73a2.39,2.39,0,0,1-2,.9,2.11,2.11,0,0,1-2-.9,4.35,4.35,0,0,1-.9-2.53,5.59,5.59,0,0,1,1.27-3.8A2.85,2.85,0,0,1,66,18.67a3.13,3.13,0,0,1,2.17,1.09l.37-3.08h2.35l-1.81,10.5H66.94Zm-52.1-2.54c0,.61.24.9.73.9A1.2,1.2,0,0,0,16.65,25a2.22,2.22,0,0,0,.54-1.63h-.54c-1.21,0-1.81.43-1.81,1.27Zm20.45-4a.53.53,0,0,1-.37-.18h-.36c-.72,0-1.2.48-1.44,1.45h2.53v-.54L35.47,21a.54.54,0,0,0-.18-.36Zm17.18,4c0,.61.24.9.73.9A1.2,1.2,0,0,0,54.28,25a2.22,2.22,0,0,0,.55-1.63h-.55c-1.2,0-1.81.43-1.81,1.27Zm13.93-4a1.52,1.52,0,0,0-1.26.9,3.8,3.8,0,0,0-.36,2c0,1.09.36,1.63,1.08,1.63a1.58,1.58,0,0,0,1.27-.72,3.54,3.54,0,0,0,.54-2.17c0-1.09-.42-1.63-1.26-1.63Z"/></g></g></svg>