<svg xmlns="http://www.w3.org/2000/svg" viewBox="0 0 183.47 183.47"><defs><style>.cls-1{fill:#e34a85;}</style></defs><g id="Calque_2" data-name="Calque 2"><g id="Capa_1" data-name="Capa 1"><path class="cls-1" d="M174.38,108.18c1.1-5.55,9.09-10.57,9.09-16.44s-8-10.89-9.09-16.45c-1.13-5.72,4.31-13.4,2.13-18.67S165,49.69,161.8,44.93s-1.13-14-5.2-18.06-13.26-2-18.06-5.19S132.21,9.18,126.85,7s-12.95,3.26-18.67,2.13C102.63,8,97.61,0,91.74,0S80.85,8,75.29,9.09C69.57,10.22,61.89,4.78,56.62,7S49.69,18.49,44.93,21.68s-14,1.12-18.06,5.19-2,13.26-5.19,18.06S9.18,51.26,7,56.62s3.26,12.95,2.13,18.67C8,80.85,0,85.86,0,91.74s8,10.89,9.09,16.44c1.13,5.72-4.31,13.41-2.13,18.67s11.53,6.93,14.72,11.69,1.12,14,5.19,18.06,13.26,2,18.06,5.2,6.33,12.49,11.69,14.71,12.95-3.26,18.67-2.13c5.56,1.1,10.57,9.09,16.45,9.09s10.89-8,16.44-9.09c5.72-1.13,13.41,4.31,18.67,2.13s6.93-11.53,11.69-14.71,14-1.13,18.06-5.2,2-13.26,5.2-18.06,12.49-6.33,14.71-11.69S173.25,113.9,174.38,108.18Z"/></g></g></svg>