<svg xmlns="http://www.w3.org/2000/svg" xmlns:xlink="http://www.w3.org/1999/xlink" viewBox="0 0 1390.57 1077.59"><defs><style>.cls-1{fill:none;}.cls-2{clip-path:url(#clip-path);}.cls-3{fill:#e78719;}.cls-4{fill:#fc1d2f;}.cls-5{fill:#242625;}.cls-6{fill:#f07225;}.cls-7{fill:#f4ec6f;}.cls-8{fill:#e42a1d;}</style><clipPath id="clip-path" transform="translate(104.69 129.49)"><rect class="cls-1" width="1070.62" height="676.8"/></clipPath></defs><g id="Calque_2" data-name="Calque 2"><g id="Calque_8" data-name="Calque 8"><g class="cls-2"><path class="cls-3" d="M750,1.5h0a107,107,0,0,1,107,107V270.26a0,0,0,0,1,0,0H643a0,0,0,0,1,0,0V108.5A107,107,0,0,1,750,1.5Z"/><path class="cls-4" d="M750,23h0a83.82,83.82,0,0,1,83.82,83.82v163a0,0,0,0,1,0,0H666.16a0,0,0,0,1,0,0v-163A83.82,83.82,0,0,1,750,23Z"/><path class="cls-5" d="M750,46h0a60.77,60.77,0,0,1,60.77,60.77V269.83a0,0,0,0,1,0,0H689.21a0,0,0,0,1,0,0V106.75A60.77,60.77,0,0,1,750,46Z"/><path class="cls-6" d="M750,54.15h0a55,55,0,0,1,55,55V269.83a0,0,0,0,1,0,0H695a0,0,0,0,1,0,0V109.13a55,55,0,0,1,55-55Z"/><path class="cls-7" d="M750,87.85h0a19.92,19.92,0,0,1,19.92,19.92V269.83a0,0,0,0,1,0,0H730.06a0,0,0,0,1,0,0V107.77A19.92,19.92,0,0,1,750,87.85Z"/><path class="cls-8" d="M753.79,140.77h-3V-21a105.61,105.61,0,0,0-105.5-105.49A105.61,105.61,0,0,0,539.79-21V140.77h-3V-21a108.62,108.62,0,0,1,108.5-108.49A108.62,108.62,0,0,1,753.79-21Z" transform="translate(104.69 129.49)"/><path class="cls-3" d="M963.68,1.5h0a107,107,0,0,1,107,107V270.26a0,0,0,0,1,0,0h-214a0,0,0,0,1,0,0V108.5a107,107,0,0,1,107-107Z"/><path class="cls-4" d="M963.68,23h0a83.82,83.82,0,0,1,83.82,83.82v163a0,0,0,0,1,0,0H879.86a0,0,0,0,1,0,0v-163A83.82,83.82,0,0,1,963.68,23Z"/><path class="cls-5" d="M963.68,46h0a60.77,60.77,0,0,1,60.77,60.77V269.83a0,0,0,0,1,0,0H902.91a0,0,0,0,1,0,0V106.75A60.77,60.77,0,0,1,963.68,46Z"/><path class="cls-6" d="M963.68,54.15h0a55,55,0,0,1,55,55V269.83a0,0,0,0,1,0,0h-110a0,0,0,0,1,0,0V109.13a55,55,0,0,1,55-55Z"/><path class="cls-7" d="M963.68,87.85h0a19.92,19.92,0,0,1,19.92,19.92V269.83a0,0,0,0,1,0,0H943.76a0,0,0,0,1,0,0V107.77a19.92,19.92,0,0,1,19.92-19.92Z"/><path class="cls-8" d="M967.49,140.77h-3V-21A105.61,105.61,0,0,0,859-126.49,105.61,105.61,0,0,0,753.5-21V140.77h-3V-21A108.61,108.61,0,0,1,859-129.49,108.62,108.62,0,0,1,967.49-21Z" transform="translate(104.69 129.49)"/><path class="cls-3" d="M1177.38,1.5h0a107,107,0,0,1,107,107V270.26a0,0,0,0,1,0,0h-214a0,0,0,0,1,0,0V108.5A107,107,0,0,1,1177.38,1.5Z"/><path class="cls-4" d="M1177.38,23h0a83.82,83.82,0,0,1,83.82,83.82v163a0,0,0,0,1,0,0H1093.56a0,0,0,0,1,0,0v-163A83.82,83.82,0,0,1,1177.38,23Z"/><path class="cls-5" d="M1177.38,46h0a60.77,60.77,0,0,1,60.77,60.77V269.83a0,0,0,0,1,0,0H1116.61a0,0,0,0,1,0,0V106.75A60.77,60.77,0,0,1,1177.38,46Z"/><path class="cls-6" d="M1177.38,54.15h0a55,55,0,0,1,55,55V269.83a0,0,0,0,1,0,0h-110a0,0,0,0,1,0,0V109.13A55,55,0,0,1,1177.38,54.15Z"/><path class="cls-7" d="M1177.38,87.85h0a19.92,19.92,0,0,1,19.92,19.92V269.83a0,0,0,0,1,0,0h-39.84a0,0,0,0,1,0,0V107.77A19.92,19.92,0,0,1,1177.38,87.85Z"/><path class="cls-8" d="M1181.19,140.77h-3V-21A105.61,105.61,0,0,0,1072.7-126.49,105.61,105.61,0,0,0,967.2-21V140.77h-3V-21a108.61,108.61,0,0,1,108.49-108.49A108.62,108.62,0,0,1,1181.19-21Z" transform="translate(104.69 129.49)"/><path class="cls-3" d="M108.5,1.5h0a107,107,0,0,1,107,107V270.26a0,0,0,0,1,0,0H1.5a0,0,0,0,1,0,0V108.5A107,107,0,0,1,108.5,1.5Z"/><path class="cls-4" d="M108.5,23h0a83.82,83.82,0,0,1,83.82,83.82v163a0,0,0,0,1,0,0H24.68a0,0,0,0,1,0,0v-163A83.82,83.82,0,0,1,108.5,23Z"/><path class="cls-5" d="M108.5,46h0a60.77,60.77,0,0,1,60.77,60.77V269.83a0,0,0,0,1,0,0H47.73a0,0,0,0,1,0,0V106.75A60.77,60.77,0,0,1,108.5,46Z"/><path class="cls-6" d="M108.5,54.15h0a55,55,0,0,1,55,55V269.83a0,0,0,0,1,0,0h-110a0,0,0,0,1,0,0V109.13A55,55,0,0,1,108.5,54.15Z"/><path class="cls-7" d="M108.5,87.85h0a19.92,19.92,0,0,1,19.92,19.92V269.83a0,0,0,0,1,0,0H88.58a0,0,0,0,1,0,0V107.77A19.92,19.92,0,0,1,108.5,87.85Z"/><path class="cls-8" d="M112.31,140.77h-3V-21A105.61,105.61,0,0,0,3.81-126.49,105.61,105.61,0,0,0-101.69-21V140.77h-3V-21A108.62,108.62,0,0,1,3.81-129.49,108.62,108.62,0,0,1,112.31-21Z" transform="translate(104.69 129.49)"/><path class="cls-3" d="M322.2,1.5h0a107,107,0,0,1,107,107V270.26a0,0,0,0,1,0,0h-214a0,0,0,0,1,0,0V108.5A107,107,0,0,1,322.2,1.5Z"/><path class="cls-4" d="M322.2,23h0A83.82,83.82,0,0,1,406,106.85v163a0,0,0,0,1,0,0H238.38a0,0,0,0,1,0,0v-163A83.82,83.82,0,0,1,322.2,23Z"/><path class="cls-5" d="M322.2,46h0A60.77,60.77,0,0,1,383,106.75V269.83a0,0,0,0,1,0,0H261.43a0,0,0,0,1,0,0V106.75A60.77,60.77,0,0,1,322.2,46Z"/><path class="cls-6" d="M322.2,54.15h0a55,55,0,0,1,55,55V269.83a0,0,0,0,1,0,0h-110a0,0,0,0,1,0,0V109.13a55,55,0,0,1,55-55Z"/><path class="cls-7" d="M322.2,87.85h0a19.92,19.92,0,0,1,19.92,19.92V269.83a0,0,0,0,1,0,0H302.28a0,0,0,0,1,0,0V107.77A19.92,19.92,0,0,1,322.2,87.85Z"/><path class="cls-8" d="M326,140.77h-3V-21a105.61,105.61,0,0,0-105.5-105.49A105.61,105.61,0,0,0,112-21V140.77h-3V-21a108.62,108.62,0,0,1,108.5-108.49A108.62,108.62,0,0,1,326-21Z" transform="translate(104.69 129.49)"/><path class="cls-3" d="M535.9,1.5h0a107,107,0,0,1,107,107V270.26a0,0,0,0,1,0,0h-214a0,0,0,0,1,0,0V108.5a107,107,0,0,1,107-107Z"/><path class="cls-4" d="M535.9,23h0a83.82,83.82,0,0,1,83.82,83.82v163a0,0,0,0,1,0,0H452.08a0,0,0,0,1,0,0v-163A83.82,83.82,0,0,1,535.9,23Z"/><path class="cls-5" d="M535.9,46h0a60.77,60.77,0,0,1,60.77,60.77V269.83a0,0,0,0,1,0,0H475.13a0,0,0,0,1,0,0V106.75A60.77,60.77,0,0,1,535.9,46Z"/><path class="cls-6" d="M535.9,54.15h0a55,55,0,0,1,55,55V269.83a0,0,0,0,1,0,0h-110a0,0,0,0,1,0,0V109.13a55,55,0,0,1,55-55Z"/><path class="cls-7" d="M535.9,87.85h0a19.92,19.92,0,0,1,19.92,19.92V269.83a0,0,0,0,1,0,0H516a0,0,0,0,1,0,0V107.77A19.92,19.92,0,0,1,535.9,87.85Z"/><path class="cls-8" d="M539.71,140.77h-3V-21a105.61,105.61,0,0,0-105.5-105.49A105.61,105.61,0,0,0,325.72-21V140.77h-3V-21A108.61,108.61,0,0,1,431.21-129.49,108.62,108.62,0,0,1,539.71-21Z" transform="translate(104.69 129.49)"/><path class="cls-3" d="M854.67,164.07h0a107,107,0,0,1,107,107V432.84a0,0,0,0,1,0,0h-214a0,0,0,0,1,0,0V271.07A107,107,0,0,1,854.67,164.07Z"/><path class="cls-4" d="M854.67,185.6h0a83.82,83.82,0,0,1,83.82,83.82v163a0,0,0,0,1,0,0H770.85a0,0,0,0,1,0,0v-163A83.82,83.82,0,0,1,854.67,185.6Z"/><path class="cls-5" d="M854.67,208.55h0a60.77,60.77,0,0,1,60.77,60.77V432.4a0,0,0,0,1,0,0H793.9a0,0,0,0,1,0,0V269.32a60.77,60.77,0,0,1,60.77-60.77Z"/><path class="cls-6" d="M854.67,216.72h0a55,55,0,0,1,55,55V432.4a0,0,0,0,1,0,0h-110a0,0,0,0,1,0,0V271.71a55,55,0,0,1,55-55Z"/><path class="cls-7" d="M854.67,250.43h0a19.92,19.92,0,0,1,19.92,19.92V432.4a0,0,0,0,1,0,0H834.75a0,0,0,0,1,0,0V270.35A19.92,19.92,0,0,1,854.67,250.43Z"/><path class="cls-8" d="M858.48,303.34h-3V141.58a105.5,105.5,0,0,0-211,0V303.34h-3V141.58a108.5,108.5,0,0,1,217,0Z" transform="translate(104.69 129.49)"/><path class="cls-3" d="M1068.37,164.07h0a107,107,0,0,1,107,107V432.84a0,0,0,0,1,0,0h-214a0,0,0,0,1,0,0V271.07a107,107,0,0,1,107-107Z"/><path class="cls-4" d="M1068.37,185.6h0a83.82,83.82,0,0,1,83.82,83.82v163a0,0,0,0,1,0,0H984.55a0,0,0,0,1,0,0v-163A83.82,83.82,0,0,1,1068.37,185.6Z"/><path class="cls-5" d="M1068.37,208.55h0a60.77,60.77,0,0,1,60.77,60.77V432.4a0,0,0,0,1,0,0H1007.6a0,0,0,0,1,0,0V269.32A60.77,60.77,0,0,1,1068.37,208.55Z"/><path class="cls-6" d="M1068.37,216.72h0a55,55,0,0,1,55,55V432.4a0,0,0,0,1,0,0h-110a0,0,0,0,1,0,0V271.71A55,55,0,0,1,1068.37,216.72Z"/><path class="cls-7" d="M1068.37,250.43h0a19.92,19.92,0,0,1,19.92,19.92V432.4a0,0,0,0,1,0,0h-39.84a0,0,0,0,1,0,0V270.35a19.92,19.92,0,0,1,19.92-19.92Z"/><path class="cls-8" d="M1072.18,303.34h-3V141.58a105.5,105.5,0,0,0-211,0V303.34h-3V141.58a108.5,108.5,0,0,1,217,0Z" transform="translate(104.69 129.49)"/><path class="cls-3" d="M1282.07,164.07h0a107,107,0,0,1,107,107V432.84a0,0,0,0,1,0,0h-214a0,0,0,0,1,0,0V271.07A107,107,0,0,1,1282.07,164.07Z"/><path class="cls-4" d="M1282.07,185.6h0a83.82,83.82,0,0,1,83.82,83.82v163a0,0,0,0,1,0,0H1198.25a0,0,0,0,1,0,0v-163A83.82,83.82,0,0,1,1282.07,185.6Z"/><path class="cls-5" d="M1282.07,208.55h0a60.77,60.77,0,0,1,60.77,60.77V432.4a0,0,0,0,1,0,0H1221.3a0,0,0,0,1,0,0V269.32a60.77,60.77,0,0,1,60.77-60.77Z"/><path class="cls-6" d="M1282.07,216.72h0a55,55,0,0,1,55,55V432.4a0,0,0,0,1,0,0h-110a0,0,0,0,1,0,0V271.71A55,55,0,0,1,1282.07,216.72Z"/><path class="cls-7" d="M1282.07,250.43h0A19.92,19.92,0,0,1,1302,270.35V432.4a0,0,0,0,1,0,0h-39.84a0,0,0,0,1,0,0V270.35a19.92,19.92,0,0,1,19.92-19.92Z"/><path class="cls-8" d="M1285.88,303.34h-3V141.58a105.5,105.5,0,1,0-211,0V303.34h-3V141.58a108.5,108.5,0,1,1,217,0Z" transform="translate(104.69 129.49)"/><path class="cls-3" d="M213.18,164.07h0a107,107,0,0,1,107,107V432.84a0,0,0,0,1,0,0h-214a0,0,0,0,1,0,0V271.07A107,107,0,0,1,213.18,164.07Z"/><path class="cls-4" d="M213.18,185.6h0A83.82,83.82,0,0,1,297,269.42v163a0,0,0,0,1,0,0H129.36a0,0,0,0,1,0,0v-163A83.82,83.82,0,0,1,213.18,185.6Z"/><path class="cls-5" d="M213.18,208.55h0A60.77,60.77,0,0,1,274,269.32V432.4a0,0,0,0,1,0,0H152.41a0,0,0,0,1,0,0V269.32a60.77,60.77,0,0,1,60.77-60.77Z"/><path class="cls-6" d="M213.18,216.72h0a55,55,0,0,1,55,55V432.4a0,0,0,0,1,0,0h-110a0,0,0,0,1,0,0V271.71a55,55,0,0,1,55-55Z"/><path class="cls-7" d="M213.18,250.43h0a19.92,19.92,0,0,1,19.92,19.92V432.4a0,0,0,0,1,0,0H193.27a0,0,0,0,1,0,0V270.35a19.92,19.92,0,0,1,19.92-19.92Z"/><path class="cls-8" d="M217,303.34h-3V141.58a105.5,105.5,0,0,0-211,0V303.34H0V141.58a108.5,108.5,0,0,1,217,0Z" transform="translate(104.69 129.49)"/><path class="cls-3" d="M426.89,164.07h0a107,107,0,0,1,107,107V432.84a0,0,0,0,1,0,0h-214a0,0,0,0,1,0,0V271.07A107,107,0,0,1,426.89,164.07Z"/><path class="cls-4" d="M426.89,185.6h0a83.82,83.82,0,0,1,83.82,83.82v163a0,0,0,0,1,0,0H343.07a0,0,0,0,1,0,0v-163A83.82,83.82,0,0,1,426.89,185.6Z"/><path class="cls-5" d="M426.89,208.55h0a60.77,60.77,0,0,1,60.77,60.77V432.4a0,0,0,0,1,0,0H366.12a0,0,0,0,1,0,0V269.32A60.77,60.77,0,0,1,426.89,208.55Z"/><path class="cls-6" d="M426.89,216.72h0a55,55,0,0,1,55,55V432.4a0,0,0,0,1,0,0h-110a0,0,0,0,1,0,0V271.71A55,55,0,0,1,426.89,216.72Z"/><path class="cls-7" d="M426.89,250.43h0a19.92,19.92,0,0,1,19.92,19.92V432.4a0,0,0,0,1,0,0H407a0,0,0,0,1,0,0V270.35a19.92,19.92,0,0,1,19.92-19.92Z"/><path class="cls-8" d="M430.7,303.34h-3V141.58a105.5,105.5,0,0,0-211,0V303.34h-3V141.58a108.5,108.5,0,0,1,217,0Z" transform="translate(104.69 129.49)"/><path class="cls-3" d="M640.59,164.07h0a107,107,0,0,1,107,107V432.84a0,0,0,0,1,0,0h-214a0,0,0,0,1,0,0V271.07A107,107,0,0,1,640.59,164.07Z"/><path class="cls-4" d="M640.59,185.6h0a83.82,83.82,0,0,1,83.82,83.82v163a0,0,0,0,1,0,0H556.77a0,0,0,0,1,0,0v-163A83.82,83.82,0,0,1,640.59,185.6Z"/><path class="cls-5" d="M640.59,208.55h0a60.77,60.77,0,0,1,60.77,60.77V432.4a0,0,0,0,1,0,0H579.82a0,0,0,0,1,0,0V269.32a60.77,60.77,0,0,1,60.77-60.77Z"/><path class="cls-6" d="M640.59,216.72h0a55,55,0,0,1,55,55V432.4a0,0,0,0,1,0,0h-110a0,0,0,0,1,0,0V271.71a55,55,0,0,1,55-55Z"/><path class="cls-7" d="M640.59,250.43h0a19.92,19.92,0,0,1,19.92,19.92V432.4a0,0,0,0,1,0,0H620.67a0,0,0,0,1,0,0V270.35A19.92,19.92,0,0,1,640.59,250.43Z"/><path class="cls-8" d="M644.4,303.34h-3V141.58a105.5,105.5,0,1,0-211,0V303.34h-3V141.58a108.5,108.5,0,1,1,217,0Z" transform="translate(104.69 129.49)"/><path class="cls-3" d="M750,324.47h0a107,107,0,0,1,107,107V593.24a0,0,0,0,1,0,0H643a0,0,0,0,1,0,0V431.47a107,107,0,0,1,107-107Z"/><path class="cls-4" d="M750,346h0a83.82,83.82,0,0,1,83.82,83.82v163a0,0,0,0,1,0,0H666.16a0,0,0,0,1,0,0v-163A83.82,83.82,0,0,1,750,346Z"/><path class="cls-5" d="M750,369h0a60.77,60.77,0,0,1,60.77,60.77V592.8a0,0,0,0,1,0,0H689.21a0,0,0,0,1,0,0V429.72A60.77,60.77,0,0,1,750,369Z"/><path class="cls-6" d="M750,377.12h0a55,55,0,0,1,55,55V592.8a0,0,0,0,1,0,0H695a0,0,0,0,1,0,0V432.11a55,55,0,0,1,55-55Z"/><path class="cls-7" d="M750,410.83h0a19.92,19.92,0,0,1,19.92,19.92V592.8a0,0,0,0,1,0,0H730.06a0,0,0,0,1,0,0V430.75A19.92,19.92,0,0,1,750,410.83Z"/><path class="cls-8" d="M753.79,463.74h-3V302a105.5,105.5,0,0,0-211,0V463.74h-3V302a108.5,108.5,0,0,1,217,0Z" transform="translate(104.69 129.49)"/><path class="cls-3" d="M963.68,324.47h0a107,107,0,0,1,107,107V593.24a0,0,0,0,1,0,0h-214a0,0,0,0,1,0,0V431.47A107,107,0,0,1,963.68,324.47Z"/><path class="cls-4" d="M963.68,346h0a83.82,83.82,0,0,1,83.82,83.82v163a0,0,0,0,1,0,0H879.86a0,0,0,0,1,0,0v-163A83.82,83.82,0,0,1,963.68,346Z"/><path class="cls-5" d="M963.68,369h0a60.77,60.77,0,0,1,60.77,60.77V592.8a0,0,0,0,1,0,0H902.91a0,0,0,0,1,0,0V429.72A60.77,60.77,0,0,1,963.68,369Z"/><path class="cls-6" d="M963.68,377.12h0a55,55,0,0,1,55,55V592.8a0,0,0,0,1,0,0h-110a0,0,0,0,1,0,0V432.11A55,55,0,0,1,963.68,377.12Z"/><path class="cls-7" d="M963.68,410.83h0a19.92,19.92,0,0,1,19.92,19.92V592.8a0,0,0,0,1,0,0H943.76a0,0,0,0,1,0,0V430.75A19.92,19.92,0,0,1,963.68,410.83Z"/><path class="cls-8" d="M967.49,463.74h-3V302a105.5,105.5,0,1,0-211,0V463.74h-3V302a108.5,108.5,0,1,1,217,0Z" transform="translate(104.69 129.49)"/><path class="cls-3" d="M1177.38,324.47h0a107,107,0,0,1,107,107V593.24a0,0,0,0,1,0,0h-214a0,0,0,0,1,0,0V431.47A107,107,0,0,1,1177.38,324.47Z"/><path class="cls-4" d="M1177.38,346h0a83.82,83.82,0,0,1,83.82,83.82v163a0,0,0,0,1,0,0H1093.56a0,0,0,0,1,0,0v-163A83.82,83.82,0,0,1,1177.38,346Z"/><path class="cls-5" d="M1177.38,369h0a60.77,60.77,0,0,1,60.77,60.77V592.8a0,0,0,0,1,0,0H1116.61a0,0,0,0,1,0,0V429.72A60.77,60.77,0,0,1,1177.38,369Z"/><path class="cls-6" d="M1177.38,377.12h0a55,55,0,0,1,55,55V592.8a0,0,0,0,1,0,0h-110a0,0,0,0,1,0,0V432.11A55,55,0,0,1,1177.38,377.12Z"/><path class="cls-7" d="M1177.38,410.83h0a19.92,19.92,0,0,1,19.92,19.92V592.8a0,0,0,0,1,0,0h-39.84a0,0,0,0,1,0,0V430.75a19.92,19.92,0,0,1,19.92-19.92Z"/><path class="cls-8" d="M1181.19,463.74h-3V302a105.5,105.5,0,1,0-211,0V463.74h-3V302a108.5,108.5,0,1,1,217,0Z" transform="translate(104.69 129.49)"/><path class="cls-3" d="M108.5,324.47h0a107,107,0,0,1,107,107V593.24a0,0,0,0,1,0,0H1.5a0,0,0,0,1,0,0V431.47A107,107,0,0,1,108.5,324.47Z"/><path class="cls-4" d="M108.5,346h0a83.82,83.82,0,0,1,83.82,83.82v163a0,0,0,0,1,0,0H24.68a0,0,0,0,1,0,0v-163A83.82,83.82,0,0,1,108.5,346Z"/><path class="cls-5" d="M108.5,369h0a60.77,60.77,0,0,1,60.77,60.77V592.8a0,0,0,0,1,0,0H47.73a0,0,0,0,1,0,0V429.72A60.77,60.77,0,0,1,108.5,369Z"/><path class="cls-6" d="M108.5,377.12h0a55,55,0,0,1,55,55V592.8a0,0,0,0,1,0,0h-110a0,0,0,0,1,0,0V432.11A55,55,0,0,1,108.5,377.12Z"/><path class="cls-7" d="M108.5,410.83h0a19.92,19.92,0,0,1,19.92,19.92V592.8a0,0,0,0,1,0,0H88.58a0,0,0,0,1,0,0V430.75A19.92,19.92,0,0,1,108.5,410.83Z"/><path class="cls-8" d="M112.31,463.74h-3V302A105.62,105.62,0,0,0,3.81,196.48,105.62,105.62,0,0,0-101.69,302V463.74h-3V302A108.62,108.62,0,0,1,3.81,193.48,108.62,108.62,0,0,1,112.31,302Z" transform="translate(104.69 129.49)"/><path class="cls-3" d="M322.2,324.47h0a107,107,0,0,1,107,107V593.24a0,0,0,0,1,0,0h-214a0,0,0,0,1,0,0V431.47A107,107,0,0,1,322.2,324.47Z"/><path class="cls-4" d="M322.2,346h0A83.82,83.82,0,0,1,406,429.82v163a0,0,0,0,1,0,0H238.38a0,0,0,0,1,0,0v-163A83.82,83.82,0,0,1,322.2,346Z"/><path class="cls-5" d="M322.2,369h0A60.77,60.77,0,0,1,383,429.72V592.8a0,0,0,0,1,0,0H261.43a0,0,0,0,1,0,0V429.72A60.77,60.77,0,0,1,322.2,369Z"/><path class="cls-6" d="M322.2,377.12h0a55,55,0,0,1,55,55V592.8a0,0,0,0,1,0,0h-110a0,0,0,0,1,0,0V432.11a55,55,0,0,1,55-55Z"/><path class="cls-7" d="M322.2,410.83h0a19.92,19.92,0,0,1,19.92,19.92V592.8a0,0,0,0,1,0,0H302.28a0,0,0,0,1,0,0V430.75a19.92,19.92,0,0,1,19.92-19.92Z"/><path class="cls-8" d="M326,463.74h-3V302a105.5,105.5,0,0,0-211,0V463.74h-3V302a108.5,108.5,0,0,1,217,0Z" transform="translate(104.69 129.49)"/><path class="cls-3" d="M535.9,324.47h0a107,107,0,0,1,107,107V593.24a0,0,0,0,1,0,0h-214a0,0,0,0,1,0,0V431.47A107,107,0,0,1,535.9,324.47Z"/><path class="cls-4" d="M535.9,346h0a83.82,83.82,0,0,1,83.82,83.82v163a0,0,0,0,1,0,0H452.08a0,0,0,0,1,0,0v-163A83.82,83.82,0,0,1,535.9,346Z"/><path class="cls-5" d="M535.9,369h0a60.77,60.77,0,0,1,60.77,60.77V592.8a0,0,0,0,1,0,0H475.13a0,0,0,0,1,0,0V429.72A60.77,60.77,0,0,1,535.9,369Z"/><path class="cls-6" d="M535.9,377.12h0a55,55,0,0,1,55,55V592.8a0,0,0,0,1,0,0h-110a0,0,0,0,1,0,0V432.11A55,55,0,0,1,535.9,377.12Z"/><path class="cls-7" d="M535.9,410.83h0a19.92,19.92,0,0,1,19.92,19.92V592.8a0,0,0,0,1,0,0H516a0,0,0,0,1,0,0V430.75a19.92,19.92,0,0,1,19.92-19.92Z"/><path class="cls-8" d="M539.71,463.74h-3V302a105.5,105.5,0,1,0-211,0V463.74h-3V302a108.5,108.5,0,1,1,217,0Z" transform="translate(104.69 129.49)"/><path class="cls-3" d="M854.67,487h0a107,107,0,0,1,107,107V755.81a0,0,0,0,1,0,0h-214a0,0,0,0,1,0,0V594A107,107,0,0,1,854.67,487Z"/><path class="cls-4" d="M854.67,508.57h0a83.82,83.82,0,0,1,83.82,83.82v163a0,0,0,0,1,0,0H770.85a0,0,0,0,1,0,0v-163A83.82,83.82,0,0,1,854.67,508.57Z"/><path class="cls-5" d="M854.67,531.53h0a60.77,60.77,0,0,1,60.77,60.77V755.37a0,0,0,0,1,0,0H793.9a0,0,0,0,1,0,0V592.3A60.77,60.77,0,0,1,854.67,531.53Z"/><path class="cls-6" d="M854.67,539.7h0a55,55,0,0,1,55,55V755.37a0,0,0,0,1,0,0h-110a0,0,0,0,1,0,0V594.68A55,55,0,0,1,854.67,539.7Z"/><path class="cls-7" d="M854.67,573.4h0a19.92,19.92,0,0,1,19.92,19.92V755.37a0,0,0,0,1,0,0H834.75a0,0,0,0,1,0,0V593.32a19.92,19.92,0,0,1,19.92-19.92Z"/><path class="cls-8" d="M858.48,626.31h-3V464.55a105.5,105.5,0,1,0-211,0V626.31h-3V464.55a108.5,108.5,0,1,1,217,0Z" transform="translate(104.69 129.49)"/><path class="cls-3" d="M1068.37,487h0a107,107,0,0,1,107,107V755.81a0,0,0,0,1,0,0h-214a0,0,0,0,1,0,0V594a107,107,0,0,1,107-107Z"/><path class="cls-4" d="M1068.37,508.57h0a83.82,83.82,0,0,1,83.82,83.82v163a0,0,0,0,1,0,0H984.55a0,0,0,0,1,0,0v-163a83.82,83.82,0,0,1,83.82-83.82Z"/><path class="cls-5" d="M1068.37,531.53h0a60.77,60.77,0,0,1,60.77,60.77V755.37a0,0,0,0,1,0,0H1007.6a0,0,0,0,1,0,0V592.3a60.77,60.77,0,0,1,60.77-60.77Z"/><path class="cls-6" d="M1068.37,539.7h0a55,55,0,0,1,55,55V755.37a0,0,0,0,1,0,0h-110a0,0,0,0,1,0,0V594.68A55,55,0,0,1,1068.37,539.7Z"/><path class="cls-7" d="M1068.37,573.4h0a19.92,19.92,0,0,1,19.92,19.92V755.37a0,0,0,0,1,0,0h-39.84a0,0,0,0,1,0,0V593.32a19.92,19.92,0,0,1,19.92-19.92Z"/><path class="cls-8" d="M1072.18,626.31h-3V464.55a105.5,105.5,0,0,0-211,0V626.31h-3V464.55a108.5,108.5,0,0,1,217,0Z" transform="translate(104.69 129.49)"/><path class="cls-3" d="M1282.07,487h0a107,107,0,0,1,107,107V755.81a0,0,0,0,1,0,0h-214a0,0,0,0,1,0,0V594a107,107,0,0,1,107-107Z"/><path class="cls-4" d="M1282.07,508.57h0a83.82,83.82,0,0,1,83.82,83.82v163a0,0,0,0,1,0,0H1198.25a0,0,0,0,1,0,0v-163A83.82,83.82,0,0,1,1282.07,508.57Z"/><path class="cls-5" d="M1282.07,531.53h0a60.77,60.77,0,0,1,60.77,60.77V755.37a0,0,0,0,1,0,0H1221.3a0,0,0,0,1,0,0V592.3A60.77,60.77,0,0,1,1282.07,531.53Z"/><path class="cls-6" d="M1282.07,539.7h0a55,55,0,0,1,55,55V755.37a0,0,0,0,1,0,0h-110a0,0,0,0,1,0,0V594.68A55,55,0,0,1,1282.07,539.7Z"/><path class="cls-7" d="M1282.07,573.4h0A19.92,19.92,0,0,1,1302,593.32V755.37a0,0,0,0,1,0,0h-39.84a0,0,0,0,1,0,0V593.32A19.92,19.92,0,0,1,1282.07,573.4Z"/><path class="cls-8" d="M1285.88,626.31h-3V464.55a105.5,105.5,0,1,0-211,0V626.31h-3V464.55a108.5,108.5,0,1,1,217,0Z" transform="translate(104.69 129.49)"/><path class="cls-3" d="M213.18,487h0a107,107,0,0,1,107,107V755.81a0,0,0,0,1,0,0h-214a0,0,0,0,1,0,0V594A107,107,0,0,1,213.18,487Z"/><path class="cls-4" d="M213.18,508.57h0A83.82,83.82,0,0,1,297,592.39v163a0,0,0,0,1,0,0H129.36a0,0,0,0,1,0,0v-163a83.82,83.82,0,0,1,83.82-83.82Z"/><path class="cls-5" d="M213.18,531.53h0A60.77,60.77,0,0,1,274,592.3V755.37a0,0,0,0,1,0,0H152.41a0,0,0,0,1,0,0V592.3A60.77,60.77,0,0,1,213.18,531.53Z"/><path class="cls-6" d="M213.18,539.7h0a55,55,0,0,1,55,55V755.37a0,0,0,0,1,0,0h-110a0,0,0,0,1,0,0V594.68A55,55,0,0,1,213.18,539.7Z"/><path class="cls-7" d="M213.18,573.4h0a19.92,19.92,0,0,1,19.92,19.92V755.37a0,0,0,0,1,0,0H193.27a0,0,0,0,1,0,0V593.32a19.92,19.92,0,0,1,19.92-19.92Z"/><path class="cls-8" d="M217,626.31h-3V464.55a105.5,105.5,0,1,0-211,0V626.31H0V464.55a108.5,108.5,0,1,1,217,0Z" transform="translate(104.69 129.49)"/><path class="cls-3" d="M426.89,487h0a107,107,0,0,1,107,107V755.81a0,0,0,0,1,0,0h-214a0,0,0,0,1,0,0V594A107,107,0,0,1,426.89,487Z"/><path class="cls-4" d="M426.89,508.57h0a83.82,83.82,0,0,1,83.82,83.82v163a0,0,0,0,1,0,0H343.07a0,0,0,0,1,0,0v-163A83.82,83.82,0,0,1,426.89,508.57Z"/><path class="cls-5" d="M426.89,531.53h0a60.77,60.77,0,0,1,60.77,60.77V755.37a0,0,0,0,1,0,0H366.12a0,0,0,0,1,0,0V592.3A60.77,60.77,0,0,1,426.89,531.53Z"/><path class="cls-6" d="M426.89,539.7h0a55,55,0,0,1,55,55V755.37a0,0,0,0,1,0,0h-110a0,0,0,0,1,0,0V594.68A55,55,0,0,1,426.89,539.7Z"/><path class="cls-7" d="M426.89,573.4h0a19.92,19.92,0,0,1,19.92,19.92V755.37a0,0,0,0,1,0,0H407a0,0,0,0,1,0,0V593.32A19.92,19.92,0,0,1,426.89,573.4Z"/><path class="cls-8" d="M430.7,626.31h-3V464.55a105.5,105.5,0,0,0-211,0V626.31h-3V464.55a108.5,108.5,0,0,1,217,0Z" transform="translate(104.69 129.49)"/><path class="cls-3" d="M640.59,487h0a107,107,0,0,1,107,107V755.81a0,0,0,0,1,0,0h-214a0,0,0,0,1,0,0V594A107,107,0,0,1,640.59,487Z"/><path class="cls-4" d="M640.59,508.57h0a83.82,83.82,0,0,1,83.82,83.82v163a0,0,0,0,1,0,0H556.77a0,0,0,0,1,0,0v-163a83.82,83.82,0,0,1,83.82-83.82Z"/><path class="cls-5" d="M640.59,531.53h0a60.77,60.77,0,0,1,60.77,60.77V755.37a0,0,0,0,1,0,0H579.82a0,0,0,0,1,0,0V592.3A60.77,60.77,0,0,1,640.59,531.53Z"/><path class="cls-6" d="M640.59,539.7h0a55,55,0,0,1,55,55V755.37a0,0,0,0,1,0,0h-110a0,0,0,0,1,0,0V594.68A55,55,0,0,1,640.59,539.7Z"/><path class="cls-7" d="M640.59,573.4h0a19.92,19.92,0,0,1,19.92,19.92V755.37a0,0,0,0,1,0,0H620.67a0,0,0,0,1,0,0V593.32a19.92,19.92,0,0,1,19.92-19.92Z"/><path class="cls-8" d="M644.4,626.31h-3V464.55a105.5,105.5,0,0,0-211,0V626.31h-3V464.55a108.5,108.5,0,0,1,217,0Z" transform="translate(104.69 129.49)"/><path class="cls-3" d="M750,646.25h0a107,107,0,0,1,107,107V915a0,0,0,0,1,0,0H643a0,0,0,0,1,0,0V753.25A107,107,0,0,1,750,646.25Z"/><path class="cls-4" d="M750,667.78h0A83.82,83.82,0,0,1,833.8,751.6v163a0,0,0,0,1,0,0H666.16a0,0,0,0,1,0,0v-163A83.82,83.82,0,0,1,750,667.78Z"/><path class="cls-5" d="M750,690.73h0a60.77,60.77,0,0,1,60.77,60.77V914.58a0,0,0,0,1,0,0H689.21a0,0,0,0,1,0,0V751.5A60.77,60.77,0,0,1,750,690.73Z"/><path class="cls-6" d="M750,698.9h0a55,55,0,0,1,55,55V914.58a0,0,0,0,1,0,0H695a0,0,0,0,1,0,0V753.89a55,55,0,0,1,55-55Z"/><path class="cls-7" d="M750,732.6h0a19.92,19.92,0,0,1,19.92,19.92V914.58a0,0,0,0,1,0,0H730.06a0,0,0,0,1,0,0V752.52A19.92,19.92,0,0,1,750,732.6Z"/><path class="cls-8" d="M753.79,785.52h-3V623.75a105.5,105.5,0,0,0-211,0V785.52h-3V623.75a108.5,108.5,0,0,1,217,0Z" transform="translate(104.69 129.49)"/><path class="cls-3" d="M963.68,646.25h0a107,107,0,0,1,107,107V915a0,0,0,0,1,0,0h-214a0,0,0,0,1,0,0V753.25A107,107,0,0,1,963.68,646.25Z"/><path class="cls-4" d="M963.68,667.78h0a83.82,83.82,0,0,1,83.82,83.82v163a0,0,0,0,1,0,0H879.86a0,0,0,0,1,0,0v-163A83.82,83.82,0,0,1,963.68,667.78Z"/><path class="cls-5" d="M963.68,690.73h0a60.77,60.77,0,0,1,60.77,60.77V914.58a0,0,0,0,1,0,0H902.91a0,0,0,0,1,0,0V751.5A60.77,60.77,0,0,1,963.68,690.73Z"/><path class="cls-6" d="M963.68,698.9h0a55,55,0,0,1,55,55V914.58a0,0,0,0,1,0,0h-110a0,0,0,0,1,0,0V753.89A55,55,0,0,1,963.68,698.9Z"/><path class="cls-7" d="M963.68,732.6h0a19.92,19.92,0,0,1,19.92,19.92V914.58a0,0,0,0,1,0,0H943.76a0,0,0,0,1,0,0V752.52A19.92,19.92,0,0,1,963.68,732.6Z"/><path class="cls-8" d="M967.49,785.52h-3V623.75a105.5,105.5,0,0,0-211,0V785.52h-3V623.75a108.5,108.5,0,0,1,217,0Z" transform="translate(104.69 129.49)"/><path class="cls-3" d="M1177.38,646.25h0a107,107,0,0,1,107,107V915a0,0,0,0,1,0,0h-214a0,0,0,0,1,0,0V753.25a107,107,0,0,1,107-107Z"/><path class="cls-4" d="M1177.38,667.78h0a83.82,83.82,0,0,1,83.82,83.82v163a0,0,0,0,1,0,0H1093.56a0,0,0,0,1,0,0v-163a83.82,83.82,0,0,1,83.82-83.82Z"/><path class="cls-5" d="M1177.38,690.73h0a60.77,60.77,0,0,1,60.77,60.77V914.58a0,0,0,0,1,0,0H1116.61a0,0,0,0,1,0,0V751.5A60.77,60.77,0,0,1,1177.38,690.73Z"/><path class="cls-6" d="M1177.38,698.9h0a55,55,0,0,1,55,55V914.58a0,0,0,0,1,0,0h-110a0,0,0,0,1,0,0V753.89A55,55,0,0,1,1177.38,698.9Z"/><path class="cls-7" d="M1177.38,732.6h0a19.92,19.92,0,0,1,19.92,19.92V914.58a0,0,0,0,1,0,0h-39.84a0,0,0,0,1,0,0V752.52A19.92,19.92,0,0,1,1177.38,732.6Z"/><path class="cls-8" d="M1181.19,785.52h-3V623.75a105.5,105.5,0,0,0-211,0V785.52h-3V623.75a108.5,108.5,0,0,1,217,0Z" transform="translate(104.69 129.49)"/><path class="cls-3" d="M108.5,646.25h0a107,107,0,0,1,107,107V915a0,0,0,0,1,0,0H1.5a0,0,0,0,1,0,0V753.25a107,107,0,0,1,107-107Z"/><path class="cls-4" d="M108.5,667.78h0a83.82,83.82,0,0,1,83.82,83.82v163a0,0,0,0,1,0,0H24.68a0,0,0,0,1,0,0v-163A83.82,83.82,0,0,1,108.5,667.78Z"/><path class="cls-5" d="M108.5,690.73h0a60.77,60.77,0,0,1,60.77,60.77V914.58a0,0,0,0,1,0,0H47.73a0,0,0,0,1,0,0V751.5A60.77,60.77,0,0,1,108.5,690.73Z"/><path class="cls-6" d="M108.5,698.9h0a55,55,0,0,1,55,55V914.58a0,0,0,0,1,0,0h-110a0,0,0,0,1,0,0V753.89A55,55,0,0,1,108.5,698.9Z"/><path class="cls-7" d="M108.5,732.6h0a19.92,19.92,0,0,1,19.92,19.92V914.58a0,0,0,0,1,0,0H88.58a0,0,0,0,1,0,0V752.52A19.92,19.92,0,0,1,108.5,732.6Z"/><path class="cls-8" d="M112.31,785.52h-3V623.75A105.61,105.61,0,0,0,3.81,518.26a105.61,105.61,0,0,0-105.5,105.49V785.52h-3V623.75A108.62,108.62,0,0,1,3.81,515.26a108.62,108.62,0,0,1,108.5,108.49Z" transform="translate(104.69 129.49)"/><path class="cls-3" d="M322.2,646.25h0a107,107,0,0,1,107,107V915a0,0,0,0,1,0,0h-214a0,0,0,0,1,0,0V753.25a107,107,0,0,1,107-107Z"/><path class="cls-4" d="M322.2,667.78h0A83.82,83.82,0,0,1,406,751.6v163a0,0,0,0,1,0,0H238.38a0,0,0,0,1,0,0v-163A83.82,83.82,0,0,1,322.2,667.78Z"/><path class="cls-5" d="M322.2,690.73h0A60.77,60.77,0,0,1,383,751.5V914.58a0,0,0,0,1,0,0H261.43a0,0,0,0,1,0,0V751.5A60.77,60.77,0,0,1,322.2,690.73Z"/><path class="cls-6" d="M322.2,698.9h0a55,55,0,0,1,55,55V914.58a0,0,0,0,1,0,0h-110a0,0,0,0,1,0,0V753.89a55,55,0,0,1,55-55Z"/><path class="cls-7" d="M322.2,732.6h0a19.92,19.92,0,0,1,19.92,19.92V914.58a0,0,0,0,1,0,0H302.28a0,0,0,0,1,0,0V752.52A19.92,19.92,0,0,1,322.2,732.6Z"/><path class="cls-8" d="M326,785.52h-3V623.75a105.5,105.5,0,0,0-211,0V785.52h-3V623.75a108.5,108.5,0,0,1,217,0Z" transform="translate(104.69 129.49)"/><path class="cls-3" d="M535.9,646.25h0a107,107,0,0,1,107,107V915a0,0,0,0,1,0,0h-214a0,0,0,0,1,0,0V753.25A107,107,0,0,1,535.9,646.25Z"/><path class="cls-4" d="M535.9,667.78h0a83.82,83.82,0,0,1,83.82,83.82v163a0,0,0,0,1,0,0H452.08a0,0,0,0,1,0,0v-163a83.82,83.82,0,0,1,83.82-83.82Z"/><path class="cls-5" d="M535.9,690.73h0a60.77,60.77,0,0,1,60.77,60.77V914.58a0,0,0,0,1,0,0H475.13a0,0,0,0,1,0,0V751.5a60.77,60.77,0,0,1,60.77-60.77Z"/><path class="cls-6" d="M535.9,698.9h0a55,55,0,0,1,55,55V914.58a0,0,0,0,1,0,0h-110a0,0,0,0,1,0,0V753.89a55,55,0,0,1,55-55Z"/><path class="cls-7" d="M535.9,732.6h0a19.92,19.92,0,0,1,19.92,19.92V914.58a0,0,0,0,1,0,0H516a0,0,0,0,1,0,0V752.52A19.92,19.92,0,0,1,535.9,732.6Z"/><path class="cls-8" d="M539.71,785.52h-3V623.75a105.5,105.5,0,0,0-211,0V785.52h-3V623.75a108.5,108.5,0,0,1,217,0Z" transform="translate(104.69 129.49)"/><path class="cls-3" d="M854.67,808.83h0a107,107,0,0,1,107,107v161.76a0,0,0,0,1,0,0h-214a0,0,0,0,1,0,0V915.82A107,107,0,0,1,854.67,808.83Z"/><path class="cls-4" d="M854.67,830.35h0a83.82,83.82,0,0,1,83.82,83.82v163a0,0,0,0,1,0,0H770.85a0,0,0,0,1,0,0v-163a83.82,83.82,0,0,1,83.82-83.82Z"/><path class="cls-5" d="M854.67,853.31h0a60.77,60.77,0,0,1,60.77,60.77v163.08a0,0,0,0,1,0,0H793.9a0,0,0,0,1,0,0V914.08a60.77,60.77,0,0,1,60.77-60.77Z"/><path class="cls-6" d="M854.67,861.48h0a55,55,0,0,1,55,55v160.69a0,0,0,0,1,0,0h-110a0,0,0,0,1,0,0V916.46a55,55,0,0,1,55-55Z"/><path class="cls-7" d="M854.67,895.18h0a19.92,19.92,0,0,1,19.92,19.92v162.05a0,0,0,0,1,0,0H834.75a0,0,0,0,1,0,0V915.1a19.92,19.92,0,0,1,19.92-19.92Z"/><path class="cls-8" d="M858.48,948.09h-3V786.33a105.5,105.5,0,1,0-211,0V948.09h-3V786.33a108.5,108.5,0,1,1,217,0Z" transform="translate(104.69 129.49)"/><path class="cls-3" d="M1068.37,808.83h0a107,107,0,0,1,107,107v161.76a0,0,0,0,1,0,0h-214a0,0,0,0,1,0,0V915.82A107,107,0,0,1,1068.37,808.83Z"/><path class="cls-4" d="M1068.37,830.35h0a83.82,83.82,0,0,1,83.82,83.82v163a0,0,0,0,1,0,0H984.55a0,0,0,0,1,0,0v-163A83.82,83.82,0,0,1,1068.37,830.35Z"/><path class="cls-5" d="M1068.37,853.31h0a60.77,60.77,0,0,1,60.77,60.77v163.08a0,0,0,0,1,0,0H1007.6a0,0,0,0,1,0,0V914.08a60.77,60.77,0,0,1,60.77-60.77Z"/><path class="cls-6" d="M1068.37,861.48h0a55,55,0,0,1,55,55v160.69a0,0,0,0,1,0,0h-110a0,0,0,0,1,0,0V916.46a55,55,0,0,1,55-55Z"/><path class="cls-7" d="M1068.37,895.18h0a19.92,19.92,0,0,1,19.92,19.92v162.05a0,0,0,0,1,0,0h-39.84a0,0,0,0,1,0,0V915.1A19.92,19.92,0,0,1,1068.37,895.18Z"/><path class="cls-8" d="M1072.18,948.09h-3V786.33a105.5,105.5,0,0,0-211,0V948.09h-3V786.33a108.5,108.5,0,0,1,217,0Z" transform="translate(104.69 129.49)"/><path class="cls-3" d="M1282.07,808.83h0a107,107,0,0,1,107,107v161.76a0,0,0,0,1,0,0h-214a0,0,0,0,1,0,0V915.82a107,107,0,0,1,107-107Z"/><path class="cls-4" d="M1282.07,830.35h0a83.82,83.82,0,0,1,83.82,83.82v163a0,0,0,0,1,0,0H1198.25a0,0,0,0,1,0,0v-163A83.82,83.82,0,0,1,1282.07,830.35Z"/><path class="cls-5" d="M1282.07,853.31h0a60.77,60.77,0,0,1,60.77,60.77v163.08a0,0,0,0,1,0,0H1221.3a0,0,0,0,1,0,0V914.08a60.77,60.77,0,0,1,60.77-60.77Z"/><path class="cls-6" d="M1282.07,861.48h0a55,55,0,0,1,55,55v160.69a0,0,0,0,1,0,0h-110a0,0,0,0,1,0,0V916.46a55,55,0,0,1,55-55Z"/><path class="cls-7" d="M1282.07,895.18h0A19.92,19.92,0,0,1,1302,915.1v162.05a0,0,0,0,1,0,0h-39.84a0,0,0,0,1,0,0V915.1a19.92,19.92,0,0,1,19.92-19.92Z"/><path class="cls-8" d="M1285.88,948.09h-3V786.33a105.5,105.5,0,1,0-211,0V948.09h-3V786.33a108.5,108.5,0,1,1,217,0Z" transform="translate(104.69 129.49)"/><path class="cls-3" d="M213.18,808.83h0a107,107,0,0,1,107,107v161.76a0,0,0,0,1,0,0h-214a0,0,0,0,1,0,0V915.82A107,107,0,0,1,213.18,808.83Z"/><path class="cls-4" d="M213.18,830.35h0A83.82,83.82,0,0,1,297,914.17v163a0,0,0,0,1,0,0H129.36a0,0,0,0,1,0,0v-163A83.82,83.82,0,0,1,213.18,830.35Z"/><path class="cls-5" d="M213.18,853.31h0A60.77,60.77,0,0,1,274,914.08v163.08a0,0,0,0,1,0,0H152.41a0,0,0,0,1,0,0V914.08A60.77,60.77,0,0,1,213.18,853.31Z"/><path class="cls-6" d="M213.18,861.48h0a55,55,0,0,1,55,55v160.69a0,0,0,0,1,0,0h-110a0,0,0,0,1,0,0V916.46a55,55,0,0,1,55-55Z"/><path class="cls-7" d="M213.18,895.18h0A19.92,19.92,0,0,1,233.1,915.1v162.05a0,0,0,0,1,0,0H193.27a0,0,0,0,1,0,0V915.1A19.92,19.92,0,0,1,213.18,895.18Z"/><path class="cls-8" d="M217,948.09h-3V786.33a105.5,105.5,0,0,0-211,0V948.09H0V786.33a108.5,108.5,0,0,1,217,0Z" transform="translate(104.69 129.49)"/><path class="cls-3" d="M426.89,808.83h0a107,107,0,0,1,107,107v161.76a0,0,0,0,1,0,0h-214a0,0,0,0,1,0,0V915.82A107,107,0,0,1,426.89,808.83Z"/><path class="cls-4" d="M426.89,830.35h0a83.82,83.82,0,0,1,83.82,83.82v163a0,0,0,0,1,0,0H343.07a0,0,0,0,1,0,0v-163a83.82,83.82,0,0,1,83.82-83.82Z"/><path class="cls-5" d="M426.89,853.31h0a60.77,60.77,0,0,1,60.77,60.77v163.08a0,0,0,0,1,0,0H366.12a0,0,0,0,1,0,0V914.08A60.77,60.77,0,0,1,426.89,853.31Z"/><path class="cls-6" d="M426.89,861.48h0a55,55,0,0,1,55,55v160.69a0,0,0,0,1,0,0h-110a0,0,0,0,1,0,0V916.46A55,55,0,0,1,426.89,861.48Z"/><path class="cls-7" d="M426.89,895.18h0a19.92,19.92,0,0,1,19.92,19.92v162.05a0,0,0,0,1,0,0H407a0,0,0,0,1,0,0V915.1a19.92,19.92,0,0,1,19.92-19.92Z"/><path class="cls-8" d="M430.7,948.09h-3V786.33a105.5,105.5,0,0,0-211,0V948.09h-3V786.33a108.5,108.5,0,0,1,217,0Z" transform="translate(104.69 129.49)"/><path class="cls-3" d="M640.59,808.83h0a107,107,0,0,1,107,107v161.76a0,0,0,0,1,0,0h-214a0,0,0,0,1,0,0V915.82a107,107,0,0,1,107-107Z"/><path class="cls-4" d="M640.59,830.35h0a83.82,83.82,0,0,1,83.82,83.82v163a0,0,0,0,1,0,0H556.77a0,0,0,0,1,0,0v-163a83.82,83.82,0,0,1,83.82-83.82Z"/><path class="cls-5" d="M640.59,853.31h0a60.77,60.77,0,0,1,60.77,60.77v163.08a0,0,0,0,1,0,0H579.82a0,0,0,0,1,0,0V914.08A60.77,60.77,0,0,1,640.59,853.31Z"/><path class="cls-6" d="M640.59,861.48h0a55,55,0,0,1,55,55v160.69a0,0,0,0,1,0,0h-110a0,0,0,0,1,0,0V916.46A55,55,0,0,1,640.59,861.48Z"/><path class="cls-7" d="M640.59,895.18h0a19.92,19.92,0,0,1,19.92,19.92v162.05a0,0,0,0,1,0,0H620.67a0,0,0,0,1,0,0V915.1a19.92,19.92,0,0,1,19.92-19.92Z"/><path class="cls-8" d="M644.4,948.09h-3V786.33a105.5,105.5,0,0,0-211,0V948.09h-3V786.33a108.5,108.5,0,0,1,217,0Z" transform="translate(104.69 129.49)"/></g></g></g></svg>