<svg xmlns="http://www.w3.org/2000/svg" viewBox="0 0 122.17 95.11"><defs><style>.cls-1{fill:#a12a13;}</style></defs><g id="Calque_2" data-name="Calque 2"><g id="Calque_21" data-name="Calque 21"><path id="Icon_awesome-shopping-basket" data-name="Icon awesome-shopping-basket" class="cls-1" d="M122.17,39.12v3.39a5.09,5.09,0,0,1-5.09,5.1h-1.7l-5.54,38.76a10.16,10.16,0,0,1-10.08,8.74H22.41a10.16,10.16,0,0,1-10.08-8.74L6.79,47.6H5.09A5.09,5.09,0,0,1,0,42.51V39.12A5.09,5.09,0,0,1,5.09,34H19.37L42,2.89a6.79,6.79,0,0,1,11.12,7.79,2.43,2.43,0,0,1-.14.2L36.16,34H86L69.17,10.87a6.79,6.79,0,0,1,11-8L102.8,34h14.27a5.09,5.09,0,0,1,5.1,5.09Zm-56,37.33V52.69A5.09,5.09,0,0,0,56,52.5a.6.6,0,0,0,0,.19V76.45a5.09,5.09,0,1,0,10.18.19Zm23.75,0V52.69a5.09,5.09,0,0,0-10.18-.19v24a5.09,5.09,0,1,0,10.18.19Zm-47.51,0V52.69a5.09,5.09,0,0,0-10.18-.19v24a5.09,5.09,0,1,0,10.18.19Z"/></g></g></svg>