<svg xmlns="http://www.w3.org/2000/svg" viewBox="0 0 43.29 43.86"><defs><style>.cls-1{fill:#e6a116;}</style></defs><g id="Calque_2" data-name="Calque 2"><g id="Calque_21" data-name="Calque 21"><path id="Icon_simple-paypal" data-name="Icon simple-paypal" class="cls-1" d="M12.34,43.86H6.67A1.68,1.68,0,0,1,4.9,42.28,1.62,1.62,0,0,1,5,41.7l.27-1.23H9a2.92,2.92,0,0,0,2.71-2.16l1.94-8.39a3,3,0,0,1,2.7-2.16H18q10.38,0,16.15-4.27a13.27,13.27,0,0,0,5.77-11.21,10.67,10.67,0,0,0-1.07-5.1s0-.06,0-.09l.25.14a8.44,8.44,0,0,1,3.13,3.31,10.74,10.74,0,0,1,1.09,5.1A13.31,13.31,0,0,1,37.5,26.86c-3.84,2.82-9.24,4.24-16.15,4.24H19.71A2.92,2.92,0,0,0,17,33.27l-1.95,8.41a2.89,2.89,0,0,1-2.68,2.14ZM7.45,38.93H1.78A1.69,1.69,0,0,1,0,37.34a1.51,1.51,0,0,1,.07-.56l8-34.62A2.92,2.92,0,0,1,10.76,0H22.58a37.17,37.17,0,0,1,6.66.53,13.81,13.81,0,0,1,4.9,1.81,8.32,8.32,0,0,1,3.1,3.32,10.88,10.88,0,0,1,1.07,5.11A13.16,13.16,0,0,1,32.53,22C28.7,24.8,23.3,26.2,16.39,26.2H14.77a2.92,2.92,0,0,0-2.7,2.14l-1.94,8.38a2.91,2.91,0,0,1-2.71,2.15ZM21.06,7.19H19.2a2.93,2.93,0,0,0-2.7,2.16l-1.7,7.34a1.69,1.69,0,0,0,1.14,2.09,1.76,1.76,0,0,0,.56.07h1.4A12,12,0,0,0,25,17a6.21,6.21,0,0,0,2.54-5.32A3.75,3.75,0,0,0,25.93,8.3,8.84,8.84,0,0,0,21,7.2h0Z"/></g></g></svg>