<svg xmlns="http://www.w3.org/2000/svg" viewBox="0 0 467.74 334.98"><defs><style>.cls-1{fill:#e58257;}.cls-2{fill:#dd654e;}.cls-3{fill:#f2bb6b;}.cls-4{fill:#fff3d2;}.cls-5{fill:#fff;}.cls-6{opacity:0.65;}.cls-7{fill:#8e361e;}.cls-8{opacity:0.73;}</style></defs><g id="Calque_6" data-name="Calque 6"><path class="cls-1" d="M456.09,91a14,14,0,0,0-.6-2.14c-.13-.36-.28-.72-.44-1.07a15.42,15.42,0,0,0-1.52-2.6,12.59,12.59,0,0,0-3.09-3.13c.17-.14.33-.29.49-.44l.62-.6.18-.17A34.09,34.09,0,0,0,455.06,77c7.95-10.36-9.91-24-19.83-19.68-1.38-4.17-3.84-8-8.08-9.78a11.12,11.12,0,0,0-3.94-.48c-.51,0-1,0-1.48,0l-.87.07c-.35,0-.7.07-1,.12l-1,.17-.47.1q-.31.06-.63.15-.49.12-1,.27c-.31.1-.6.19-.89.3a.52.52,0,0,0-.13.06c-.26.1-.52.2-.76.31h0l-.75.36c-.25.13-.5.26-.73.41a3.13,3.13,0,0,0-.36.22l-.42.27a1.37,1.37,0,0,0-.21.15c-.15.11-.3.22-.44.34a3.47,3.47,0,0,0-.37.3,2.31,2.31,0,0,0-.24.2,5.11,5.11,0,0,0-.42.39,1.26,1.26,0,0,0-.2.2,2.37,2.37,0,0,0-.27.28c-.14.13-.25.27-.38.41a.76.76,0,0,0-.11.14,2.66,2.66,0,0,0-.26.31,2.43,2.43,0,0,0-.2.25c-3.34,4.41-4.13,10.89-3.36,17.87a4.76,4.76,0,0,1-.11,2.46,9.66,9.66,0,0,1-.83,1.34.31.31,0,0,1-.07.09,26,26,0,0,1-5.09,4.66c-1.37,1-2.8,2-4.27,2.89q.29-.28.54-.57h0c.21-.24.42-.47.63-.72s.36-.44.53-.67c0,0,0,0,.06-.06l.3-.4c2.3-3.13,3.54-6.74,2.8-10.52-.62-3.17-2.64-5.75-4.74-8-2.54-2.78-6.11-5.3-10-5.41l.29-.44,0,0s0,0,0,0h0a17.3,17.3,0,0,0,2.83-9,18.49,18.49,0,0,0-9.48-16.57c-6-3.17-13.18-2.4-19.21-.1-4.83,1.81-7.84,4.12-9.29,7l-.05.09c-1.83,3.75-1.06,8.42,1.75,14.11a11.64,11.64,0,0,1,.84,2.59v.28a13.07,13.07,0,0,1-1.89,1.47c-7.9,4.72-17.8,7.89-26.55,11.25-8.64,3.12-15.92,6-18.76,14a.25.25,0,0,0,0,.09,19.69,19.69,0,0,0-.88,3.52h0c0,.14-.05.28-.07.43-.53,0-1.06.07-1.59.12-2.92.21-5.85.43-8.82.75-11.55,1.27-25.29,6.21-29.57,18.19-.06.14-.1.28-.15.41h-.07c-4-.13-8-.38-11.91-.68-5-.4-10-.59-15.05-.65-11.79-.19-23.57-.39-35.36-.27h0l-2,0c-.71-.13-1.44-.27-2.17-.38h0c-11.5-1.93-23.23-2.75-34.84-1-24.83,4.28-46.91,18.23-65.52,34.8l-1,.86-1.25.54c-23.55,10-48.66,24.06-58.07,45.91-.47,1.05-.89,2.13-1.28,3.23-2.75,7.72-5.67,15.38-8.41,23.34-1.28,4-2.78,8.37-3.75,12.81-1.22,5.55-1.58,11.2.43,16.51,3,7.3,9.25,13,12.52,19.9,1.94,3.66,3.36,7.9,5.69,11.3a57.62,57.62,0,0,0,6.15,7.83c1,.95,1.94,1.92,2.88,2.88a55.19,55.19,0,0,0,4.42,3.57l2.65,1.86c1,.56,3.21,1.9,4.17,2.44,1.3.67,3.71,1.75,5.05,2.4s3.91,1.45,5.22,2c9.06,3.1,18.55,4.29,28,4.73,4,.09,8.09,0,12.2-.07l2.72-.08,1.69,0H119l2.23-.06,2.2-.05c1.28,0,2.57-.06,3.85-.08h.1q3.39-.06,6.8-.09l3.44,0c5.73-.06,11.47-.12,17.2-.35,1.18,0,2.38-.09,3.57-.18.78-.05,1.54-.12,2.31-.2l1-.11,1.23-.15.16,0a60.17,60.17,0,0,0,10.44-2.31,46.76,46.76,0,0,0,5.76-2.25h0a28.76,28.76,0,0,0,8.74,1c.67,0,1.33-.07,2-.15.19,0,.37,0,.55-.06.74-.08,1.47-.21,2.2-.34a32.5,32.5,0,0,0,3.6-.87h0l1.25.15.25,0,2.64.29,2.83.29,2.84.25,1.37.12c3.81.31,7.61.54,11.21.75,3.41.18,6.82.33,10.23.47,1.42.06,2.84.12,4.27.16,1.2.05,2.39.09,3.59.12a1.29,1.29,0,0,0,.28,0c2.46.07,4.92.14,7.38.19a5.56,5.56,0,0,0,.58,0c2.54.06,5.07.1,7.61.12l3.92,0q13.65.07,27.32-.4c10.86-.43,21.79-.77,32.59-2.28,5.49-.82,11.07-1.83,16.17-4.29a94.28,94.28,0,0,0,8.22-5.31h.22l1.13-.05.37,0,1.59-.13c.31,0,.64-.06,1-.1a35.48,35.48,0,0,0,22.87-11.95h0l.3-.06c4.92-1.05,11.3-3,15.5-5.32a71.52,71.52,0,0,0,22-19.77c4.32-6,8.55-12.43,10-19.84,2.13-14.35-9.41-36.71-18.21-48.73h0l-.07-.1v0c-.29-.37-.56-.74-.82-1.09l.07.21c-.19-.46-.39-.92-.62-1.37C391,162.84,377.17,155,365.45,151.42l-.08,0,.21-.33c.34-.56.67-1.13,1-1.72a36.29,36.29,0,0,0,1.65-3.66c.43-1.14.77-2.4,1.16-3.51a27.84,27.84,0,0,1,4.36-6.54c.31-.38.64-.76,1-1.12.63-.69,1.3-1.35,2-2h0c2.13-2.07,4.46-4,6.72-5.78,1.12-.84,2.25-1.68,3.41-2.46a40,40,0,0,0,9.4,2.77c7.59-6.4,14.42-13.39,22.43-18.78a12.26,12.26,0,0,1,4-1.85h0c2.88,1,5.32,2.84,8.45,3.91a17.65,17.65,0,0,0,15.85-1.9,32.48,32.48,0,0,0,3.44-2.55l0,0h0a16.5,16.5,0,0,0,1.34-1.3c.41-.44.81-.9,1.17-1.37a16.67,16.67,0,0,0,2.82-5.36,13.67,13.67,0,0,0,.36-6.81Zm-89.27,6.17a12.88,12.88,0,0,0-.63,2.72c0,.22,0,.45-.06.67a12.81,12.81,0,0,0,.36,3.8c0,.19.09.39.15.58a.83.83,0,0,1,0,.15c.07.21.12.41.2.61a5.71,5.71,0,0,0,.21.58c.17.47.37.93.59,1.39-12.62,1.42-26.4,6.62-37.06,13.11a37.68,37.68,0,0,1,3.49-11,45.3,45.3,0,0,1,2.51-4.51l-.35,2.31.64,0a5.17,5.17,0,0,0,.57,0,3.85,3.85,0,0,0,.49-.08l.29-.07a4.94,4.94,0,0,0,.84-.3l0,0a2.1,2.1,0,0,0,.42-.22c.15-.08.3-.18.44-.27l.07,0,.35-.27a11.44,11.44,0,0,0,1.21-1.11c.11-.13.23-.25.35-.38l.07-.08c.16-.17.31-.35.46-.53s.15-.17.23-.26.29-.35.45-.52l.45-.52c.08-.08.15-.17.23-.26s.31-.33.46-.49.31-.31.47-.45.33-.29.5-.42c2.92-2.67,6.57-4.28,10.36-5.67s8.15-3.13,12-4.33c3.3-1,6.48-1.91,9.76-1.77a17.6,17.6,0,0,1,2,.3,7.79,7.79,0,0,0,1.52,0c-4.48,2.1-9.05,4-13.62,6A11.84,11.84,0,0,0,366.82,97.16Z"/><path class="cls-2" d="M455.49,88.85c-.13-.36-.28-.72-.44-1.07a15.42,15.42,0,0,0-1.52-2.6,12.59,12.59,0,0,0-3.09-3.13c.17-.14.33-.29.49-.44l.62-.6.18-.17A34.09,34.09,0,0,0,455.06,77c7.95-10.36-9.91-24-19.83-19.68-1.38-4.17-3.84-8-8.08-9.78a11.12,11.12,0,0,0-3.94-.48c-.51,0-1,0-1.48,0l-.87.07c-.35,0-.7.07-1,.12l-1,.17-.47.1q-.31.06-.63.15-.49.12-1,.27c-.31.1-.6.19-.89.3a.52.52,0,0,0-.13.06c-.26.1-.52.2-.76.31h0l-.75.36c-.25.13-.5.26-.73.41a3.13,3.13,0,0,0-.36.22l-.42.27a1.37,1.37,0,0,0-.21.15c-.15.11-.3.22-.44.34a3.47,3.47,0,0,0-.37.3,2.31,2.31,0,0,0-.24.2,5.11,5.11,0,0,0-.42.39,1.26,1.26,0,0,0-.2.2,2.37,2.37,0,0,0-.27.28c-.14.13-.25.27-.38.41a.76.76,0,0,0-.11.14c-.16.18-.31.36-.46.56-3.34,4.41-4.13,10.89-3.36,17.87a4.76,4.76,0,0,1-.11,2.46,9.66,9.66,0,0,1-.83,1.34.31.31,0,0,1-.07.09,26,26,0,0,1-5.09,4.66c-1.37,1-2.8,2-4.27,2.89q.29-.28.54-.57h0c.21-.24.42-.47.63-.72s.4-.48.59-.73l.3-.4c2.3-3.13,3.54-6.74,2.8-10.52-.62-3.17-2.64-5.75-4.74-8-2.54-2.78-6.11-5.3-10-5.41l.29-.44,0,0s0,0,0,0h0a17.3,17.3,0,0,0,2.83-9,18.49,18.49,0,0,0-9.48-16.57c-6-3.17-13.18-2.4-19.21-.1-4.83,1.81-7.84,4.12-9.29,7l-.05.09c-1.83,3.75-1.06,8.42,1.75,14.11a11.64,11.64,0,0,1,.84,2.59v.28a13.07,13.07,0,0,1-1.89,1.47c-7.9,4.72-17.8,7.89-26.55,11.25-8.64,3.12-15.92,6-18.76,14a.25.25,0,0,0,0,.09,19.69,19.69,0,0,0-.88,3.52h0c0,.14-.05.28-.07.43-.53,0-1.06.07-1.59.12-2.92.21-5.85.43-8.82.75-11.55,1.27-25.29,6.21-29.57,18.19-.06.14-.1.28-.15.41h-.07c-4-.13-8-.38-11.91-.68-5-.4-10-.59-15.05-.65-11.79-.19-23.57-.39-35.36-.27h0l-2,0c-.71-.13-1.44-.27-2.17-.38h0c-11.5-1.93-23.23-2.75-34.84-1-24.83,4.28-46.91,18.23-65.52,34.8l-1,.86-1.25.54c-23.55,10-48.66,24.06-58.07,45.91a20.64,20.64,0,0,0,10,.11,23.83,23.83,0,0,0,2.8-.89c5.08-2,9.34-5.78,14.2-8.13a21.84,21.84,0,0,1,3.67-1.44h0l.29-.08a17.54,17.54,0,0,1,2.9-.53h0a18.29,18.29,0,0,1,2.09-.11,23,23,0,0,1,3.6.3h0c.82.13,1.63.31,2.44.51a42,42,0,0,1,4.49,1.48h0c.12,0,.24.1.36.15,10.6,4.31,21,12.67,32.44,11.6.32,1.12.66,2.25,1,3.39h0c1.66,6,3,12.11,2.15,18.22a17.62,17.62,0,0,1-.6,2.83s0,0,0,0a20.25,20.25,0,0,1-5.08,8.87v0a15.37,15.37,0,0,1-3.25,2.48h0a12.63,12.63,0,0,1-4.26,1.53c-3.33.57-6.77-.17-10.14-.59h0a17.67,17.67,0,0,0-7.46.32,13.85,13.85,0,0,1,2.11,1.41h0c3.13,2.49,5.11,6.12,6.89,10l.27.62c.33.71.64,1.43,1,2.15l.33.76h0c.35.76.67,1.51,1,2.25,0,.08.07.16.11.25h0c.37.8.74,1.56,1.14,2.32h0c.08.13.15.27.24.4s0,0,0,0a26.89,26.89,0,0,0,2.5,3.92c.11.13.2.26.3.39h0a18.54,18.54,0,0,0,2,2.14c4.38,3.92,10.4,5.14,16.35,4.49h0a30,30,0,0,0,3.49-.6h0A32,32,0,0,0,133,252q1.4-.62,2.73-1.32c.84-.43,1.64-.89,2.45-1.37h0c6-3.59,11.31-8.32,16.95-12.5.74-.55,1.51-1.11,2.3-1.61a17.76,17.76,0,0,1,1.9-1.07h0a10.94,10.94,0,0,1,4.31-1.22,5.47,5.47,0,0,1,.81,0h0a9.72,9.72,0,0,1,3.35.74,0,0,0,0,1,0,0,14.29,14.29,0,0,1,3.16,1.87c.42.33.84.68,1.25,1a38.75,38.75,0,0,1,3,3.1c.28.31.53.61.78.91.74.84,1.44,1.69,2.14,2.51.42.5.87,1,1.34,1.45l.59.56a22,22,0,0,0,3.44,2.64c.2.13.4.24.62.36,3.3,1.85,6.92,2.48,9.87.33.23-.18.45-.36.67-.56a22.34,22.34,0,0,0,3.38-4.92,14.42,14.42,0,0,1,.82-1.27c6.07-8.6,18.57-8,28.88-10.92l.2-.06h0a28.83,28.83,0,0,0,5.65-2.25,18.5,18.5,0,0,0,4.36-3.17,18.19,18.19,0,0,0,2.57-3.25c2.22-3.51,3.37-7.68,4.52-11.9h0c1.3-4.74,2.58-9.52,5.38-13.44a37.37,37.37,0,0,1,4.87-5.28l.71-.69c.59-.55,1.17-1.1,1.75-1.68h0a22.28,22.28,0,0,0,4.93-6.56c.09-.21.18-.42.26-.64h0a36.39,36.39,0,0,0,1.78-9.22h0c.49-4.44,1.11-8.74,4.34-11.6s8.19-3.12,12.63-3.33a148.44,148.44,0,0,0,74.27-24.27c2.43-1.61,5-3.33,7.86-3.63,3.24-.34,6.36,1.17,9.51,2.07l.48.13a25.82,25.82,0,0,0,2.73.54h0c2.13-2.07,4.46-4,6.72-5.78,1.12-.84,2.25-1.68,3.41-2.46a40,40,0,0,0,9.4,2.77c7.59-6.4,14.42-13.39,22.43-18.78a12.26,12.26,0,0,1,4-1.85h0c2.88,1,5.32,2.84,8.45,3.91a17.65,17.65,0,0,0,15.85-1.9,32.48,32.48,0,0,0,3.44-2.55l0,0h0a16.5,16.5,0,0,0,1.34-1.3,16.92,16.92,0,0,0,1.17-1.37,16.67,16.67,0,0,0,2.82-5.36,13.9,13.9,0,0,0,.36-6.81A15.18,15.18,0,0,0,455.49,88.85ZM330.62,120.77a37.68,37.68,0,0,1,3.49-11,45.3,45.3,0,0,1,2.51-4.51l-.35,2.31.64,0a5.17,5.17,0,0,0,.57,0,3.85,3.85,0,0,0,.49-.08l.29-.07a4.94,4.94,0,0,0,.84-.3l0,0a2.1,2.1,0,0,0,.42-.22c.15-.08.3-.18.44-.27l.07,0,.35-.27a11.44,11.44,0,0,0,1.21-1.11c.11-.13.23-.25.35-.38l.07-.08c.16-.17.31-.35.46-.53s.15-.17.23-.26.29-.35.45-.52l.45-.52c.08-.08.15-.17.23-.26s.31-.33.46-.49.31-.31.47-.45.33-.29.5-.42c2.92-2.67,6.57-4.28,10.36-5.67s8.15-3.13,12-4.33c3.3-1,6.48-1.91,9.76-1.77a17.6,17.6,0,0,1,2,.3,7.79,7.79,0,0,0,1.52,0c-4.48,2.1-9.05,4-13.62,6a11.84,11.84,0,0,0-.56,1.36,12.88,12.88,0,0,0-.63,2.72c0,.22,0,.45-.06.67a12.81,12.81,0,0,0,.36,3.8c0,.19.09.39.15.58a.83.83,0,0,1,0,.15c.07.21.12.41.2.61a5.71,5.71,0,0,0,.21.58c.17.47.37.93.59,1.39C355.06,109.08,341.28,114.28,330.62,120.77Z"/><path class="cls-1" d="M195.43,182.63c-7.19,2.75-14.63,5.12-22.32,5.56s-15.7-1.22-21.84-5.86c-1.59-1.2-3.19-3-2.64-5,.61-2.19,3.44-2.73,5.72-2.71,2.55,0,5.09.26,7.64.29,11.29.13,22.33-3.69,32.24-9.1s18.86-12.37,27.93-19.1c2.07-1.54,4.47-3.14,7-2.69a16.83,16.83,0,0,1-1.95,8.81,33.88,33.88,0,0,1-2.72,4.1l-4.18,5.65a25.24,25.24,0,0,1-8.5,8c-2.92,1.92-6.59,3.63-8.75,6.38A16,16,0,0,1,195.43,182.63Z"/><path class="cls-1" d="M298.36,115.61a5.2,5.2,0,0,1-2.11-1.9,3.16,3.16,0,0,1-.2-1.52,6,6,0,0,1,2-4c1.71-1.5,4.09-1.88,6.28-2.48A39.76,39.76,0,0,0,318.46,98c4.22-3.37,8.05-7.2,12.13-10.75a1.25,1.25,0,0,1,.76-.39,1.06,1.06,0,0,1,.62.27c1.74,1.34,2.2,3.76,2.39,5.95.34,3.9.23,7.94-1.29,11.53-1.08,2.53-2.8,4.73-4.07,7.16a22.24,22.24,0,0,0-2.49,11,124.94,124.94,0,0,0-15.5,2.45c-1.32.29-5.37,2.08-6.45,1-.55-.56-.44-2-.63-2.72a13.88,13.88,0,0,0-1.09-2.92A13.35,13.35,0,0,0,298.36,115.61Z"/><path class="cls-3" d="M416,224.86c-1.46,7.41-5.7,13.83-10,19.84a71.79,71.79,0,0,1-22,19.77c-4.27,2.41-10.85,4.35-15.8,5.37-6.53,7.28-15.08,11.92-27.15,12.29a92,92,0,0,1-8.22,5.31c-5.1,2.46-10.69,3.47-16.16,4.28-10.82,1.52-21.73,1.86-32.6,2.3-21.73.75-43.45.4-65.15-.74-7.17-.4-15.19-.95-22.42-1.88a30.8,30.8,0,0,1-17.1.46,48.22,48.22,0,0,1-5.81,2.27,67.35,67.35,0,0,1-18.73,3c-10.38.43-20.82.27-31.15.53-7.09.15-14.73.49-21.84.33-9.45-.44-18.94-1.63-28-4.73-1.32-.51-3.91-1.45-5.22-2s-3.75-1.73-5.06-2.4c-1-.55-3.2-1.88-4.16-2.44l-2.65-1.85A54,54,0,0,1,52.37,281c-.94-.95-1.93-1.92-2.89-2.87a58.15,58.15,0,0,1-6.15-7.82c-2.34-3.41-3.76-7.65-5.69-11.3-3.27-6.86-9.49-12.61-12.52-19.91-2-5.31-1.65-11-.43-16.51,6.49-3.48,13-1.29,17.7,4.49,3.32,4.09,5.38,9.05,8.42,13.34A36,36,0,0,0,82.15,255.3c2.51-.17,5-.61,7.52-.15,5,.92,8.62,5.27,12.58,8.54a34.68,34.68,0,0,0,38.44,3.11c7.19-4.17,13.2-11.12,21.44-12.2,11-1.44,23.83,8,32.33.78-.81,8.42,8.69,14.72,17.14,14.4s16-4.91,23.76-8.35,17-5.65,24.37-1.42c3.56-3.63,1.53-9.69,2.44-14.7,1-5.62,5.93-9.82,11.22-11.94s11.08-2.57,16.68-3.62a80.45,80.45,0,0,0,50-31.82c3.52-4.91,7.38-10.79,13.41-11.25,5.08-.39,9.76,3.42,14.85,3.1,7.19-.44,11.17-8.34,17.06-12.49a20,20,0,0,1,10.94-3.54c.23.45.44.91.63,1.37l-.07-.21C405.75,186.59,418.19,210,416,224.86Z"/><path class="cls-4" d="M454,84.73c5,7.13,3,15.41-3.38,20.93l-.23.17h0l0,0a32.48,32.48,0,0,1-3.44,2.55,17.65,17.65,0,0,1-15.85,1.9c-3.13-1.07-5.57-2.89-8.45-3.91h0a12.26,12.26,0,0,0-4,1.85c-8,5.39-14.84,12.38-22.43,18.78a40.92,40.92,0,0,1-4.73-1.08c-.48-.47-1-1-1.45-1.43l-1.44-1.41h0a3.7,3.7,0,0,0-.28-.28q-9-8.86-18.05-17.71a12,12,0,0,0-3.16-2.47,7.41,7.41,0,0,0-.93-.35,14.73,14.73,0,0,1,0-1.76c0-.22,0-.45.06-.67a12.88,12.88,0,0,1,.63-2.72,11.84,11.84,0,0,1,.56-1.36c4.57-2,9.14-3.9,13.62-6a7.79,7.79,0,0,1-1.52,0,17.6,17.6,0,0,0-2-.3c-3.28-.14-6.46.79-9.76,1.77-3.87,1.2-8.17,2.86-12,4.33s-7.44,3-10.36,5.67c-.17.13-.33.27-.5.42s-.31.29-.47.45-.31.32-.46.49l-.23.26-.45.52c-.16.17-.31.35-.45.52s-.15.18-.23.26-.3.36-.46.53l-.07.08c-.12.13-.24.25-.35.38a11.44,11.44,0,0,1-1.21,1.11l-.35.27-.07,0c-.14.09-.29.19-.44.27a2.1,2.1,0,0,1-.42.22l0,0c-.09-.87-.19-2-.27-3.11-.06-.62-.1-1.24-.15-1.84s-.09-1.24-.13-1.78-.09-.92-.12-1.28-.09-.79-.12-1a49.44,49.44,0,0,0-3.68-10.66c-1-2.15-2.42-5.62-5.08-6.15a1.67,1.67,0,0,0-.39-.06,5.15,5.15,0,0,0-.56,0c-2.71.13-5.88,2.79-8.42,3.57a27.11,27.11,0,0,1-7.89,1.26,25.47,25.47,0,0,1-4.27-.29,18.59,18.59,0,0,1-2.46-.54,13.87,13.87,0,0,1-1.6-.6c-.26-.12-.5-.25-.75-.39l2.41-.17h.08a20.79,20.79,0,0,1,.8-3.51.25.25,0,0,1,0-.09c2.73-8.36,10.14-11.34,19-14.53,8.77-3.37,18.68-6.55,26.6-11.28a13.24,13.24,0,0,0,1.64-1.23l.27-.25a9.42,9.42,0,0,0-.85-2.87c-2.68-5.41-3.51-9.92-2-13.58l.05-.09c1.33-3.14,4.42-5.65,9.56-7.56C366.81,26.78,374,26,380,29.18a18.49,18.49,0,0,1,9.5,16.61,17.43,17.43,0,0,1-3.16,9.48h0c3.87.12,7.44,2.64,10,5.42,2.1,2.26,4.14,4.85,4.76,8,.77,4-.64,7.77-3.17,11l-.3.4s0,.05-.06.06c-.43.52-.88,1-1.36,1.51a.78.78,0,0,0,.18-.11h0q2.1-1.31,4.08-2.78a28.54,28.54,0,0,0,4.72-4.19.31.31,0,0,0,.07-.09,9.1,9.1,0,0,0,1.2-1.82,4.56,4.56,0,0,0,.11-2.46c-.74-6.73,0-13,3-17.39a2.43,2.43,0,0,1,.2-.25c2.68-3.75,7.12-6.08,13.85-6.12a11.17,11.17,0,0,1,3.95.48c4.25,1.76,6.72,5.63,8.1,9.81,9.94-4.3,27.84,9.34,19.87,19.73a34.72,34.72,0,0,1-3.81,4.34l-.18.17-.64.59h0A12.68,12.68,0,0,1,454,84.73Z"/><path class="cls-5" d="M134.43,160.05c10.17-2,20.9,3,33.74,2s26-2.67,31.24-4.44c-9.29,3.15-23.41,6.78-36.08,6.46S142.74,158.84,134.43,160.05Z"/><g class="cls-6"><path class="cls-5" d="M287.09,100.47c6.18-7.72,29.83-8.29,35.76-11.38C318,95.67,292.05,96,287.09,100.47Z"/><path class="cls-5" d="M275.73,149.46c13.06-7.72,23.37-9.61,34.17-9.69s19.71-4.6,22.5-7.15c-5.5,5.83-24.72,12.4-30.55,11.42S284.77,145.27,275.73,149.46Z"/><path class="cls-5" d="M139.67,123.31c6.1-2.67,13.63-11.15,28.12-12.49s32.13,3.72,42.71,2.77c-6.29,5.72-22.31,2.48-27.36,1.14s-18.25,0-28.79,5.43C148.06,123.41,140,123.6,139.67,123.31Z"/><path class="cls-5" d="M58.27,178.11c7.85-13.33,14-19.21,26.47-24.21s21.26-9.9,24.2-13.23c-4.6,8.82-17.83,14.6-26.85,17.93S64.74,171.15,58.27,178.11Z"/><path class="cls-5" d="M52.22,195.32c-7.51,7.41-8.84,16.53-7,27.17C47.28,208.43,48.32,200.07,52.22,195.32Z"/><path class="cls-5" d="M91.79,237.26c3.26-9.6,7.29-13.15,21.21-12.38C100.62,226.41,92,237.64,91.79,237.26Z"/><path class="cls-5" d="M252.21,229.83c-.79-15.66,1.06-23.29,8.82-27.63C257.08,212.46,252.21,229.83,252.21,229.83Z"/></g><path class="cls-2" d="M385.53,160.9a12.69,12.69,0,0,1-6,.87,12,12,0,0,1-2.06-.38c-2.14-.6-4.21-1.77-6.42-1.55-3,.3-5.13,3.09-6,5.94s-.87,5.91-1.56,8.82a10.93,10.93,0,0,1-1.86,3.94c-1.84,2.44-4.67,3.78-7.87,2.08-5.24-2.8-10.32-6.2-15.5-9.16,3.46-4.19,9.06-5.81,13.67-8.69a53.44,53.44,0,0,0,9.73-8.51c1.09-1.14,2.19-2.27,3.31-3.36.6-.59,1.21-1.16,1.83-1.72-.36.64-.73,1.29-1.13,1.92A65.8,65.8,0,0,1,385.53,160.9Z"/><path class="cls-7" d="M201.77,276.46a72.84,72.84,0,0,1-16.63,12.44c-1.67.9-3.34,1.78-5,2.58-.28.14-.54.26-.82.38a47,47,0,0,1-5.81,2.27,67.72,67.72,0,0,1-18.78,3c-10.39.42-20.86.26-31.21.53-7.11.14-14.76.48-21.89.33-9.47-.45-19-1.64-28.06-4.74-1.32-.51-3.91-1.46-5.23-2s-3.76-1.73-5.07-2.41c-1-.55-3.21-1.88-4.17-2.44l-2.66-1.86A55.88,55.88,0,0,1,52,281c-.94-1-1.93-1.93-2.9-2.88a59.15,59.15,0,0,1-6.15-7.84c-2.35-3.41-3.77-7.66-5.71-11.32-3.28-6.88-9.5-12.64-12.54-20-3.63-9.59.46-20.31,3.32-29.4,2.74-8,5.68-15.64,8.44-23.38,8.4-24.15,35.62-39.2,60.73-49.78l2.25-.94c6.5-2.69,12.82-5.07,18.58-7.24-22.34,13-53.89,28.55-67.57,50.76A42.69,42.69,0,0,0,46,189.26c-2.3,8.09-5,16.06-7.6,23.82-1.26,3.89-2.53,7.73-3.46,11.43-1.09,4.74-1.86,8.27-.28,11.88,2.11,4.93,5.53,9.09,8.11,13.87.35.63.67,1.28,1,1.94a24.91,24.91,0,0,1,1.34,3.41A51.47,51.47,0,0,1,46.76,262a30.84,30.84,0,0,0,7.58,15.46c14.23,15.14,36.86,17.27,56.6,16.95,12.47-.29,25,0,37.44.08,8.15,0,16.46-.32,24.19-3s14.26-7.77,20.38-13a65.16,65.16,0,0,0,14.82-18.63,72.56,72.56,0,0,0,7.58-23.17,23.53,23.53,0,0,1,.32,3.14A51.56,51.56,0,0,1,201.77,276.46Z"/><path class="cls-7" d="M226.11,247.71c-.41,6.13-2.26,12.08-4.33,17.83-1.9,5.14-4.06,10.31-7.72,14.47a38.46,38.46,0,0,1-10.19,8.21,38,38,0,0,1-6.73,3l-.72.22a30.88,30.88,0,0,1-17.15.46c-.48-.12-1-.27-1.45-.43.75,0,1.51.06,2.27.05,13.66-.07,27.61-7.61,34.65-19.31A195.3,195.3,0,0,0,226.11,247.71Z"/><path class="cls-7" d="M243.08,114.41c-19.39-5.21-39-9.59-59-10.67a93,93,0,0,0-29.27,3c-20.26,5.69-38.32,16.56-55.41,28.73-1.94,1.38-3.86,2.77-5.77,4.19,1.15-1.1,2.33-2.18,3.52-3.25,18.84-17,41.31-31.38,66.63-35.75,12.38-1.92,24.91-.86,37.13,1.34,1.18.21,2.36.43,3.53.66,4.05.83,8.09,1.77,12.09,2.83A205.23,205.23,0,0,1,243.08,114.41Z"/><path class="cls-7" d="M306,127.41c-.73-1-1.5-1.91-2.3-2.79s-1.81-1.86-2.76-2.73c-9.06-8.16-20.5-12.08-32.59-12.17-5.07-.27-10.12-.42-15.17-.59s-10.1-.54-15.11-1.12c-7.18-.76-14.36-1.6-21.5-2.51q-11.81-1.5-23.6-3.32c2.67-.08,5.32-.13,8-.17,12.5-.16,25,0,37.48.25,5,0,10.06.25,15.08.65,4,.3,8,.56,12,.68q3.4.14,6.76.1h1A35.28,35.28,0,0,1,303,120.18a25.84,25.84,0,0,1,2.08,4.18A17.49,17.49,0,0,1,306,127.41Z"/><path class="cls-7" d="M118.72,214.73c-.18,1.69-.41,3.68-1.55,5.13a5.45,5.45,0,0,1-3.06,1.79,53.12,53.12,0,0,1-8.39.68l-4.07.17c-20.06.71-18.3,16-12.64,30.67C82.1,244.61,77.2,229,88.73,221.8c7.65-4.81,16.73-2.24,25.06-2.14C116.7,219.74,117.67,217,118.72,214.73Z"/><path class="cls-7" d="M230.2,149.22c-.78,7.65-5.93,14.09-11.55,18.91l-.88.71a42.52,42.52,0,0,1-4,2.79,37,37,0,0,1-22.68,5.66,34.65,34.65,0,0,0,14.49-2.22c9.07-3.48,17.17-10.26,21.35-19.06,1.81-3.87,2.71-8.71.71-12.55-5.63,6-13.89,8.63-21.68,10.48a178.49,178.49,0,0,1-24.76,3.63c-11.86.82-23.87-.41-35.62-1.6a133.85,133.85,0,0,0-13.47-.93c-2.73.05-5.54.3-7.42,1.65-5.34,7.47.81,32.63,1.65,42.33a61,61,0,0,1-.32,18.33c-2.55,16.56,9,33.75,24.39,39.81-12.75-2-23.94-12.7-28.63-25.19a38,38,0,0,1-1.41-4.63,32.81,32.81,0,0,1-.77-10.88c.78-5.52.26-10.94-.24-16.76-.75-9.34-1.86-18.67-2.76-28.1-.31-5.15-.78-10,.62-15.25,2.61-9.38,14.37-9.29,22.07-8.74,7.08.51,14.09,1.74,21,2.54a151.06,151.06,0,0,0,27.54,1.11c12.47-.87,29.59-1.25,39.32-9.74l.83-.73.43.86A12.11,12.11,0,0,1,230.2,149.22Z"/><path class="cls-7" d="M218.32,167.39a12.7,12.7,0,0,1-.55,1.45c-1.53,3.5-4.33,6.4-7.19,8.89A35.53,35.53,0,0,1,192.65,186a27.14,27.14,0,0,1-8.05,0,21.16,21.16,0,0,1-10.49-4.78,34.91,34.91,0,0,0,23.75-.64,60.53,60.53,0,0,0,15.92-8.87A39.69,39.69,0,0,0,218.32,167.39Z"/><path class="cls-7" d="M196.12,182.91a15.36,15.36,0,0,1-3.47,3.05c-.53.35-1.08.67-1.64,1-7.55,3.71-16.95,3.65-25.68,1.27a50.66,50.66,0,0,1-7.22-2.56,45.9,45.9,0,0,1-9.94-5.88c10.63,3,24.36,7.15,36.43,6.16A31.66,31.66,0,0,0,196.12,182.91Z"/><path class="cls-7" d="M195.93,272.72c-7.13,10.13-21.17,10.18-32,8.24,11.05-1.08,25.08-2.38,29.28-14.32A39.64,39.64,0,0,0,195,255.58a37.37,37.37,0,0,0-3.56-19.08c-8.35-17.4-31.49-27.21-33.45-47.81a17.51,17.51,0,0,1,.13-3.05,15.66,15.66,0,0,1,.46-2.2l7.11,2.08a8.62,8.62,0,0,0-.35,2.68,14.91,14.91,0,0,0,.52,3.43c2.48,8.61,9.3,15.52,15.25,22,8.79,9.42,15.37,20.65,18.07,33.35C201,255.53,201.4,265.31,195.93,272.72Z"/><path class="cls-7" d="M133.31,258.93c-14.08-1.69-17.77-19.18-13.36-30.55.13-.35.27-.69.43-1a11.73,11.73,0,0,1,2.17-3.59,28.37,28.37,0,0,0-.64,5.06c0,1.05-.1,2.1-.12,3.16C121.61,242.45,123.66,253,133.31,258.93Z"/><path class="cls-7" d="M359.64,125.06a159.76,159.76,0,0,0-24.27.34l-2.31.21A171.37,171.37,0,0,0,266.52,147c-7.1,4.17-14.35,8.51-18.65,15.59-2.08,3.33,0,6.91,1.54,10.55,5.12,10.16,10,20.4,1.09,30.43a46.48,46.48,0,0,0-6.88,9.2c-6.69,12-1.62,23.89,7.6,32.84,9.6,9.54,21.79,15.41,33.57,22-30.85-3.87-69.26-34.08-42.4-65.64l2.84-3.08c4.32-4.36,3.89-10.13,1.45-15.52-2.81-7.16-9.41-15.29-5.44-23.59,10.91-20.64,39.55-30.71,62.43-35.12l1.39-.27q2.51-.47,4.89-.84,6.93-1,14-1.42h0q3.12-.18,6.23-.21h.34c3,0,6.11,0,9.16.23A112.1,112.1,0,0,1,359.64,125.06Z"/><path class="cls-7" d="M345.37,171.43a61,61,0,0,1,16.25,7.11A56.77,56.77,0,0,1,375,190.06c10,11.82,13.28,28,11.42,43.13-1.83-22.63-11.78-41.19-33.53-49.78a129.49,129.49,0,0,0-20-5.86,4.09,4.09,0,0,1-3.57-4.85,4,4,0,0,1,2.61-3,68.68,68.68,0,0,0,17-8.63,58.13,58.13,0,0,0,11.67-10.53l.51-.63c.54-.67,1.06-1.36,1.55-2a27.26,27.26,0,0,0,3.43-6.17c1.39-3.28,4.35-6.65,8-9.72a64.53,64.53,0,0,1,12.1-8c.77-.39,1.53-.76,2.26-1.09a37.08,37.08,0,0,1,3.52-1.42,28.54,28.54,0,0,0-3.24,1.7c-.61.37-1.19.76-1.77,1.15-1.16.78-2.29,1.62-3.41,2.46-2.26,1.8-4.59,3.71-6.72,5.78h0c-.67.66-1.31,1.32-1.93,2-.35.36-.68.74-1,1.12a27.22,27.22,0,0,0-4.06,6.21c-.4,1.11-.74,2.38-1.16,3.52s-1.07,2.51-1.65,3.67a1.1,1.1,0,0,1-.09.14c-.36.64-.73,1.29-1.13,1.92-.07.1-.13.22-.21.32-.68,1.12-1.42,2.22-2.2,3.28A68.67,68.67,0,0,1,345.37,171.43Z"/><path class="cls-7" d="M329.94,79.6c-.26.38-.54.75-.83,1.1-.16.19-.32.37-.51.56-3.73,4-9.69,5.72-15,6.43-5.86.91-12,.34-17.77,1.3-9.07,1.59-17.86,6.82-22.63,14.71a26,26,0,0,0-1.6,3.11l-.1.21c0,.06,0,.16-.14.21a3,3,0,0,1-1-.08c-.58-.06-1.73-.32-2.33-.44a18.36,18.36,0,0,1-2.15-.95,2,2,0,0,1-.85-.59c-.06-.14,0-.22.05-.33l.09-.31c.09-.32.19-.63.3-.94,4.12-12.31,18.08-17.35,29.78-18.65,2.68-.28,5.32-.49,7.94-.68l2.49-.18c1.07-.08,2.14-.15,3.21-.24,1.29-.1,2.58-.22,3.87-.35l.37,0c5.45-.49,10.52-1,15.52-3.26C329.1,80,329.51,79.81,329.94,79.6Z"/><path class="cls-7" d="M343.12,96.86c-.92,1-1.81,2-2.65,3-1,1.25-2,2.52-2.85,3.84-.35.51-.69,1-1,1.56a47.31,47.31,0,0,0-2.5,4.51,37.39,37.39,0,0,0-3.49,11c-.06.38-.11.75-.15,1.12,0,.12,0,.24,0,.38h0c-.06.6-.09,1.21-.1,1.81l-6.73-.87c.09-.37.19-.75.28-1.11h0c2.22-8,7.15-15,13.24-20.53l.51-.45c1-.85,1.94-1.65,2.94-2.43C341.44,98.07,342.27,97.45,343.12,96.86Z"/><path class="cls-7" d="M362.14,262.59a91.88,91.88,0,0,1-15.31,15.35.64.64,0,0,0-.13.1c-1.77,1.39-3.58,2.76-5.42,4.07a91,91,0,0,1-8.24,5.32c-5.1,2.47-10.7,3.48-16.19,4.3-10.84,1.52-21.78,1.86-32.67,2.29-21.78.76-43.55.41-65.29-.74-7.19-.4-15.22-.95-22.47-1.88l-.21,0,.93-.19.54-3.74c2.06.27,4.13.54,6.19.78,26.54,3.14,53.51,3.55,80.21,3,14.23-.56,28.89-1.62,42.61-5.19a25.89,25.89,0,0,0,7.08-3l2.31-1.35c1.6-1,3.2-2,4.77-3l1-.69c1.09-.7,2.16-1.42,3.23-2.15A156.86,156.86,0,0,0,362.14,262.59Z"/><path class="cls-7" d="M380.69,249.42a85.7,85.7,0,0,1-8.46,15.71c-.74,1.06-1.52,2.07-2.34,3.05-.45.55-.92,1.09-1.4,1.61-6.55,7.3-15.1,11.94-27.21,12.32l-.5,0,.07-3.36,1-.69a45,45,0,0,0,4.93-.14,34.2,34.2,0,0,0,6.72-1.27c6.45-1.82,11.67-5.69,16-10.53l.61-.68A85.22,85.22,0,0,0,380.69,249.42Z"/><path class="cls-7" d="M398.36,187.84a27.3,27.3,0,0,0-1.3-6.88c-.19-.56-.41-1.12-.64-1.66-.05-.1-.09-.21-.14-.3-3.29-7.48-9.6-13.05-16.75-17.23a81,81,0,0,0-13.13-6.05c-1-.37-2.1-.71-3.15-1-.53-.16-1.07-.31-1.6-.44s-1.19-.3-1.78-.42l.61-3.3.51-.63c1.29.27,2.61.6,4,1l.7.2a65.8,65.8,0,0,1,19.87,9.8c5.21,3.85,9.53,8.55,11.76,14a18.59,18.59,0,0,1,.88,2.54,19.58,19.58,0,0,1,.75,4.92A20.76,20.76,0,0,1,398.36,187.84Z"/><path class="cls-7" d="M416.4,224.72c-1.46,7.43-5.71,13.86-10,19.88a71.74,71.74,0,0,1-22,19.8c-4.3,2.43-10.89,4.37-15.85,5.39l-.38.09,1.78-1.7-.32-2,.61-.68c.68-.09,1.36-.21,2.05-.33a45.85,45.85,0,0,0,16.71-7.23c10.46-7,22.58-21.08,25.29-33.57,1.72-13.33-6.56-30.88-15.31-42-.83-1.07-1.66-2.09-2.51-3a1.65,1.65,0,0,0-.22-.24l.09-.06,1.89-1.6-.88-2.54-.07-.21C406.12,186.35,418.59,209.83,416.4,224.72Z"/><path class="cls-7" d="M371.45,107.35c-1.19.22-2.36.5-3.53.81a82.11,82.11,0,0,0-16.58,6.76,104.84,104.84,0,0,0-11.71,7.2c-1.46,1-2.89,2.14-4.25,3.28-.78.06-1.56.14-2.33.21l-2.6-3.33h0l-.31-.37-.43-.56.91-.57c10.66-6.49,24.44-11.69,37.06-13.11C369,107.51,370.21,107.41,371.45,107.35Z"/><path class="cls-7" d="M389.51,45.79a17.5,17.5,0,0,1-3.17,9.5,23.32,23.32,0,0,1-2.65,3.28l-.05,0h0a6.46,6.46,0,0,1-2.77,1.63,1.92,1.92,0,0,1-1.51-.33c1.46.19,2.29-1.38,2.92-2.46.25-.55.5-1.1.75-1.67a22.93,22.93,0,0,0,2.3-10c-.25-8-6.66-14.3-14.85-13.4-4.06.32-14.31,3.09-14,8.28.36,4.34,4,8,4,12.68A6.34,6.34,0,0,1,358.37,58l-.54.51A28.36,28.36,0,0,1,352.67,62a141.37,141.37,0,0,1-16.49,7.33c-2.53,1-5.22,2-7.88,3-1.51.55-3,1.11-4.45,1.67-4.06,1.56-7.35,3.14-9.39,6h0a11.26,11.26,0,0,0-1.67,3.52,15.89,15.89,0,0,0-.49,2.59c0,.13,0,.26,0,.39l-6.74-.75c0-.16,0-.32.05-.47,0-.41.09-.79.14-1.17,1.63-11.18,9.82-14.53,19.8-18.13,8.77-3.37,18.68-6.55,26.61-11.28a14.43,14.43,0,0,0,1.9-1.48,9.21,9.21,0,0,0-.85-2.86c-5-10.14-3.57-17.09,7.6-21.24C366.81,26.78,374,26,380,29.18A18.51,18.51,0,0,1,389.51,45.79Z"/><path class="cls-7" d="M401.09,68.72c-.62-3.17-2.66-5.76-4.76-8-2.55-2.78-6.12-5.3-10-5.42h0a8.51,8.51,0,0,0-2.76.35,4.58,4.58,0,0,0-.56.16c-3.59,1.19-6.26,4-8.6,6.76-2.49,3.21-2.72,7.46-2.52,11.32s1.64,8.63,4.6,11.34h-1.11c-6.14.31-11.69,2.19-17.4,3.94s-11.85,3.4-16.65,7.34c-.24.17-.46.35-.69.54-.75.62-1.49,1.37-2.21,2.07-.33.32-.64.63-1,.92a5.54,5.54,0,0,1,.11.56,5.35,5.35,0,0,1,.07.56c-.16.14-.32.3-.49.44l-.54,3.67-.35,2.31.64,0a5.17,5.17,0,0,0,.57,0,3.85,3.85,0,0,0,.49-.08l.29-.07a4.94,4.94,0,0,0,.84-.3l0,0a2.1,2.1,0,0,0,.42-.22c.15-.08.3-.18.44-.27l.07,0,.35-.27a11.44,11.44,0,0,0,1.21-1.11c.11-.13.23-.25.35-.38l.07-.08c.16-.17.31-.35.46-.53s.15-.17.23-.26.29-.35.45-.52l.45-.52.23-.26c.15-.17.31-.33.46-.49s.31-.31.47-.45.33-.29.5-.42c2.92-2.67,6.57-4.28,10.36-5.67s8.15-3.13,12-4.33c3.3-1,6.48-1.91,9.76-1.77a17.6,17.6,0,0,1,2,.3,7.79,7.79,0,0,0,1.52,0h0a9.56,9.56,0,0,0,1.24-.15A29.8,29.8,0,0,0,396.2,81.7c.48-.48.93-1,1.36-1.51,0,0,0,0,.06-.06l.3-.4C400.45,76.49,401.86,72.7,401.09,68.72Zm-10.48,13a23.94,23.94,0,0,1-9,3.92,5.55,5.55,0,0,1-2.46-.17l-.64-.13C373.92,81,373.66,71,375.73,65.91a19.65,19.65,0,0,1,5.12-5.66h0l.13-.1a8.63,8.63,0,0,1,2.64-1.52h0a7,7,0,0,1,2.4-.42c4.27,0,8.19,3.82,10.76,7.6C400.89,71.92,395.88,78.33,390.61,81.74Z"/><path class="cls-7" d="M340.6,98.7c0,.39-.07.78-.13,1.15a8,8,0,0,1-3.41,5.8,8.29,8.29,0,0,0,.56-2,8.8,8.8,0,0,0,0-2.56,11.21,11.21,0,0,0-.19-1.11,44,44,0,0,0-2.59-7l-2.77-6.29a33,33,0,0,0-2.66-5.55l-.34-.47c-.14-.17-.28-.34-.44-.5-3.39-3.65-9.37-2.67-14.22-.23a21.87,21.87,0,0,0-5.54,3.87c1.75-7.93,11.48-13.9,19.4-11.52A11.92,11.92,0,0,1,331.79,74a16.46,16.46,0,0,1,5.8,8.77A69.6,69.6,0,0,1,340,91.44a33.07,33.07,0,0,1,.66,5.6A15.33,15.33,0,0,1,340.6,98.7Z"/><path class="cls-7" d="M450.93,81.61h0l.64-.59.18-.17a34.72,34.72,0,0,0,3.81-4.34c8-10.39-9.93-24-19.87-19.73-1.38-4.18-3.85-8.05-8.1-9.81a11.17,11.17,0,0,0-3.95-.48c-6.73,0-11.17,2.37-13.85,6.12a2.43,2.43,0,0,0-.2.25c-3,4.4-3.73,10.66-3,17.39a4.56,4.56,0,0,1-.11,2.46,9.1,9.1,0,0,1-1.2,1.82.31.31,0,0,1-.07.09,28.54,28.54,0,0,1-4.72,4.19q-2,1.47-4.08,2.78h0a.78.78,0,0,1-.18.11c-1.94,1.23-4,2.38-6,3.49q-4.51,2.44-9.2,4.6h0c-4.48,2.1-9.05,4-13.62,6a11.84,11.84,0,0,0-.56,1.36,12.88,12.88,0,0,0-.63,2.72c0,.22,0,.45-.06.67a14.73,14.73,0,0,0,0,1.76,14,14,0,0,0,.33,2c0,.19.09.39.15.58a.83.83,0,0,1,0,.15c.07.21.12.41.2.61a5.71,5.71,0,0,0,.21.58c.17.47.37.93.59,1.39.07.17.16.34.24.5,3.34,6.5,10.67,12,16.34,14.9.58.3,1.17.6,1.78.87l.77.34a40,40,0,0,0,9.4,2.77c7.59-6.4,14.42-13.39,22.43-18.78a12.26,12.26,0,0,1,4-1.85h0a.07.07,0,0,1-.08,0,.1.1,0,0,1,.08,0c2.88,1,5.32,2.84,8.45,3.91a17.65,17.65,0,0,0,15.85-1.9,32.48,32.48,0,0,0,3.44-2.55l0,0h0l.23-.17c6.39-5.52,8.42-13.8,3.38-20.93A12.68,12.68,0,0,0,450.93,81.61Zm-2.15,19.7-1,.79-1.11.7-1.08.7-1.13.55a13.89,13.89,0,0,1-2.25,1,11.75,11.75,0,0,1-8.92-.43c-2.86-1.19-5.66-3.53-8.79-4.65-5.13-1.38-10.63,3-14.51,5.67a191.59,191.59,0,0,0-15.88,13.87,38.4,38.4,0,0,1-14.87-7.2c-3.86-3.17-8.8-7.87-8-13.12,6.84-3.76,13.55-7.73,20.19-11.84,5.21-3.35,10.58-6.55,15.05-11,1.24-1.28,2.66-3.12,2.53-5.11-.16-4.29.11-8.85,1.7-12.55,2.42-6,8.24-7.3,14.11-6.46a1.7,1.7,0,0,1,.69.19c3.34,2,4.72,6.67,5.39,10.36L432.44,73l4.22-9.37c.83-1.94,3.15-2,5.07-1.7,4.35.79,8.9,3.42,11,7.43a5.12,5.12,0,0,1-.3,5.1c-.39.65-.77,1.37-1.22,2a28.37,28.37,0,0,1-11.5,10.4l.17.66a23.3,23.3,0,0,0,10.33-5.24,13.74,13.74,0,0,1,3.73,8.38A11.58,11.58,0,0,1,451,99.17,15.78,15.78,0,0,1,448.78,101.31Z"/><path class="cls-7" d="M70.35,164a37.83,37.83,0,0,0-.92,5l-.77,5a249.63,249.63,0,0,1-6.54,29.61c-2.1-11,1.27-29.25,7.35-38.61A8.4,8.4,0,0,1,70.35,164Z"/><path class="cls-7" d="M76.56,166.34a4.32,4.32,0,0,0-.93,1.41c-3,8-4.44,16.44-6,24.85-1.84-7.84.25-19,5.46-25.23A3.71,3.71,0,0,1,76.56,166.34Z"/><path class="cls-7" d="M84.63,162c-2.37,3.61-3.36,7.76-4.72,11.79S77.6,182,76.39,186.17C75.13,179,78.12,166,84.63,162Z"/><path class="cls-7" d="M93.9,160.68c-3.89,4.28-6.17,9.5-9.19,14.42C84.08,169.77,88.3,161.64,93.9,160.68Z"/><path class="cls-7" d="M109.77,156.56a39.89,39.89,0,0,0-4.54,3.93c-4.29,4-8.79,8.5-13.48,12C94.75,166.42,102.88,157.7,109.77,156.56Z"/><path class="cls-7" d="M48.88,208.37a18.06,18.06,0,0,0-1.41,4.2c-2.76,13-3.46,26.33-3.74,39.62,0,1,0,2.06,0,3.09-.37-1.66-.68-3.34-.92-5a82.48,82.48,0,0,1,1.5-30.79C45.31,215.62,46.29,211.48,48.88,208.37Z"/><path class="cls-7" d="M56.63,266.75C49.74,254,50.44,232.69,53.5,218.8c.08,4.06.09,8.09.1,12.11C53.77,242.91,53.63,255,56.63,266.75Z"/><path class="cls-7" d="M65,269.57c-7.65-11.95-7.78-33.89-5.51-47.64C60,230,60.27,238,61,246S62.36,261.93,65,269.57Z"/><path class="cls-7" d="M75.24,274.64c-12.3-9.22-14.81-33.74-13.4-48.1C64,241.17,65.61,263.17,75.24,274.64Z"/><path class="cls-7" d="M90.14,277.17c-9.13-6.58-17.3-21.32-21-31.86C76.69,255.62,82.48,267,90.14,277.17Z"/><path class="cls-7" d="M103.39,269.43a40.92,40.92,0,0,1-13.84-5.38,39.51,39.51,0,0,1-6.45-4.72l-.38-.35c-9.19-8.47-14.31-21.22-8.67-33.33-3.79,15.18,4.43,28.31,16.55,36.8A63.23,63.23,0,0,0,103.39,269.43Z"/><path class="cls-7" d="M111,283.28c-10.43-1.58-27.52-12.69-28.26-24.3q0-.44,0-.87a11.66,11.66,0,0,0,.41,1.22C86.92,269.25,102,278.72,111,283.28Z"/><path class="cls-7" d="M100.16,232.37a64.86,64.86,0,0,1-6.46,13.2A63.59,63.59,0,0,1,100.16,232.37Z"/><path class="cls-7" d="M101.25,235.28a39.67,39.67,0,0,1-4.64,10.56A39.67,39.67,0,0,1,101.25,235.28Z"/><path class="cls-7" d="M101.62,239.74a67,67,0,0,1-3.92,14.47A66.79,66.79,0,0,1,101.62,239.74Z"/><path class="cls-7" d="M103,241.84a57,57,0,0,1-2.72,13.55A57,57,0,0,1,103,241.84Z"/><path class="cls-7" d="M104.35,256.49a30.88,30.88,0,0,1,1.28-10.11A31.39,31.39,0,0,1,104.35,256.49Z"/><path class="cls-7" d="M107.72,264.77a7.87,7.87,0,0,1,.27-5.09A7.93,7.93,0,0,1,107.72,264.77Z"/><path class="cls-7" d="M185,246.56a32.07,32.07,0,0,1-9.1,11.49A32.35,32.35,0,0,1,185,246.56Z"/><path class="cls-7" d="M181.19,243.46a26.24,26.24,0,0,1-9.11,9.52A26.16,26.16,0,0,1,181.19,243.46Z"/><path class="cls-7" d="M178.7,237.56c-3.27,4.23-8.5,9.42-14.28,8.8C169.81,244.64,173.78,240.17,178.7,237.56Z"/><path class="cls-7" d="M177.25,231.66c-2.75,4.68-12.14,10.07-17.59,8.49,3.32-.36,6.2-2,9.13-3.42A61.49,61.49,0,0,0,177.25,231.66Z"/><path class="cls-7" d="M176.12,229.48a8.88,8.88,0,0,1-2.33,1.67c-5.11,2.66-13.59,5.5-19.2,3.41,3.74.11,7.27-1,10.86-1.9,2.68-.69,5.37-1.45,8-2.25A15.93,15.93,0,0,0,176.12,229.48Z"/><path class="cls-7" d="M173,224.73c-5.36,3.34-18.08,4.41-23.91,1.86a75.16,75.16,0,0,0,12-.38A89.91,89.91,0,0,0,173,224.73Z"/><path class="cls-7" d="M168,220.59c-5.87,1.82-17.53,1.87-22.56-2,3.63,1.18,7.41,1.19,11.18,1.45S164.22,220.47,168,220.59Z"/><path class="cls-7" d="M163.28,216.34c-6.4-.5-15-3.15-18.93-8.48C150.24,211.68,156.91,213.41,163.28,216.34Z"/><path class="cls-7" d="M161.21,214.06c-9-3.95-18-14.26-19.56-24.11C145.81,199.61,153,207.64,161.21,214.06Z"/><path class="cls-7" d="M213.13,187.66a301.67,301.67,0,0,1-14,28.49A302.91,302.91,0,0,1,213.13,187.66Z"/><path class="cls-7" d="M217.43,192.81a146.15,146.15,0,0,1-9.13,20A143.79,143.79,0,0,1,217.43,192.81Z"/><path class="cls-7" d="M220.44,197.55a149.2,149.2,0,0,1-9.56,20.21A149.2,149.2,0,0,1,220.44,197.55Z"/><path class="cls-7" d="M226.57,198.63a133.61,133.61,0,0,1-11.29,27.74A133.81,133.81,0,0,1,226.57,198.63Z"/><path class="cls-7" d="M230.55,202a121.39,121.39,0,0,1-8.6,27.2A121.07,121.07,0,0,1,230.55,202Z"/><path class="cls-7" d="M232.8,210.24a148.77,148.77,0,0,1-5.16,21.82A152.08,152.08,0,0,1,232.8,210.24Z"/><path class="cls-7" d="M258.06,190.62a47.91,47.91,0,0,0,2.59,10.95c-7.72-10.81-7.59-33.54.58-44.09a52.36,52.36,0,0,0-3.55,16.4A85.91,85.91,0,0,0,258.06,190.62Z"/><path class="cls-7" d="M267.43,200.59a9.72,9.72,0,0,1-1.88-3.16c-2.68-7.38-3.69-17.89-.54-25.23-1.1,8.32-.18,16.78,1.31,25A12.9,12.9,0,0,0,267.43,200.59Z"/><path class="cls-7" d="M277.7,206.11C273,199.36,270,189.23,270.44,181A249.1,249.1,0,0,0,277.7,206.11Z"/><path class="cls-7" d="M283.91,205.83c-4.61-5.18-8.49-12.42-8.44-19.48C277.7,193.13,281.15,199.26,283.91,205.83Z"/><path class="cls-7" d="M295.15,215.8c-4.92-6.23-10.6-17.21-8.73-25.29.2,4.53,1.8,8.71,3.43,12.87S293.39,211.6,295.15,215.8Z"/><path class="cls-7" d="M325.28,240.67A83.92,83.92,0,0,0,330.17,230c1.42-3.64,3.14-7.2,4.15-11C334.73,225.07,330,236.78,325.28,240.67Z"/><path class="cls-7" d="M340.81,222.89c-2.54,10.28-9.63,21.58-19.3,26.42,6.44-5.24,11.25-12,15.39-19.11C338.26,227.81,339.6,225.39,340.81,222.89Z"/><path class="cls-7" d="M342.41,233.86c-1.57,9.34-13.17,20.9-21.94,24a70,70,0,0,0,12.41-10.76C336.56,243.09,340.25,239,342.41,233.86Z"/><path class="cls-7" d="M346.26,243.07a13.18,13.18,0,0,1-1,2c-5.06,7.85-17.81,17-27.28,17.63,5.62-1.65,10.53-4.83,15.29-8.12S342.75,247.75,346.26,243.07Z"/><path class="cls-7" d="M346.09,251.08c-5,10.4-18.26,15.44-29.22,16.09C327.63,264.1,338.94,260.16,346.09,251.08Z"/><path class="cls-7" d="M351.7,256.12c-5.88,8.7-20,15.42-30.43,14.74A63.43,63.43,0,0,0,351.7,256.12Z"/><path class="cls-7" d="M356.75,261.25c-5.81,9.17-19.42,15.39-30.11,15.45a70.85,70.85,0,0,0,16.09-5.77A52.33,52.33,0,0,0,356.75,261.25Z"/><path class="cls-7" d="M365.87,263.89a14.68,14.68,0,0,0,1.37-3.86,185.86,185.86,0,0,0,4.8-28.41C373.6,239.31,370.8,257.79,365.87,263.89Z"/><path class="cls-7" d="M392.35,229.88c.27-7.55-1-15-2.44-22.41s-3.53-14.7-7.39-21.22c6.88,8,9.83,21.85,10.52,32.23A41.08,41.08,0,0,1,392.35,229.88Z"/><path class="cls-7" d="M396.57,227.28c.28-5.58.29-11.14.09-16.71s-.49-11.13-2.71-16.29C399.6,201.84,399.07,218.47,396.57,227.28Z"/><path class="cls-7" d="M397.87,233.7a16.62,16.62,0,0,0,.9-3.46c1.4-8.05,2.11-16.76,2.81-24.93C403,212.84,402.13,227.26,397.87,233.7Z"/><path class="cls-7" d="M406.6,216.15c-1,14-7.26,27.51-16.56,37.91A126.82,126.82,0,0,0,406.6,216.15Z"/></g></svg>