<svg xmlns="http://www.w3.org/2000/svg" viewBox="0 0 467.74 334.98"><defs><style>.cls-1{opacity:0.73;}.cls-2{fill:#e55c45;}.cls-3{fill:#fca492;}.cls-4{fill:#ad2a2a;}.cls-5{fill:#eaeaea;}.cls-6{fill:#cc2f2f;}</style></defs><g id="Calque_17" data-name="Calque 17"><path class="cls-2" d="M434.73,129.2c-2.36,14.17-9.45,27.56-7.48,46.46.73,7,.05,17.2-1.8,27.67-.07.4-.15.8-.22,1.2-2.43,13.13-6.69,26.53-12.29,34.56a29.51,29.51,0,0,1-2.21,2.79,17,17,0,0,1-3.56,3.08c-.33.21-.67.41-1,.61l-.12.06c-.24.14-.49.28-.74.4a8.52,8.52,0,0,1-.8.4,5,5,0,0,1-.52.25c-.26.13-.52.24-.79.35s-.54.24-.82.34-.48.19-.72.27a8,8,0,0,1-.82.29,7,7,0,0,1-.77.26c-.23.08-.46.16-.7.22s-.56.17-.85.24l-.78.21c-.39.11-.79.21-1.19.29l-.29.07-1.26.26c-.51.11-1,.2-1.56.28-.29.06-.58.1-.87.14l-.88.13-1,.13-.58.07c-.39.05-.78.09-1.18.12s-1.09.11-1.64.14l-1.18.08c-.34,0-.68.05-1,.06-.56,0-1.13.06-1.7.07-1.32.05-2.66.07-4,.07-10.05,0-21-1.12-31.6-1.87-22-1.58-85,1.57-111.43,4.72l-2.51.28c-.87.09-1.78.18-2.74.26l-1.82.17-1.56.12-1.27.1c-2.63.2-5.5.39-8.58.57l-3.67.19-2.55.12c-2.15.11-4.39.2-6.69.28l-4.22.15c-4.17.14-8.55.25-13.08.33l-3.49.05-3.12,0h0c-7.13.08-14.57.08-22.16,0h0l-3,0h-.51l-3.06-.05c-2,0-4.09-.08-6.15-.14L143,256l-6.16-.2h-.09l-6-.25q-4-.17-7.92-.39l-4.41-.25-.32,0-5.64-.37c-6.54-.46-13-1-19.11-1.69-1.76-.19-3.5-.38-5.22-.59l-2.56-.32c-.84-.1-1.69-.21-2.52-.33q-3.77-.49-7.35-1.07l-2.73-.42-1.39-.2c-2.45-.36-4.8-.69-7-1l-1.14-.16L58.68,248l-1.63-.23-2.1-.32-1.9-.3-.92-.15c-1.33-.22-2.59-.44-3.79-.67l-.49-.1-.79-.16-1.55-.33-1.31-.32-1.48-.4q-1-.28-1.89-.6l-.59-.21-.56-.22-.55-.23c-.54-.23-1-.47-1.51-.72l-.46-.26c-.31-.18-.59-.36-.86-.55l-.4-.28a8.81,8.81,0,0,1-1.07-.93l-.31-.33a2.62,2.62,0,0,1-.22-.25,3,3,0,0,1-.27-.35,5.28,5.28,0,0,1-.55-.84c-.08-.13-.14-.26-.21-.39s-.13-.27-.18-.41a4.08,4.08,0,0,1-.17-.42,7.54,7.54,0,0,1-.26-.88,10.22,10.22,0,0,1-.22-1.31l0-.53c0-.2,0-.41,0-.63a17.41,17.41,0,0,1,.32-3.14c.1-.55.22-1.1.34-1.65.45-2.06,1-4.09,1.6-6.07a123.72,123.72,0,0,1,5.64-14.46c2.43-5.39,4.79-10.16,6.21-14,3.15-8.66,18.89-28.74,24.41-41.34,5-11.55,13.08-10.53,16.51-19.07a19.31,19.31,0,0,0,.81-2.59c.75-3.12,1.69-7.28,2.93-11.89.37-1.36.76-2.75,1.19-4.17,3.4-11.42,8.77-24.46,17.93-31.58,14.18-11,54.73-22.45,74-16.54C198.09,51.63,282.74,80.38,304,88.25c15.58,5.77,51,16,81.38,19.78,5.1.64,10.05,1.1,14.74,1.33a104.93,104.93,0,0,0,15.31-.24C428.43,107.94,437.09,115,434.73,129.2Z"/><path class="cls-3" d="M49.73,241.5l-1.39,4.86-.49-.1-.79-.16-1.55-.33-1.31-.32-1.48-.4q-1-.28-1.89-.6l-.59-.21-.56-.22-.55-.23c-.54-.23-1-.47-1.51-.72l-.46-.26c-.31-.18-.59-.36-.86-.55l-.4-.28a8.81,8.81,0,0,1-1.07-.93l-.31-.33a2.62,2.62,0,0,1-.22-.25,3,3,0,0,1-.27-.35,5.28,5.28,0,0,1-.55-.84c-.08-.13-.14-.26-.21-.39s-.13-.27-.18-.41a4.08,4.08,0,0,1-.17-.42,7.54,7.54,0,0,1-.26-.88,10.22,10.22,0,0,1-.22-1.31l0-.53c0-.2,0-.41,0-.63a17.41,17.41,0,0,1,.32-3.14c.1-.55.22-1.1.34-1.65.45-2.06,1-4.09,1.6-6.07,4.39-2.49,7.69-4.08,7.25-2.95a3.33,3.33,0,0,0-.22,1c-.21,3,2.88,6.95,5.15,11C49.39,237.58,52.62,237.92,49.73,241.5Z"/><path class="cls-3" d="M39.46,218.6c.81.84,2.22.39,3.36.63a5.36,5.36,0,0,1,1.56.71c4.94,3,9.55,7,15.2,8.23,1.67.38,3.46.53,4.89,1.48A18,18,0,0,1,67.54,233c3.11,3.53,8,4.76,12.16,6.93,2.58,1.34,5,3.11,7.87,3.68s6.35-.62,7.17-3.41a8,8,0,0,0,.13-2.84c-.3-3.72-1-7.61-3.43-10.46s-5.9-4.21-7.82-7.21c-.91-1.42-1.38-3.08-2.28-4.51a17.19,17.19,0,0,0-2.11-2.56l-6.5-6.92a20.78,20.78,0,0,0-4-3.6,2.4,2.4,0,0,0-2.16-.44,2.73,2.73,0,0,0-.89.77,4.09,4.09,0,0,0-1,1.84c-.26,1.79,1.64,3,3.18,4,4.81,2.92,8.56,7.26,12.22,11.53l5.86,6.83c2.21,2.57,4.56,5.62,4,9A3.64,3.64,0,0,1,88,238.42c-1.34.58-2.86,0-4.15-.73a48.28,48.28,0,0,1-9.18-6.28,36.29,36.29,0,0,0-4.43-3.6c-4.94-3.12-11.48-2.81-16.37-6a6.85,6.85,0,0,1-2.8-3.11c-.93-2.37.11-5.43-1.56-7.36a3.37,3.37,0,0,0-4-.77,11.23,11.23,0,0,0-1.5,1.09c-1.21.91-3,1.14-4,2.35C39.29,215,38.5,217.61,39.46,218.6Z"/><path class="cls-3" d="M113.53,244.75c1.68-.26,3.28.76,4.5,1.94a21.16,21.16,0,0,0,3.7,3.45c2,1.21,4.56,1.16,6.93,1.07q11-.41,22-.87a20.67,20.67,0,0,0,4-.42,27,27,0,0,0,5.34-2.28c2.85-1.39,5.82-2.5,8.79-3.61a12.48,12.48,0,0,1,5.73-1.16c2.62.31,4.73,2.2,7,3.6,5.62,3.51,12.53,4.12,19.14,4.58a6,6,0,0,1,2.45.52,2.08,2.08,0,0,1,1.21,2c-.19,1.13-1.49,1.65-2.59,2l-9.35,2.65a13.13,13.13,0,0,1-4.87.72,12.65,12.65,0,0,1-4-1.43,22.24,22.24,0,0,1-5.59-3.4,16.74,16.74,0,0,0-3-2.68,9.06,9.06,0,0,0-5.42-.58c-2.28.25-4.68.69-6.39,2.22a23.35,23.35,0,0,1-2.61,2.56,7.64,7.64,0,0,1-3.09.91,120.56,120.56,0,0,1-27.38.7,51.46,51.46,0,0,1-8.72-1.41c-2.3-.62-4.51-1.49-6.77-2.23-1.57-.51-5-.63-6.13-1.83C106.6,250,111.57,245.05,113.53,244.75Z"/><path class="cls-3" d="M82.08,199.91c.35.89.57,2,1.39,2.43a6,6,0,0,0,1.65.41c2.92.69,3.71,4.43,5.76,6.62a25.7,25.7,0,0,0,3.31,2.54c3.28,2.52,5.17,6.41,7,10.15a6.72,6.72,0,0,1,6,3.46,18.64,18.64,0,0,0,1.16,2.27c1.1,1.53,3.09,2.07,4.88,2.66a34.07,34.07,0,0,1,13.33,8.2c1.91,1.91,3.66,4.09,6.06,5.32,2.74,1.41,6,1.4,9.06,1.35,5.75-.09,11.91-.31,16.58-3.66,1.79-1.28,3.29-3,5.21-4.06a9.83,9.83,0,0,1,10.74,1,13.38,13.38,0,0,0,2.46,1.94,4.11,4.11,0,0,0,4.72-.86c-5.57-4.08-12-8.39-18.81-7.17-4.29.77-7.86,3.64-11.63,5.83a7.24,7.24,0,0,1-2.9,1.13c-2.28.23-4.36-1.45-6.65-1.5-1.63,0-3.16.76-4.78.9-4.33.36-7.53-3.77-11.32-5.89-4.67-2.6-10.91-2.37-14.58-6.26-1.66-1.75-2.57-4.17-4.46-5.67a3.44,3.44,0,0,1-1.14-1.17,5.58,5.58,0,0,1-.07-1.92,4.08,4.08,0,0,0-2.42-3.07A22.61,22.61,0,0,1,98.92,213c-2.6-2.08-2.62-6-3.94-9a10.73,10.73,0,0,0-5.59-5.56,71.84,71.84,0,0,1-2.34-9.6c-.09-.53-6.88,3.85-7.4,4.45C77.16,196.07,81.09,197.41,82.08,199.91Z"/><path class="cls-3" d="M160.23,206.31a12.81,12.81,0,0,0-1.75-3.46c-7.58-11.42-21-18.08-34.63-19.69a9.27,9.27,0,0,0-4.26.2,3.52,3.52,0,0,0-2.47,3.17,4.88,4.88,0,0,0,.79,2.21,47.24,47.24,0,0,0,24.35,20.88c2.34.88,4.89,1.58,7.32,1s4.57-3,4.13-5.42a5.68,5.68,0,0,1,4.58,4.5,7.82,7.82,0,0,1-1.76,6.39,12.85,12.85,0,0,1-5.62,3.77,9.79,9.79,0,0,1-3.62.7,12.94,12.94,0,0,1-3.67-.83l-16.79-5.52a30.21,30.21,0,0,1-5-2,30.28,30.28,0,0,1-5.7-4.39q-2.3-2.1-4.61-4.18a16.48,16.48,0,0,1-2.56-2.72,14.63,14.63,0,0,1-2.06-6.85,62.67,62.67,0,0,1-.16-11.94c.09-1.11.16-2.36-.59-3.18s-2.39-.81-3.54-.28c-1.74.81-3.28,1.6-2.1,3.45,1,1.53,2,2.63,2.15,4.53.38,3.45-1.6,6.85-1.11,10.29a12.52,12.52,0,0,0,3.11,6c5.66,6.85,13.33,11.67,20.87,16.37a18.24,18.24,0,0,0,3.2,1.71,17.78,17.78,0,0,0,3,.74l8.17,1.55c5.12,1,10.68,1.88,15.33-.48a8.44,8.44,0,0,0,2.7-2.07,10.54,10.54,0,0,0,1.88-4.3,28.41,28.41,0,0,0,.79-6.87A11.77,11.77,0,0,0,160.23,206.31ZM147.42,203a13.44,13.44,0,0,1-.77,2.91c-2,.81-4.37,0-6.16-1.28s-3.26-3-5.11-4.13c-1.29-.82-2.74-1.38-4-2.18-2.35-1.44-6.31-4.94-6.64-7.87-.51-4.36,5.61-2.63,7.7-1.63L137,191a27.82,27.82,0,0,1,7.23,4.43C146.27,197.38,147.75,200.17,147.42,203Z"/><path class="cls-3" d="M190,158.13c1.25.91,2.2,2.18,3.38,3.19,3.33,2.85,8.55,3.75,10.37,7.73,1.32,2.92.48,7,3,8.92a13.36,13.36,0,0,0,3.39,1.42,8.72,8.72,0,0,1,5,5.34,7.75,7.75,0,0,0,.77,2,6,6,0,0,0,2.36,1.7,24.89,24.89,0,0,1,6.17,4.55,7.24,7.24,0,0,1,2,2.87,3.07,3.07,0,0,1-.77,3.22c-.42.35-1,.54-1.41.85a4.38,4.38,0,0,0-1.58,3.82,23,23,0,0,0,.86,4.23,19.87,19.87,0,0,1-9,21,5.43,5.43,0,0,1-2.75.91,6.24,6.24,0,0,1-1.65-.36A130.25,130.25,0,0,1,185.8,219c-3.62-2-7.3-4.44-9.27-8.1-1.69-3.13-2-6.89-3.76-10a11.75,11.75,0,0,1-1.29-2.39,23,23,0,0,1-.42-2.37c-.77-3.76-4.81-6-6.22-9.56a4.08,4.08,0,0,1-.06-3.28,4.37,4.37,0,0,1,1.31-1.43,10.87,10.87,0,0,1,7.5-2.17c1.71.77,1.34,3.39,2.54,4.83a3.73,3.73,0,0,0,3.5,1,21.31,21.31,0,0,0,3.61-1.22,15.59,15.59,0,0,1,14.64,2.36,5.59,5.59,0,0,1,1.65,1.84,20,20,0,0,1,.66,2.07c.72,2,2.59,3.43,4,5.07s2.46,4.13,1.23,5.92a4.15,4.15,0,0,1,1.5,5.58c-1.45,2.37-4.85,2.58-7.52,1.81a16.14,16.14,0,0,1-8.71-6.3c-1.27-1.86-2.17-4-3.74-5.63s-4.2-2.56-6.1-1.35a57.05,57.05,0,0,0,11.22,16.93c3.12,3.24,7.16,6.3,11.65,5.87a11.15,11.15,0,0,0,3-.78,15.16,15.16,0,0,0,8.72-9.54c.63-2.08.72-4.55-.66-6.24-1.23-1.51-3.34-2-4.6-3.52-1.11-1.31-1.38-3.11-1.88-4.74-2.71-8.71-12.44-13-17.78-20.41a9.85,9.85,0,0,0-1.84-2.17c-2-1.57-5-.88-7.24.39s-4.21,3.08-6.69,3.74c-4.16,1.1-8.71-1.29-12.8,0a7.48,7.48,0,0,0-4.73,4.61c-1.17,3.35.21,7.1,2.28,10s4.8,5.25,6.86,8.14a8.33,8.33,0,0,1,1.85,4.81,16.11,16.11,0,0,0-.14,2.68,6.11,6.11,0,0,0,.94,2.16l2.61,4.42c2.54,4.28,5.13,8.63,8.79,12a41.59,41.59,0,0,0,9.32,6.15c7,3.59,14.7,6.51,22.44,5.38a37.43,37.43,0,0,0,7.25-2c2.47-.89,5.09-2,6.4-4.29a12.24,12.24,0,0,0,1.19-4.84A130.48,130.48,0,0,1,231.38,203a11,11,0,0,0,.63-3.49,8.52,8.52,0,0,0-.57-2.48,21.63,21.63,0,0,0-8.29-10.61c-2.34-1.56-5.13-2.8-6.42-5.3-.74-1.43-1-3.24-2.26-4.21-1.81-1.36-4.9-.39-6.25-2.21a5.8,5.8,0,0,1-.77-2.4c-1.2-5.78-6.69-9.44-11-13.51-2.09-2-4-4.2-6.43-5.73-1.46-.92-7.82-3.34-7.68.56C182.45,155.9,188.35,157,190,158.13Z"/><path class="cls-3" d="M186.67,143.31a2.26,2.26,0,0,1-1.4-1.28c-.28-1,.8-1.9,1.8-2.29a13.72,13.72,0,0,1,9.88.37,38.07,38.07,0,0,1,8.64,5.21c6,4.4,11.93,9.06,16.11,15.19,1.76,2.57,3.18,5.36,4.8,8,5.19,8.52,12.39,15.62,18.31,23.65,3.12,4.23,5.87,8.71,8.62,13.18,1.86,3,3.68,7.09,1.43,9.83a10.77,10.77,0,0,1-3.48,2.32,21.25,21.25,0,0,0-5.87,4.62c-1.26,1.41-2.33,3-3.56,4.41a38.48,38.48,0,0,1-3,3,78,78,0,0,1-13.22,9.93c-5.69,3.4-12.13,6.13-18.74,5.63a38.71,38.71,0,0,1-5.74-1l-17.63-3.9c5.93-2.9,12.83,1.06,19.43,1.12a32.72,32.72,0,0,0,6.37-.78c4.37-.83,8.86-1.71,12.64-4.06,2.7-1.69,4.9-4.05,7.32-6.11,3-2.56,6.46-4.72,8.92-7.84,3.21-4.07,4.42-9.32,5.53-14.39a15.72,15.72,0,0,0,.51-6.38c-.52-2.7-2.4-4.9-4.12-7.05-7.19-8.94-12.76-19.06-19.35-28.46a86.44,86.44,0,0,0-14.63-16.62c-2.43-2.06-6-5.48-9.21-6.27-1.59-.39-3.19.64-4.84.79A11.26,11.26,0,0,1,186.67,143.31Z"/><path class="cls-3" d="M201.14,127.72c11.4,4.88,19.54,15,27.34,24.68q12.47,15.47,25.39,30.54c6.6,7.7,13.37,15.4,21.68,21.19,2.3,1.59,4.78,3.12,6.21,5.52s1.33,6-1,7.5a8.54,8.54,0,0,1-3.07,1,51.73,51.73,0,0,0-27.1,14.64c-2.75,2.83-5.16,6-7.85,8.85a61.8,61.8,0,0,1-10,8.64c1.75,2.13,5.24,1.87,7.51.32s3.7-4,5.32-6.26c3.52-4.83,8.17-8.69,12.77-12.5,1.52-1.25,3.16-2.56,5.12-2.78s4,.78,6,1.11c3.18.5,6.39-.69,9.28-2.12,4.47-2.2,9.05-5.61,9.75-10.54.47-3.35-1-6.68-2.85-9.51-5.7-8.67-15.05-14.13-22.54-21.31-8.8-8.43-15-19.2-23.6-27.84-3.58-3.6-7.76-7.18-8.73-12.16-4.12-2.18-6.67-6.39-9.75-9.89a45.32,45.32,0,0,0-14.63-10.68,72.74,72.74,0,0,0-8.57-3.4c-1.13-.37-6.42-2.17-5.05.54C193.94,125.51,199,126.79,201.14,127.72Z"/><path class="cls-3" d="M232.77,121.11c2.89,3,4.95,6.73,7.36,10.16a117.11,117.11,0,0,0,10.47,12.34l14,15.06c6,6.44,12.08,13,16.16,20.78,1.34,2.56,2.47,5.26,4.3,7.49a46.26,46.26,0,0,0,5.46,5c8.81,7.66,14.27,18.78,23.69,25.67a165.19,165.19,0,0,0-24.72,11.33,66.47,66.47,0,0,0-9.06,5.91c-4.23,3.39-7.95,7.7-13.07,9.48.67,2.57,4.27,3.11,6.67,2s4.15-3.3,6.46-4.59c4-2.24,9-1.61,13.29-3,5.4-1.75,9.23-6.4,13.12-10.53s8.73-8.18,14.41-8.07l-12.69-13.46L295,192.15c-3.14-3.34-6.29-6.67-9.2-10.22-3.66-4.45-6.93-9.22-10.41-13.82s-7.33-9.26-11.11-13.81c-7.48-9-15-18-22.57-26.94q-5.65-6.63-11.41-13.16c-.69-.79-8.44-9.3-8.72-3.84C221.42,113.41,230.77,119,232.77,121.11Z"/><path class="cls-3" d="M234.33,90.49a62.08,62.08,0,0,1,7.82,7c10.3,10.26,20.63,20.55,29.74,31.9,4.94,6.14,9.5,12.58,14.06,19l15.13,21.35c11.69,16.5,24.69,34,43.92,40.28a79.61,79.61,0,0,0-21.4,15.55c-4.29,4.39-8.26,9.41-13.88,11.87-4.29,1.88-10.07,2.88-11.25,7.41l4.64.84,1.19-4.06c7.69,1,14.94-3.38,21.44-7.61l7-4.57c2.19-1.42,4.53-3,5.36-5.51.75-2.22.2-4.92,1.66-6.74s4.28-1.84,6.64-2.19,5.14-2.1,4.58-4.43c-.32-1.3-1.59-2.11-2.75-2.79-14.28-8.23-29.67-16.28-38.45-30.23-3.49-5.54-5.79-11.83-9.87-17-2-2.54-4.43-4.73-6.5-7.23-3.78-4.55-6.34-10-9.62-14.9a119,119,0,0,0-9.91-12.39l-13.61-15.54c-8-9.14-16.11-18.38-26-25.38-1.56-1.1-14.08-9-14-3.79C220.29,84.48,231.85,88.74,234.33,90.49Z"/><path class="cls-3" d="M338.25,240.73a7.83,7.83,0,0,1,2.32-2.09c1.5-.76,3.35-.49,4.89-1.17,3.13-1.36,3.48-5.58,5.2-8.53a3.58,3.58,0,0,1,1.4-1.46,6.79,6.79,0,0,1,2.26-.38c3.24-.36,5.6-3.08,7.95-5.35a10,10,0,0,1,1.55-1.28,11.8,11.8,0,0,1,2.21-1,68.83,68.83,0,0,0,17.56-9.17,11.84,11.84,0,0,1,4-2.31,13.23,13.23,0,0,1,3.72-.14c11.84.41,23.43-7,35-4.38-1.86,1.94-3.84,3.95-6.42,4.69a21.52,21.52,0,0,1-5.68.39A26.09,26.09,0,0,0,401,212.39a10.75,10.75,0,0,1-2.35,1.23,23.34,23.34,0,0,1-3.36.38c-4.22.6-7.37,4.89-11.63,4.94-1.36,0-2.73-.42-4.07-.2a8.09,8.09,0,0,0-2.13.76,73.67,73.67,0,0,0-18.92,12.91,10.74,10.74,0,0,0-2.49,3.06c-.32.67-.51,1.4-.84,2.07-1.37,2.78-4.8,3.91-6.62,6.43a6,6,0,0,1-.86,1.08,3.78,3.78,0,0,1-1.68.68c-2.66.6-6.54,1.52-9.24.8C333,245.49,336.85,242.37,338.25,240.73Z"/><path class="cls-3" d="M369.7,241.73c1.38-1.37,3.36-1.92,5.21-2.55a43.18,43.18,0,0,0,9.93-4.87,7.46,7.46,0,0,0,2.09-1.82,12.28,12.28,0,0,0,1.33-3.33,12.86,12.86,0,0,1,9.8-8.29c2.71-.45,5.52,0,8.22-.5,3.59-.64,7.2-2.88,10.61-1.6-1,2.26-.34,5.3-2.16,7a44.78,44.78,0,0,0-15.32,0c-2.79.49-5.84,1.47-7.19,4-.86,1.62-.83,3.54-1.2,5.33-.61,3-2.78,6-5.84,6.41-1,.14-2.07,0-3.09.1a11.83,11.83,0,0,0-3.4,1.13l-6.33,2.87a2.93,2.93,0,0,0,1.69,2.37c-1.75,0-5.17,1.28-6.46-.41S368.5,242.94,369.7,241.73Z"/><path class="cls-3" d="M402.44,236.68a5.3,5.3,0,0,1,2.19-2.7c1.56-1.18,3.43-2.28,5.34-1.9a3,3,0,0,1,.77.26,3.1,3.1,0,0,1,.61.41,4.31,4.31,0,0,1,1.38,2.14,8.82,8.82,0,0,1,.24,2.35,17.1,17.1,0,0,1-.28,3.85c-.73,3.12-4.38,5.47-7.56,4.2a3.22,3.22,0,0,1-2-2.77C402.81,240.94,402.05,238.24,402.44,236.68Z"/><path class="cls-3" d="M261.27,95.2a162.55,162.55,0,0,1,16.06,15.87c10.72,11.64,21.4,23.39,30.52,36.33,3.75,5.32,7.23,10.83,11.15,16a117.5,117.5,0,0,0,35.6,31.26,25.5,25.5,0,0,1,5.6,3.78c1.09,1.07,2,2.34,3,3.42,4.33,4.34,11.4,4.83,17.23,2.92s10.76-5.79,15.72-9.4,10.28-7.1,16.35-8c2.86-.44,5.82-.29,8.59-1.13s5.43-3.09,5.49-6C416.47,178,406.1,182.63,397.2,188s-17.61,11.8-27.86,13.59a4.23,4.23,0,0,1-3.36-.41,5.54,5.54,0,0,1-1.44-2.8c-2.25-6.73-9.52-10.08-15.67-13.61-25-14.33-39.54-41.08-57.39-63.67a233.66,233.66,0,0,0-24.61-26.59q-6.66-6.16-13.79-11.79c-1.57-1.24-8.92-9-11-8.7-2.55.33-2.24,2.62-.95,4C245.67,82.92,256.13,91,261.27,95.2Z"/><path class="cls-3" d="M279.57,81.12c-1.21,3.11,1.06,6.6,3.89,8.37s6.22,2.46,9.14,4.07c4.52,2.48,7.58,6.87,11.23,10.51,5.87,5.88,13.39,9.88,19.39,15.64,8.23,7.9,13.1,18.58,19.58,28,5,7.24,11,13.75,17,20.17a43.24,43.24,0,0,0,8.69,7.7c3.32,2,7.36,3.13,11.13,2.18s6.72-3.77,9.92-6c11.2-7.69,25.89-8,38.21-13.71l.17-2.64c-4.68-1.68-9.82.07-14.48,1.81l-33.2,12.42c-2.88,1.08-5.9,2.18-9,1.83-4.85-.56-8.51-4.52-11.69-8.23q-7.12-8.31-14.24-16.61a92.25,92.25,0,0,1-8.61-11.12c-1.59-2.58-2.93-5.3-4.47-7.91a61,61,0,0,0-10.45-13.17c-2.9-2.76-6.06-5.23-9.22-7.69l-19-14.82C289.22,88.53,284.93,82.75,279.57,81.12Z"/><path class="cls-3" d="M333.7,103.64c-1.11-1.52-1.83-3.82-3.71-4a1.34,1.34,0,0,0-1.16,1.37,3.65,3.65,0,0,0,.69,1.84A36,36,0,0,0,341.33,114c3,1.87,6.25,3.46,9,5.7a47.1,47.1,0,0,1,7.7,8.78l11.63,15.73a21.85,21.85,0,0,0,3.65,4.14c4.84,3.93,13.05,2.5,16.28-2.84a16.13,16.13,0,0,1,1.8-2.85,9.15,9.15,0,0,1,3.11-1.89c3.52-1.55,7.28-3.14,11.08-2.57,2.7.4,5.38,1.87,8,1.17,2.39-.65,3.93-2.87,5.85-4.43a11.91,11.91,0,0,1,6.57-2.64c1.85-.15,3.84.12,5.47-.77s2.28-3.68.59-4.48a3.53,3.53,0,0,0-1.71-.18,25.38,25.38,0,0,0-10.59,3.29c-3.73,2.15-7.15,5.34-11.44,5.7a33,33,0,0,1-5.06-.29,21.67,21.67,0,0,0-15.36,5c-3,2.55-5.7,6.12-9.62,6.41a9.06,9.06,0,0,1-6.91-3A33.31,33.31,0,0,1,367,137.6a89.85,89.85,0,0,0-18.75-22.09c-2.4-2-5.44-3.68-7.63-5.9a18.72,18.72,0,0,0-3-2.86A14.29,14.29,0,0,1,333.7,103.64Z"/><path class="cls-3" d="M364.12,107.68c1.48,2,3.76,3.11,5.72,4.6a18.65,18.65,0,0,1,5.37,6.46c1.1,2.21,1.82,4.76,3.71,6.36,2.81,2.38,7.06,1.73,10.54.51a42.77,42.77,0,0,0,6.6-2.93,24.9,24.9,0,0,1,4.47-2.17,18.26,18.26,0,0,1,5.81-.55c8.83.17,18.05,1.11,26.19-2.35l-1.09-2.73a1.91,1.91,0,0,0-.55-.86,1.88,1.88,0,0,0-1-.24,71.25,71.25,0,0,0-24.13,2.65c-7.3,2.1-14.25,5.37-21.62,7.23a4,4,0,0,1-3,0,4.06,4.06,0,0,1-1.23-1.34l-4.1-6.08a43.34,43.34,0,0,0-5.25-6.38,13.61,13.61,0,0,0-3-2.4C367.28,107.21,363.65,107.05,364.12,107.68Z"/><path class="cls-3" d="M400.5,109.79c-2.31.87-3.85,3.2-6.19,4s-11.56-2.15-9.36-5.29a1.85,1.85,0,0,1,.43-.45c5.1.64,10.05,1.1,14.74,1.33A1.57,1.57,0,0,1,400.5,109.79Z"/><path class="cls-3" d="M145.74,153.87c-2.42,3.37-7.29,3.74-11.39,3.1s-8.31-2-12.31-.85c-3.55,1-6.28,3.75-9.21,6-8,6.12-18.41,8.78-25.91,15.54-1.69,1.52-3.32,3.3-5.52,3.88-2,.52-4.17-.06-6.2.39-4.54,1-6.43,6.27-9.58,9.69-3.71,4-9.46,5.6-13.59,9.22-3.25,2.86-6.52,9.08-11.54,8.59l-.2,0c2.43-5.39,4.79-10.16,6.21-14,3.15-8.66,18.89-28.74,24.41-41.34,5-11.55,13.08-10.53,16.51-19.07a29.92,29.92,0,0,0,6.61-2.7,48.11,48.11,0,0,0,7.11-5.3c1.72-1.46,2.73-4,5.15-4.51a.44.44,0,0,1,.28,0c.16.08.16.3.13.47-.75,4.85-6.71,8.36-10.28,11A50.27,50.27,0,0,0,90.31,139c-.51.52-4.74,5.55-3.92,6.23,2,1.66,5,1.5,7.55.85s5.08-1.7,7.7-1.54c1.93.12,3.79.9,5.72.88,3.58,0,6.5-2.7,9.1-5.15a107.32,107.32,0,0,1,12.93-10.77,55.65,55.65,0,0,1,7.27-4.25c1.43-.69,2.68-1.68,4.12-2.33a4.13,4.13,0,0,1,2.25-.59c.87.19,1.18.84.39,1.51-1.72,1.46-3.9,2-5.9,3a33.08,33.08,0,0,0-7.27,4.36c-4.25,3.59-7.64,8-11.32,12.19-2,2.28-4.32,4.55-7.27,5.31-6.23,1.59-13.44-3.94-18.83-.43-2.08,1.35-3.21,3.72-4.84,5.59-2.45,2.79-5.95,4.37-9,6.51s-5.81,5.4-5.5,9.1c0-.11,4-1.81,4.42-2a41.92,41.92,0,0,0,4.16-2.53c2.1-1.46,3.68-3.55,5.65-5.18A2.5,2.5,0,0,1,89,159.1a1.5,1.5,0,0,1,1.47.92,2.14,2.14,0,0,1-.62,2.46,69.46,69.46,0,0,1-17.14,10.06,5.07,5.07,0,0,0-2.46,1.55c-1.09,1.55.11,3.88,1.88,4.54s3.76.11,5.49-.67c5.85-2.68,10.18-7.88,15.76-11.09,3.56-2,7.55-3.23,11.24-5,4.43-2.15,8.53-5.19,13.35-6.14,3.56-.7,7.24-.19,10.84-.59C134.49,154.47,140.45,151.58,145.74,153.87Z"/><path class="cls-3" d="M96.43,118.39a67.29,67.29,0,0,0,9.91-6.08,95,95,0,0,0,7-6.57c6.63-6.41,14-12,21.36-17.56a32.48,32.48,0,0,1,6.2-4c1.24-.56,2.6-.84,3.84-1.4.68-.3,2-1,2.31-1.69.89-2.16-5.49.11-6,.32a26.17,26.17,0,0,0-5,3c-3.31,2.47-6.15,5.51-9.4,8-5.58,4.34-12.41,7.22-16.9,12.67-1.65,2-3,4.32-4.91,6-2.52,2.17-5.86,3.09-9.11,3.83A10.09,10.09,0,0,0,92.69,116c-.84.52-3.82,3.5-2.36,4.23S95.09,119.1,96.43,118.39Z"/><path class="cls-3" d="M143.43,100.19c1.07-.83,2-1.79,3.15-2.58,3.55-2.52,8.17-3,12.51-2.65a4.76,4.76,0,0,1,2.2.6,1.79,1.79,0,0,1,.83,2,1.83,1.83,0,0,1-1.45,1.08,6.32,6.32,0,0,1-1.89-.07,21.91,21.91,0,0,0-7.13.34,11.6,11.6,0,0,0-3.9,1.51c-1.05.68-1.93,1.6-3,2.32-3.18,2.2-7.39,2.18-10.94,3.74-1.63.72-3.17,1.79-4.95,2a3.53,3.53,0,0,1,1.88-2C134.85,104,139.61,103.12,143.43,100.19Z"/><path class="cls-3" d="M152.35,108.41a7,7,0,0,0-1.95.12,7.3,7.3,0,0,0-1.49.58q-4,1.94-8,4.06a42.21,42.21,0,0,0-7,4.47,25.57,25.57,0,0,1-2.46,2c-.82.53-1.73.9-2.6,1.36-1.51.8-2.87,1.86-4.33,2.76a23.72,23.72,0,0,1-6.76,2.81,2.64,2.64,0,0,1,1-2,10.12,10.12,0,0,1,2-1.22c6.7-3.5,11.62-9.8,18.34-13.24a50.49,50.49,0,0,1,6.62-2.65,12.14,12.14,0,0,1,5-1c2.12.19,4,1.49,6.12,1.7.82.08,2.05-.08,2.72.46-.58.45-1.72.25-2.42.18C155.53,108.62,153.94,108.47,152.35,108.41Z"/><path class="cls-4" d="M423.74,107.73a32.63,32.63,0,0,0-9-.26,109.6,109.6,0,0,1-16.71.1c-16.85-1.11-33.52-4.29-50-8.11a417.27,417.27,0,0,1-40.67-11.61c-7.77-2.78-16.27-5.91-24.11-8.36-9.36-2.88-30.28-9.71-50.82-14s-40.83-6.21-48.57,1a51.49,51.49,0,0,0-15.34-1.9,122.33,122.33,0,0,0-24.8,3,144.25,144.25,0,0,0-22.46,7c-5.17,2.24-10.18,4.62-14.65,8.32C93.89,94,88.47,111.45,85.24,127.06l-.85,3.9-.11.48c-.16.52-.37,1.36-.52,1.88C82,138.44,77.07,140,73.43,144.15a26.25,26.25,0,0,0-4.88,7.55c-4.84,11.85-12.62,23-20,33.79a63.52,63.52,0,0,0-4.82,8.09c-.77,1.68-2,4.43-2.88,6.13-4,8.29-7.93,16.87-10.07,26,0,.12-.06.23-.09.35-.85,3.59-1.84,7.21-1.11,11a7.71,7.71,0,0,0,.31,1.28l.2.63c.08.22.2.49.3.73l-.09-.23.26.57.07.16,0,.06.22.38c.06.12.18.28.27.42l.45.65.05.06c.14.19.29.38.45.56l.34.37a9.47,9.47,0,0,0,1,.89l.74.59c4.08,2.79,9.11,3.68,13.89,4.47,4.11.7,14.43,1.69,18.48,2.16,2.76.29,8.6.91,11.33,1.27,13.22,1.57,26.58,2.36,39.85,3.22,32.14,1.7,64.71,1.67,96.86.24,7.58-.43,15.18-.82,22.75-1.66,15.1-1.55,30.27-2.45,45.45-3.06,18.94-.64,37.93-1.46,56.87-.52,6.74.31,15.72,1.63,22.58,2.5,12.12,1.63,26.56,3,37.23.36,1.35-.33,1.73-.43,2.61-.71a38.57,38.57,0,0,0,4-1.48c17.35-6.6,24.2-40.25,25.19-60.47a86.91,86.91,0,0,0-.38-14.15,66.6,66.6,0,0,1-.44-16.64c.62-6.2,2.18-12.26,3.65-18.37.94-3.91,1.84-7.84,2.43-11.83C438.51,118.85,435,109.92,423.74,107.73Zm9.15,21.16c-1.13,5.13-2.74,10.36-4.31,15.66-2.95,9.91-5.74,20.1-4.91,30.48a82.28,82.28,0,0,1-.64,14.79c-2,14.49-5.29,29.57-11.92,42.6-2,3.63-4.15,7.25-7.91,9.26l-.16.08-.16.08-.34.19-.24.17-.07,0v0l-.41.18-.5.25-.63.28-.7.29-.46.2-.13.05-.33.1-.24.11-.32.1c-.21.07-.31.13-.6.22l-.81.26-1.46.44-.41.1c-13.52,3.42-29.6,2.48-44,2.18-15.24-.44-30.54.32-45.76.95-22.79,1.2-45.56,2.64-68.23,5.21-7.53,1-15.1,1.49-22.69,1.9a867.82,867.82,0,0,1-91.1-.32c-11.3-.65-22.77-1.84-34-3.29-10.56-1.56-28.61-4.94-39.19-7a56.62,56.62,0,0,1-7.93-2.16A13.84,13.84,0,0,1,36.8,239l-.21-.24,0-.05-.17-.14,0,0v0h-.05l-.11-.22c-.09-.2-.19-.33-.3-.53l0-.06-.09-.23-.09-.22c0-.07,0-.11-.06-.2l-.08-.32c-.67-3,.56-6.13,1.38-9.07.29-1.1.61-2.2,1-3.28,3.16-9.71,8.63-18.66,11.76-28.46,5.63-14.37,16.48-26.14,23.57-39.82a22.45,22.45,0,0,1,5-7.06c3.89-3.41,10.09-6.3,12.34-11.73a28.93,28.93,0,0,0,1.62-4.45c2.41-8.66,4.59-17.51,7.8-25.89,2.61-6.73,6.23-13.67,11.47-18.42,7.9-6.45,19.86-11.57,31.95-15a136.64,136.64,0,0,1,25.18-4.8,49.62,49.62,0,0,1,16.22,1.16l.6-.73c9.4-9.84,45.16-1.2,61.07,2.76l3.26.81c19.07,5,38,11.18,56.53,18,13.43,4.65,27.14,8.44,40.95,11.78,16.59,3.93,33.43,7.22,50.48,8.41a115.24,115.24,0,0,0,17.23,0,22.69,22.69,0,0,1,7.88.52C430.83,113.14,434.28,121.39,432.89,128.89Z"/><path class="cls-4" d="M410.83,241.86a18,18,0,0,1-6.65,5.35c-5.49,2.87-12.18,4.23-18.87,4.81-14.95,1.32-30.69-.82-45.64-1-34,.16-68.22,1.32-102,5.36-28.43,3.37-57.18,4.29-85.8,4.06a465.71,465.71,0,0,1-85.41-8.77c-3-.6-13.74-2.36-16.86-3.18-5.69-1.36-12.38-2.76-16.12-7.29l-.35-.5.06.08-.44-.73a7.44,7.44,0,0,1-.41-.79c-1.2-2.75-.74-6.53.25-9.54,7-11.26,19.27-17.53,30.11-24.44C73.71,198.72,82.57,189.6,93,182a53,53,0,0,1,11.36-6.37,48.34,48.34,0,0,1,12.7-3.15c8.66-1,17.82-.92,26.08,2.38,4.16,1.55,7.87,3.72,11.52,4.27,3.87.48,8-.21,11.94-1,5.13-1.16,11-2.16,16.55-1.3,3.52.62,6.41,2.31,9.49,3.77,22.66,12.06,44.28,26,67.77,36.27,7.67,3.23,15.8,6.45,24.08,7.09,20.84,1.05,43.18.82,64,2.48a203,203,0,0,1,25.65,3.15c6.1,1.36,12.66,3.55,18.6,5.43l6.08,2.09c3.95,1.22,8.23,3.26,12,4.83Zm-.19,0c-4.11-1.25-8.17-2.39-12.27-3.39-8.07-2-16.64-4.27-24.83-5.76-12-1.81-25.91-2.13-38.08-2.72-14.34-.52-30.56-1.26-44.83-2.59l-6.4-.62a58.85,58.85,0,0,1-12.71-3.27c-28-10.68-53.64-26.74-80.48-39.8-2.7-1.21-5.57-2.68-8.38-3.14-7.42-1-14.38,1.88-21.72,2.78a31,31,0,0,1-6.94,0,27.36,27.36,0,0,1-6.64-2c-5.78-2.61-11.34-5-17.64-5.87a67.52,67.52,0,0,0-12.51-.76c-8.42.18-16.46,3.62-23,8.8-6.76,5.18-12.52,11.56-19,17.16a127.34,127.34,0,0,1-15.64,11.56c-9.1,5.72-18,12.14-26,17.74-.61,3.41-.75,7.3,1.64,9.75,4,3.62,9.91,4.19,15.06,5,3.31.45,13.43,1.55,17,1.91,2.85.3,8.5.91,11.34,1.26,14.64,1.71,30.39,2.41,45.15,3,22.39.83,45.68,1.33,68.05,1.31,11-.07,23.09-.18,34-.8,19-1.52,37.9-3.16,56.88-4,20.94-1,41.94-2.23,62.91-1.07,12.89.92,26.71,3,39.63,2.83a60.27,60.27,0,0,0,15.37-2,24,24,0,0,0,10.09-5.35Z"/><path class="cls-5" d="M164.16,161.68a12.16,12.16,0,0,0-3.16,4.37,6,6,0,0,0,3.51,1.35,18,18,0,0,0,3.81-.24,6.51,6.51,0,0,0,1.85-.45,6,6,0,0,0,1.25-.87c1.28-1.05,2.63-2.22,3-3.83a1.43,1.43,0,0,0,0-.71,1.73,1.73,0,0,0-.33-.61,5.39,5.39,0,0,0-1.15-1.32,1.91,1.91,0,0,0-1.65-.39c-1.27.37-1.75,1.14-3.13,1.27A7.43,7.43,0,0,0,164.16,161.68Z"/><path class="cls-5" d="M171.83,141a21.23,21.23,0,0,0-3.09,2.9.67.67,0,0,0-.2.39c0,.31.38.47.7.53a36.43,36.43,0,0,0,4.89.57,5.86,5.86,0,0,0,3.54-.64,2.3,2.3,0,0,0,.82-3.14,3.68,3.68,0,0,0-.73-.63C175.6,139.4,174,139.19,171.83,141Z"/><path class="cls-5" d="M176.36,127.19a.32.32,0,0,0,0,.27.34.34,0,0,0,.26.1,8.49,8.49,0,0,0,6.65-2.47c1.78-1.82,1.47-5.35-1.64-4.24A9.47,9.47,0,0,0,176.36,127.19Z"/><path class="cls-5" d="M184.59,108.24a1.31,1.31,0,0,0,.11.52,1.41,1.41,0,0,0,.67.53c.6.31,1.37.61,1.91.2a1.53,1.53,0,0,0,.28-.29c1-1.2,5.92-5.64,2.22-6.76C187.12,101.63,184.49,106.09,184.59,108.24Z"/><path class="cls-5" d="M192.58,85.46a.72.72,0,0,0-.27.59c0,.22.27.35.49.44a4.75,4.75,0,0,0,.64.2,10.85,10.85,0,0,0,3.22.12c1.87-.12,1.62-1.16.3-2.1C195.31,83.52,193.91,84.06,192.58,85.46Z"/><path class="cls-6" d="M148.22,158.69a5.16,5.16,0,0,1,7.28,0,13.43,13.43,0,0,0-7.28,0Z"/><path class="cls-6" d="M149.87,153.19a6.85,6.85,0,0,1,6.53.27,27.46,27.46,0,0,1-6.53-.27Z"/><path class="cls-6" d="M151.74,149.08a21,21,0,0,1,4.44-2.06,4.24,4.24,0,0,1,2.62-.28c1,.32,1.31,1.14,2.06,1.48-.89,0-1.61-.71-2.23-.72-2.18.14-4.49,1.51-6.89,1.58Z"/><path class="cls-6" d="M153.93,144.45a8.77,8.77,0,0,1,6.83-.5,17.68,17.68,0,0,1-6.83.5Z"/><path class="cls-6" d="M156,141.61a5.07,5.07,0,0,1,6.32-1.18,37.64,37.64,0,0,0-6.32,1.18Z"/><path class="cls-6" d="M166.82,111.51a4.28,4.28,0,0,1,4.55,2.39c.28.5.47,1.43-.11,1.8.15-.59-.23-1-.54-1.38a11,11,0,0,0-3.9-2.81Z"/><path class="cls-6" d="M168.9,107.17c.94-.45,2.25-.87,3.09,0a6.92,6.92,0,0,1,1.32,1.84.8.8,0,0,1-.06.82c-.09-.51-.53-.62-.9-1a12.3,12.3,0,0,1-1-1c-.62-.69-1.58-.36-2.41-.75Z"/><path class="cls-6" d="M166.55,104.06a7.47,7.47,0,0,1,10,.6,13.91,13.91,0,0,0-10-.6Z"/><path class="cls-6" d="M168.44,98.64c1.79-1.35,5.74-2.61,7.25-.35-2.4-.92-4.75.34-7.25.35Z"/><path class="cls-6" d="M171.27,94.8c1.5-.74,5.86-.59,6.17,1.45-.65-.69-2.1-.6-3-.8a26.87,26.87,0,0,1-3.21-.65Z"/><path class="cls-6" d="M172.07,90.44a5.37,5.37,0,0,1,4.76.36,6,6,0,0,1,.73.43c.28.17.43.7.12.86a.35.35,0,0,0-.35-.43c-1.82-.25-3.41-.83-5.26-1.22Z"/><path class="cls-6" d="M173.37,87a5.76,5.76,0,0,1,7.47-.38c.3.41.18.78.45,1-.41-.09-.57-.61-.79-.7a11.65,11.65,0,0,0-7.13,0Z"/><path class="cls-6" d="M180.4,80.44a12.36,12.36,0,0,0,8.45-2.73c2.38-1.91,5-4.29,8.25-4.33,1.61-.07,3.13.08,4.66.15,2.68.14,6.5.44,9.22.65,1.53.15,3.06.27,4.6.45-1.55,0-3.09,0-4.63,0-2.74,0-6.53-.1-9.23-.2-3-.09-6.08-.55-8.68,1.21-1.28.77-2.44,1.78-3.74,2.65a11.66,11.66,0,0,1-8.9,2.11Z"/><path class="cls-6" d="M174.35,77.13c4.41-.47,9-.71,13-2.81,2.91-1.57,6.14-3.31,9.62-3.32a14.24,14.24,0,0,1,3.39.34,17.79,17.79,0,0,0-3.35.15c-3.42.35-6.19,2.12-9.21,3.72-4.12,2.14-8.9,2.22-13.4,1.92Z"/><path class="cls-6" d="M166.22,73.2a23,23,0,0,1,15.86.57,80.86,80.86,0,0,0-15.86-.57Z"/><path class="cls-6" d="M213.07,86.7a13.77,13.77,0,0,1,4.29,4.81,8.37,8.37,0,0,1-4.29-4.81Z"/><path class="cls-6" d="M219.14,86.66a40.92,40.92,0,0,1,6.92,14.28,123.6,123.6,0,0,1-6.92-14.28Z"/><path class="cls-6" d="M229.08,97.37a.58.58,0,0,1,.6.09,16.64,16.64,0,0,1,2.61,3.07,18.26,18.26,0,0,1,2.19,4,21,21,0,0,1-4.74-6.41c-.17-.34-.27-.72-.66-.78Z"/><path class="cls-6" d="M232.63,98.6c2.49-.17,3.6,6.05,3.79,8a18.29,18.29,0,0,1-1.91-4.18c-.58-1.31-.49-3.07-1.88-3.82Z"/><path class="cls-6" d="M241,108.19a38.07,38.07,0,0,1,5.43,11.26A38.07,38.07,0,0,1,241,108.19Z"/><path class="cls-6" d="M245.41,112.43c2.91,5.42,6.54,11.18,6.19,17.54-1-6.21-4.52-11.51-6.19-17.54Z"/><path class="cls-6" d="M255,135.44c1.89,2.65,3.62,5,5.53,7.67a11.32,11.32,0,0,1-5.53-7.67Z"/><path class="cls-6" d="M259.18,131.17c1.47,1.27,1.91,3,3.08,4.39a1.68,1.68,0,0,1-1.36-.6,5.71,5.71,0,0,1-1.72-3.79Z"/><path class="cls-6" d="M232.3,74.57a45.69,45.69,0,0,1,2.33,8.71,13,13,0,0,1-2.33-8.71Z"/><path class="cls-6" d="M237.59,78.62A3.41,3.41,0,0,1,239,80.43,19.74,19.74,0,0,1,240.44,87a19.67,19.67,0,0,1-2.19-6.28,6.21,6.21,0,0,0-.66-2.06Z"/><path class="cls-6" d="M241.56,81.5c.58,3.23,1.1,6.15,1.65,9.39a11.68,11.68,0,0,1-1.65-9.39Z"/><path class="cls-6" d="M244.32,86.65a8.44,8.44,0,0,1,.55,4.55,4.05,4.05,0,0,1-.55-4.55Z"/><path class="cls-6" d="M247.41,88.83c.35,2.29,0,4.16.53,6.43-1.83-1.58-1.58-4.47-.53-6.43Z"/><path class="cls-6" d="M251.42,95.37a9.78,9.78,0,0,1,1.62,5,5.41,5.41,0,0,1-1.62-5Z"/><path class="cls-6" d="M275.39,88.38c3.28,2,4.87,6.13,8.81,7.11-4.33.44-6.61-4.2-8.81-7.11Z"/><path class="cls-6" d="M281.56,89.73c1,3.08,2.88,7.22,2.82,10.51-1.37-3.38-3.11-6.77-2.82-10.51Z"/><path class="cls-6" d="M286.78,95a31.73,31.73,0,0,1,4.14,10.57A31.43,31.43,0,0,1,286.78,95Z"/><path class="cls-6" d="M292.78,100.6a17.53,17.53,0,0,1,2.93,7.89,17.3,17.3,0,0,1-2.93-7.89Z"/><path class="cls-6" d="M297.18,104.57c1.12.5,1.39,1.93,1.86,3,1.21,3.29,2,6.61,3.09,10-2.46-3.33-3.29-7.48-4.23-11.41a2.68,2.68,0,0,0-.72-1.49Z"/><path class="cls-6" d="M302.24,110.45c1.22,1.56,3.62,3.58,2.28,5.73-.13-2.18-2.33-3.51-2.28-5.73Z"/><path class="cls-6" d="M308.71,117.2c3.48,4.19,7.49,7.84,10.47,12.46-4-3.65-8.15-7.53-10.47-12.46Z"/><path class="cls-6" d="M338.41,119.22c2.67.19,4.91,1,7.52,1.54-2.56.87-5.37-.06-7.52-1.54Z"/><path class="cls-6" d="M329.38,119.36c4.09,2.75,7.24,6.73,11.32,9.48a45.32,45.32,0,0,0,13.18,6.38,30.69,30.69,0,0,1-3.65-.75,32.56,32.56,0,0,1-10.11-4.81c-4.14-2.85-7.1-6.92-10.74-10.3Z"/><path class="cls-6" d="M369.43,137.56c6.67,5,10.37,3.49,16.53-1.23a5.41,5.41,0,0,1,3.17-1.06c1.13,0,2.17.22,3.16.28a7.33,7.33,0,0,0,5.36-2.06c1.55-1.3,2.81-3,4.44-4.4a17,17,0,0,1,5.54-3.1,52.78,52.78,0,0,1,6-1.85c-2,.7-3.93,1.43-5.82,2.31a16.6,16.6,0,0,0-5.22,3.21c-2.2,2.13-4.11,5-7.1,6.31-2,1-4.35.36-6.36.25a4.43,4.43,0,0,0-2.68.87,30.47,30.47,0,0,1-5.38,3.32c-4.34,2.14-8.37.14-11.65-2.85Z"/><path class="cls-6" d="M345.6,141.68c.69,1.38,2.38,1.54,3.72,1.89,2.58.63,6,1.23,8.51,2.12,4.11,1.77,6.48,6,10,8.41,5.6,4.16,10.23,2.17,15.37-1.56,3.58-2.46,7.14-5.18,11.22-6.84,2.69-1.11,5.5-1.89,7.91-3.57a9.85,9.85,0,0,1,3.93-1.87c-2.85.78-4.8,3.31-7.57,4.31l-4,1.71c-5.32,2.41-9.62,6.47-14.65,9.41a10.73,10.73,0,0,1-12.72-.86c-3.66-2.51-5.79-6.63-9.75-8.56-2.32-.9-5.9-1.7-8.33-2.45-1.33-.4-3.08-.7-3.66-2.14Z"/><path class="cls-6" d="M353.67,184.51c2.95-1.24,5.81,1.07,7.95,2.87,4.91,3.6,6.62,5.71,12.68,2.6,7.12-3.13,13.25-8.31,20.41-11.4-6.85,3.85-12.8,9-20,12.32-6.37,3.13-8.57,1.08-13.5-3-2.06-1.86-4.53-4.26-7.54-3.35Z"/><path class="cls-6" d="M403.09,171.08a7.55,7.55,0,0,1,7.38-3.61,43.49,43.49,0,0,0-7.38,3.61Z"/><path class="cls-6" d="M306.45,168c3.56,5.24,8.83,7.86,14.3,10.68,5.36,3.07,9.31,7.93,12.89,12.84l-3.12-3.31a45,45,0,0,0-10.27-8.66c-2.58-1.51-5.41-2.74-7.86-4.64a22,22,0,0,1-5.94-6.91Z"/><path class="cls-6" d="M280.93,162.49c.41,2.66,2.28,4.68,2.59,7.41a14.14,14.14,0,0,1-2.16-3.38c-.56-1.19-1.1-2.76-.43-4Z"/><path class="cls-6" d="M285.67,165.85a24.28,24.28,0,0,1,3.11,12.8c-1.21-4.29-2.21-8.44-3.11-12.8Z"/><path class="cls-6" d="M289.77,171a57.72,57.72,0,0,1,2.41,11.27A22.7,22.7,0,0,1,289.77,171Z"/><path class="cls-6" d="M296,177.65c1,3.64,1.88,7.1,2.63,10.81A17.32,17.32,0,0,1,296,177.65Z"/><path class="cls-6" d="M299.37,184.43c2.89,2.85,2.84,7.2,4.16,10.82-2.59-3.06-2.49-7.3-4.16-10.82Z"/><path class="cls-6" d="M306.37,191.22c.09,2.56,1.31,4.82,2.51,7a45.12,45.12,0,0,0,12.33,14c1,.79,2.05,1.46,3.1,2.18a32.07,32.07,0,0,1-3.38-1.78,34,34,0,0,1-12.73-14.06c-1.06-2.28-2.17-4.79-1.83-7.37Z"/><path class="cls-6" d="M284.44,196.6a8.88,8.88,0,0,1,3.21,5,8.88,8.88,0,0,1-3.21-5Z"/><path class="cls-6" d="M287.58,196.23c3.91,3.28,5.21,8.47,8.42,12.32-4.25-2.92-5.62-8.22-8.42-12.32Z"/><path class="cls-6" d="M297.63,207.45c1.63,1.57,2.9,2.9,4.38,4.61a5.8,5.8,0,0,1-4.38-4.61Z"/><path class="cls-6" d="M249.41,149c1.71,2.46,3.23,5,5.52,6.94s4.35,4.17,6.62,6.11c-2.76-1.32-4.94-3.44-7.29-5.37a17.91,17.91,0,0,1-4.85-7.68Z"/><path class="cls-6" d="M250.85,170.13c3.86,2.6,7.48,5.21,11.15,8.06a26.44,26.44,0,0,1-11.15-8.06Z"/><path class="cls-6" d="M246.52,157.61c3.18,2.84,6.15,5.57,9.22,8.51a20.8,20.8,0,0,1-9.22-8.51Z"/><path class="cls-6" d="M187.63,136c4.08-.66,8.06,1.49,11.22,3.86-3.78-1.12-7.3-3.14-11.22-3.86Z"/><path class="cls-6" d="M196.5,131.59c2.68,2.21,4.86,6.58,6.73,9.46-3.2-2.38-4.86-6.05-6.73-9.46Z"/><path class="cls-6" d="M203.5,136c1.34,2.85,3.21,4.8,5,7.36-2.68-1.43-5.06-4.18-5-7.36Z"/><path class="cls-6" d="M209.73,142.66a15.1,15.1,0,0,1,5.09,7.28,27.12,27.12,0,0,1-5.09-7.28Z"/><path class="cls-6" d="M216.38,149a18.93,18.93,0,0,1,4.35,8.53,28,28,0,0,1-4.35-8.53Z"/><path class="cls-6" d="M221.68,154.13c1.82,2.61,2.88,5.3,4.85,7.81-2.91-1.43-4.36-4.75-4.85-7.81Z"/><path class="cls-6" d="M193.07,151.09c2.66,2.24,3.7,5.47,6,8-3.18-1.51-4.47-5.09-6-8Z"/><path class="cls-6" d="M198.07,149.9a82.36,82.36,0,0,0,4.18,10,12.89,12.89,0,0,1-4.18-10Z"/><path class="cls-6" d="M202.92,154.09c2.94,4.67,5.84,9.15,8.87,13.76a31.9,31.9,0,0,1-8.87-13.76Z"/><path class="cls-6" d="M210.85,163.33c4.84,4.75,7.69,10.93,11.56,16.42-5-4.64-7.82-10.86-11.56-16.42Z"/><path class="cls-6" d="M402.66,216a7.37,7.37,0,0,1,5.3,4.14,26.55,26.55,0,0,1-5.3-4.14Z"/><path class="cls-6" d="M404.81,212.44a11.64,11.64,0,0,1,3.91,5.62,11.59,11.59,0,0,1-3.91-5.62Z"/><path class="cls-6" d="M406.09,210.27a5.89,5.89,0,0,1,4.36,4.06,20.26,20.26,0,0,1-4.36-4.06Z"/><path class="cls-6" d="M408.09,196.28a15.45,15.45,0,0,1,3.23,5.87,8.84,8.84,0,0,1-3.23-5.87Z"/><path class="cls-6" d="M411.3,190.74a25.44,25.44,0,0,1,2,5.47,5.37,5.37,0,0,1-2-5.47Z"/><path class="cls-6" d="M412.72,190.24a4.1,4.1,0,0,1,1.51,2.77,2.12,2.12,0,0,1-1.51-2.77Z"/><path class="cls-6" d="M225.41,243.6c5.59-6.15,13.2-10,19-15.91.37-.4.75-.8,1.15-1.19-.31.46-.63.92-1,1.37-5.13,6.66-12.76,10.57-19.23,15.73Z"/><path class="cls-6" d="M271.93,232.63a16.51,16.51,0,0,1-5.05,6.42,16.28,16.28,0,0,1,5.05-6.42Z"/><path class="cls-6" d="M331.07,236.54a5.16,5.16,0,0,1-3.26,3.09,5.13,5.13,0,0,1,3.26-3.09Z"/><path class="cls-6" d="M173.35,231.87c4.58-2.93,16.85-4.34,20.8,0-3-2.08-6.78-1.72-10.29-1.68a35.89,35.89,0,0,0-10.51,1.66Z"/><path class="cls-6" d="M158.7,221.05c3.58-1.62,7.4-2.13,11.11-3.22a6.53,6.53,0,0,1-2.57,1.46,26.23,26.23,0,0,1-8.54,1.76Z"/><path class="cls-6" d="M80.39,201.44c-1.16,5.34,1.14,8.78,5.48,11.64,3.92,2.54,8,5.11,11.25,8.57s6.11,7.52,7.08,12.26c.33,2.32.92,5-.23,7.14a5.24,5.24,0,0,1-3,1.91,6.11,6.11,0,0,1-3.52-.15,5.82,5.82,0,0,0,6.15-2c.92-2,.28-4.59-.11-6.7-1.67-6.79-6.85-12.17-12.25-16.36-5.74-4.13-13.53-7.75-10.81-16.28Z"/><path class="cls-6" d="M68.76,216.44a21.38,21.38,0,0,0,7.55,9.74C78.82,228,82,229,84.48,231a4,4,0,0,0,2.44,1.26l-.37.22c.89-2.14-2.12-3.64-3-5.43-1.3-1.94-2.27-4.15-4.34-5.39A7.65,7.65,0,0,1,82,223.91c1.5,1.86,2.6,3.81,4.43,5.39,1,.95,1.67,2.59.79,3.9-2.38.25-3.87-2.24-5.93-3.1-5.88-2.65-11-7.15-12.54-13.66Z"/><path class="cls-6" d="M57.51,182.8a15.72,15.72,0,0,0,1,4.38A8.34,8.34,0,0,1,60,191.63c-.73-1.46-1.56-2.62-2.41-4a6.43,6.43,0,0,1-.11-4.82Z"/><path class="cls-6" d="M62.24,178.14c.76,3.3-1.11,6.8.71,9.91-3.11-2.38-1.38-6.78-.71-9.91Z"/><path class="cls-6" d="M65.69,171.1a65.34,65.34,0,0,0-.18,13.41,17.11,17.11,0,0,1,.18-13.41Z"/><path class="cls-6" d="M69.21,163.38a32.16,32.16,0,0,1-.06,8.82,13.73,13.73,0,0,1,.06-8.82Z"/><path class="cls-6" d="M77.42,149.81c-.67,2.68-1.16,5-1.64,7.72a7.67,7.67,0,0,1,1.64-7.72Z"/><path class="cls-6" d="M80.27,148.6a73.29,73.29,0,0,1-.62,7.84,8.82,8.82,0,0,1,.62-7.84Z"/><path class="cls-6" d="M115.12,131.19a8.78,8.78,0,0,1-3.2,4.5,2.94,2.94,0,0,0-1.09,1.32,2,2,0,0,1,.52-1.86,32.71,32.71,0,0,1,3.77-4Z"/><path class="cls-6" d="M123.51,126.12a9.17,9.17,0,0,1-3.46,5,9.17,9.17,0,0,1,3.46-5Z"/><path class="cls-6" d="M105,135.53a93.33,93.33,0,0,1,10.54-9,31.55,31.55,0,0,1-10.54,9Z"/><path class="cls-6" d="M100.63,123.66c4.3-4.49,11.15-5.15,16.05-8.62,3.79-2.62,5.22-7.63,9.46-9.82a14.45,14.45,0,0,1,4.31-1.67,16.5,16.5,0,0,0-4,2.08c-2.61,1.71-4.15,4.27-5.82,6.86-4.59,6.84-14,6.32-20,11.17Z"/><path class="cls-6" d="M100.52,119.37c5.46-4.73,11.89-8.2,17.55-12.64s10.63-10,17.2-13.09c-6.2,3.81-10.87,9.42-16.59,13.88s-12.2,7.72-18.16,11.85Z"/><path class="cls-6" d="M106,97.78c1.57-3.92,5.3-6.41,8.52-8.88s7-4.7,11.1-5.4a44.5,44.5,0,0,0-10.51,6.21c-3.25,2.47-6.85,4.57-9.11,8.07Z"/><path class="cls-6" d="M113.66,95.34a53.57,53.57,0,0,1,18.85-9.9c-6.35,3.28-12.55,6.53-18.85,9.9Z"/><path class="cls-6" d="M49.42,206.47a36.77,36.77,0,0,1,12.47-9.83c-4.06,3.48-8.14,6.69-12.47,9.83Z"/><path class="cls-6" d="M56,203.47c3.22-4.45,8.65-6.41,13.58-8.32-4.35,3.18-9.4,4.88-13.58,8.32Z"/><path class="cls-6" d="M78.26,187.81a28.21,28.21,0,0,1,10.38-14.39,97.37,97.37,0,0,0-10.38,14.39Z"/><path class="cls-6" d="M85.78,181.27c4.44-5.71,9-11.16,13.93-16.49a72.44,72.44,0,0,1-13.93,16.49Z"/><path class="cls-6" d="M95.11,176.16A50.58,50.58,0,0,1,105,159.71c-3.2,5.6-6.47,11-9.92,16.45Z"/><path class="cls-6" d="M102.47,172.65c1.13-5.4,3.14-11.76,8.09-14.81-4,4.13-5.58,9.73-8.09,14.81Z"/><path class="cls-6" d="M107.74,169.15a37.68,37.68,0,0,1,3.48-7.94c1.42-2.44,3.19-5.25,6.08-6.07-2.49,1.54-3.79,4.11-5.21,6.57s-2.82,5-4.35,7.44Z"/><path class="cls-6" d="M113,166.62c.06-1.57,1.36-2.76,2.29-3.9a45.62,45.62,0,0,1,10.35-8.79c-3.07,3.12-6.61,6.33-9.79,9.33-1,1.06-2.38,1.89-2.85,3.36Z"/><path class="cls-6" d="M124.3,162.47A5.85,5.85,0,0,1,130,159c-2,1.21-3.7,2.2-5.71,3.46Z"/><path class="cls-6" d="M128.67,165.5a7.24,7.24,0,0,1,3.46-3.34,5,5,0,0,1-3.46,3.34Z"/><path class="cls-6" d="M149.2,164.17c.8.22.61,0,.65.8a.53.53,0,1,1-.65-.8Z"/><path class="cls-6" d="M96.69,159.74c6.17-6.33,13.28-12.47,22-14.71.58-.13,1.16-.25,1.74-.35l-1.67.61c-8.32,3.19-15.09,9.14-22.11,14.45Z"/><path class="cls-6" d="M117.28,154.11a14.18,14.18,0,0,1,7.61-5.87,60.94,60.94,0,0,1-7.61,5.87Z"/><path class="cls-6" d="M197.23,116.57c.56,1.27.32,2.14,1.07,3.24-1.66.17-2.06-2.26-1.07-3.24Z"/><path class="cls-6" d="M202.23,114.89c1.31,3,1.85,5.84,3.41,8.68-2.67-1.94-3.5-5.54-3.41-8.68Z"/><path class="cls-6" d="M206.39,118.65c.44,2.9,2.25,4.6,4.36,6.48-2.79-.46-5.51-3.59-4.36-6.48Z"/><path class="cls-6" d="M211.41,122.28a11.35,11.35,0,0,0,2.48,4.17,3,3,0,0,1-2.48-4.17Z"/><path class="cls-6" d="M224.37,137.41a16.68,16.68,0,0,1,6,8.53,68.94,68.94,0,0,1-6-8.53Z"/><path class="cls-6" d="M232.77,144.74a17.59,17.59,0,0,1,5.7,14.43,38.83,38.83,0,0,0-5.7-14.43Z"/><path class="cls-6" d="M239,151.63c2.12,2.59,1.27,6.15,2.12,9.19-2.17-2.57-1.32-6.15-2.12-9.19Z"/><path class="cls-6" d="M221.31,115.65c.84.22,1.24,1,1.67,1.66,1.25,2.54.63,2.89-.87.49a10.89,10.89,0,0,1-.8-2.15Z"/><path class="cls-6" d="M225.73,116.71c.38,2.18.2,4.37,1.27,6.37.91,2,2.32,3.92,2.62,6.16-2.71-4.56-5.36-6.76-3.89-12.53Z"/><path class="cls-6" d="M231.89,120.32c0,3.84.66,8.06,4.48,9.78-4.57-.26-6.07-6.19-4.48-9.78Z"/></g></svg>