<svg xmlns="http://www.w3.org/2000/svg" xmlns:xlink="http://www.w3.org/1999/xlink" viewBox="0 0 1893.45 968.17"><defs><style>.cls-1{opacity:0.73;}.cls-2{fill:#e6a116;}.cls-3{font-size:43px;fill:#a12a13;}.cls-11,.cls-3{font-family:NimbusSan-Bol, Nimbus Sans;}.cls-4{letter-spacing:0em;}.cls-5{letter-spacing:0em;}.cls-6{letter-spacing:0em;}.cls-7{letter-spacing:0em;}.cls-8{letter-spacing:0.01em;}.cls-9{letter-spacing:0em;}.cls-10{letter-spacing:0.01em;}.cls-11{font-size:37px;fill:#fff;}.cls-12{letter-spacing:-0.07em;}.cls-13{letter-spacing:-0.07em;}.cls-14{letter-spacing:-0.08em;}.cls-15{letter-spacing:-0.08em;}.cls-16{letter-spacing:-0.02em;}.cls-17{letter-spacing:-0.08em;}.cls-18{letter-spacing:-0.07em;}.cls-19{letter-spacing:-0.07em;}.cls-20{letter-spacing:-0.06em;}.cls-21{letter-spacing:0.07em;}.cls-22{letter-spacing:0em;}.cls-23{letter-spacing:0em;}.cls-24{letter-spacing:0.07em;}.cls-25{letter-spacing:0em;}.cls-26{letter-spacing:0.01em;}.cls-27{letter-spacing:-0.01em;}.cls-28{letter-spacing:-0.01em;}.cls-29{letter-spacing:-0.01em;}.cls-30{letter-spacing:0em;}.cls-31{letter-spacing:0em;}.cls-32{letter-spacing:0.02em;}.cls-33{letter-spacing:-0.01em;}.cls-34{letter-spacing:0.01em;}.cls-35{letter-spacing:0em;}.cls-36{letter-spacing:-0.01em;}.cls-37{letter-spacing:0em;}.cls-38{letter-spacing:0.01em;}.cls-39{letter-spacing:0em;}.cls-40{letter-spacing:-0.01em;}.cls-41{letter-spacing:-0.01em;}.cls-42{letter-spacing:-0.01em;}.cls-43{letter-spacing:-0.04em;}.cls-44{letter-spacing:-0.04em;}.cls-45{letter-spacing:-0.05em;}.cls-46{letter-spacing:-0.04em;}.cls-47{letter-spacing:-0.04em;}.cls-48{letter-spacing:-0.05em;}.cls-49{letter-spacing:0.04em;}.cls-50{letter-spacing:-0.04em;}.cls-51{letter-spacing:-0.04em;}.cls-52{letter-spacing:-0.03em;}.cls-53{letter-spacing:-0.04em;}.cls-54{letter-spacing:-0.03em;}.cls-55{letter-spacing:-0.07em;}.cls-56{letter-spacing:-0.05em;}.cls-57{letter-spacing:-0.05em;}.cls-58{letter-spacing:-0.09em;}</style></defs><g id="Calque_22" data-name="Calque 22"><rect class="cls-2" x="-13.79" y="-13.28" width="1916.43" height="992.68"/></g><g id="Calque_25" data-name="Calque 25"><text class="cls-3" transform="translate(47.94 328.03)"><tspan class="cls-4">N</tspan><tspan x="29.58" y="0">OS BOÎ</tspan><tspan class="cls-5" x="174.58" y="0">TE</tspan><tspan x="225.66" y="0">S </tspan><tspan class="cls-5" x="265.82" y="0">D</tspan><tspan x="295.58" y="0">E </tspan><tspan class="cls-6" x="334.83" y="0">C</tspan><tspan x="364.5" y="0">ONSE</tspan><tspan class="cls-7" x="479.66" y="0">R</tspan><tspan class="cls-8" x="507.52" y="0">V</tspan><tspan class="cls-9" x="533.23" y="0">E </tspan><tspan x="0" y="51.6">SPÉC</tspan><tspan class="cls-8" x="109.48" y="51.6">I</tspan><tspan x="122.29" y="51.6">AL MI</tspan><tspan class="cls-10" x="233.4" y="51.6">N</tspan><tspan x="263.07" y="51.6">CEUR</tspan></text><text class="cls-11" transform="translate(47.94 428.19)"><tspan class="cls-12">C</tspan><tspan class="cls-13" x="22.94" y="0">ola</tspan><tspan class="cls-14" x="66.9" y="0">r</tspan><tspan class="cls-15" x="78.14" y="0">ie</tspan><tspan class="cls-16" x="103.34" y="0"> </tspan><tspan class="cls-17" x="113.83" y="0">v</tspan><tspan class="cls-13" x="128.41" y="0">ous</tspan><tspan class="cls-16" x="181.36" y="0"> </tspan><tspan class="cls-13" x="191.85" y="0">p</tspan><tspan class="cls-14" x="210.72" y="0">r</tspan><tspan class="cls-15" x="221.97" y="0">opose</tspan><tspan class="cls-16" x="312.88" y="0"> </tspan><tspan class="cls-15" x="323.37" y="0">une</tspan><tspan class="cls-16" x="377.61" y="0"> </tspan><tspan class="cls-13" x="388.11" y="0">alimen</tspan><tspan class="cls-18" x="484.57" y="0">t</tspan><tspan class="cls-19" x="494.15" y="0">a</tspan><tspan class="cls-20" x="511.98" y="0">t</tspan><tspan class="cls-15" x="521.82" y="0">ion</tspan><tspan x="566.07" y="0"> </tspan><tspan x="0" y="44.4">100%</tspan><tspan class="cls-21" x="88.61" y="44.4"> </tspan><tspan class="cls-22" x="102.37" y="44.4">s</tspan><tspan x="121.06" y="44.4">aine</tspan><tspan class="cls-21" x="193.25" y="44.4"> </tspan><tspan class="cls-23" x="207.01" y="44.4">e</tspan><tspan x="227.76" y="44.4">t</tspan><tspan class="cls-24" x="239.86" y="44.4"> </tspan><tspan x="253.62" y="44.4">100%</tspan><tspan class="cls-21" x="342.24" y="44.4"> </tspan><tspan class="cls-25" x="356" y="44.4">v</tspan><tspan x="373.83" y="44.4">ide,</tspan><tspan class="cls-21" x="435.73" y="44.4"> </tspan><tspan x="449.49" y="44.4">a</tspan><tspan class="cls-26" x="470.06" y="44.4">f</tspan><tspan x="481.94" y="44.4">in</tspan><tspan class="cls-21" x="512.69" y="44.4"> </tspan><tspan x="526.45" y="44.4">de </tspan><tspan class="cls-27"><tspan x="0" y="88.8">v</tspan><tspan class="cls-28" x="17.17" y="88.8">ous aid</tspan><tspan class="cls-29" x="140.23" y="88.8">e</tspan><tspan class="cls-30" x="160.73" y="88.8">z </tspan><tspan class="cls-31" x="188.88" y="88.8">d</tspan><tspan class="cls-28" x="210.3" y="88.8">ans la pe</tspan><tspan class="cls-32" x="363.85" y="88.8">r</tspan><tspan class="cls-33" x="378.62" y="88.8">t</tspan><tspan class="cls-28" x="390.49" y="88.8">e de poid</tspan><tspan class="cls-34" x="549.18" y="88.8">s</tspan><tspan class="cls-30" x="568.16" y="88.8">.</tspan></tspan><tspan x="0" y="133.2">G</tspan><tspan class="cls-31" x="26.49" y="133.2">r</tspan><tspan x="40.44" y="133.2">â</tspan><tspan class="cls-35" x="61.01" y="133.2">c</tspan><tspan x="80.96" y="133.2">e</tspan><tspan class="cls-36" x="101.82" y="133.2"> </tspan><tspan x="112.37" y="133.2">à</tspan><tspan class="cls-36" x="132.94" y="133.2"> </tspan><tspan x="143.49" y="133.2">n</tspan><tspan class="cls-37" x="164.36" y="133.2">o</tspan><tspan class="cls-38" x="186.12" y="133.2">t</tspan><tspan class="cls-39" x="198.73" y="133.2">r</tspan><tspan x="212.75" y="133.2">e</tspan><tspan class="cls-36" x="233.62" y="133.2"> </tspan><tspan x="244.17" y="133.2">solu</tspan><tspan class="cls-38" x="315.32" y="133.2">t</tspan><tspan x="327.94" y="133.2">io</tspan><tspan class="cls-34" x="359.65" y="133.2">n</tspan><tspan x="380.88" y="133.2">,</tspan><tspan class="cls-40" x="390.5" y="133.2"> </tspan><tspan class="cls-41" x="401.05" y="133.2">v</tspan><tspan x="418.4" y="133.2">ous</tspan><tspan class="cls-36" x="479.67" y="133.2"> </tspan><tspan class="cls-42" x="490.22" y="133.2">v</tspan><tspan x="507.58" y="133.2">ous </tspan><tspan class="cls-43" x="0" y="177.6">apper</tspan><tspan class="cls-44" x="91.2" y="177.6">c</tspan><tspan class="cls-45" x="109.63" y="177.6">e</tspan><tspan class="cls-46" x="128.65" y="177.6">v</tspan><tspan class="cls-47" x="144.96" y="177.6">r</tspan><tspan class="cls-48" x="157.47" y="177.6">e</tspan><tspan class="cls-43" x="176.64" y="177.6">z</tspan><tspan class="cls-49" x="192.55" y="177.6"> </tspan><tspan class="cls-50" x="205.12" y="177.6">d</tspan><tspan class="cls-51" x="225.14" y="177.6">e</tspan><tspan class="cls-43" x="244.56" y="177.6">s</tspan><tspan class="cls-49" x="261.66" y="177.6"> </tspan><tspan class="cls-47" x="274.23" y="177.6">r</tspan><tspan class="cls-43" x="286.74" y="177.6">ésul</tspan><tspan class="cls-52" x="350.86" y="177.6">t</tspan><tspan class="cls-53" x="361.7" y="177.6">a</tspan><tspan class="cls-54" x="380.79" y="177.6">t</tspan><tspan class="cls-50" x="391.74" y="177.6">s</tspan><tspan class="cls-49" x="408.83" y="177.6"> </tspan><tspan class="cls-43" x="421.41" y="177.6">en</tspan><tspan class="cls-49" x="460.11" y="177.6"> </tspan><tspan class="cls-43" x="472.69" y="177.6">moins</tspan><tspan x="567.33" y="177.6"> </tspan><tspan class="cls-15"><tspan x="0" y="222">de </tspan><tspan class="cls-14" x="45.18" y="222">t</tspan><tspan x="54.46" y="222">e</tspan><tspan class="cls-55" x="72.56" y="222">m</tspan><tspan class="cls-13" x="100.97" y="222">ps </tspan><tspan class="cls-56" x="144" y="222">q</tspan><tspan class="cls-57" x="163.83" y="222">u&apos;il</tspan><tspan class="cls-13" x="204.97" y="222" xml:space="preserve"> n&apos;en faut pour le di</tspan><tspan class="cls-55" x="478.84" y="222">g</tspan><tspan x="497.94" y="222">é</tspan><tspan class="cls-14" x="516.03" y="222">r</tspan><tspan x="527.28" y="222">er</tspan><tspan class="cls-58" x="556.66" y="222"> </tspan><tspan x="564.46" y="222">!</tspan></tspan></text><image width="4428" height="2430" transform="translate(721.7 179.74) scale(0.25)" xlink:href="../../../img/mockup/images/mockup2ConservesPoulet.png"/></g></svg>