<svg xmlns="http://www.w3.org/2000/svg" xmlns:xlink="http://www.w3.org/1999/xlink" viewBox="0 0 1893.45 968.17"><defs><style>.cls-1{opacity:0.73;}.cls-2,.cls-4{fill:#e6a116;}.cls-3{fill:#e24984;}.cls-4{font-size:106.11px;font-family:NimbusSan-Bol, Nimbus Sans;letter-spacing:0em;}.cls-5{fill:#a12a13;}.cls-6{fill:#fff;}</style></defs><g id="Calque_22" data-name="Calque 22"><rect class="cls-2" x="-13.79" y="-13.28" width="1916.43" height="992.68"/></g><g id="Calque_23" data-name="Calque 23"><image width="2645" height="3642" transform="translate(182.72 -6.13) scale(0.27)" xlink:href="../../../img/mockup/images/mockup2Conserve2HotDogSaumon.png"/><path class="cls-3" d="M361.22,201.6c1.6-8.09,13.23-15.39,13.23-23.95s-11.63-15.85-13.23-23.94c-1.65-8.33,6.28-19.52,3.1-27.18s-16.79-10.09-21.43-17-1.63-20.37-7.56-26.29S316,80.32,309,75.65s-9.23-18.19-17-21.43-18.85,4.75-27.18,3.1c-8.09-1.6-15.39-13.24-23.95-13.24S225,55.72,216.94,57.32c-8.33,1.65-19.52-6.28-27.18-3.1-7.81,3.24-10.09,16.78-17,21.43s-20.37,1.63-26.3,7.56-2.88,19.31-7.56,26.29-18.19,9.23-21.42,17,4.75,18.85,3.1,27.18c-1.6,8.09-13.24,15.39-13.24,23.94S119,193.51,120.55,201.6c1.65,8.33-6.28,19.52-3.1,27.18s16.78,10.09,21.42,17,1.64,20.37,7.56,26.29,19.32,2.89,26.3,7.56,9.22,18.19,17,21.43c7.66,3.18,18.85-4.75,27.18-3.1,8.09,1.6,15.39,13.23,23.94,13.23s15.86-11.63,23.95-13.23c8.33-1.65,19.52,6.28,27.18,3.1s10.09-16.78,17-21.43,20.37-1.63,26.29-7.56,2.89-19.31,7.56-26.29,18.19-9.23,21.43-17S359.57,209.93,361.22,201.6Z"/><text class="cls-4" transform="translate(152.54 208.61)">25€</text><path class="cls-5" d="M1076.48,449.34,1066,430.39l-3.83-7.22c.11,1.94.11,3.33.11,4.45,0,2,0,4.16,0,6.5v15.22h-7.61V412.28h8.67l10.22,18.45c1.45,2.78,2.39,4.72,3.78,7.5-.11-1.5-.11-2.5-.11-3.61l-.06-2.78V412.28h7.62v37.06Z"/><path class="cls-5" d="M1128.1,431.12c0,11.28-7.5,19.05-18.33,19.05-11,0-18.4-7.77-18.4-19.39,0-6,2.06-11.28,5.73-14.61a18.21,18.21,0,0,1,12.61-4.72C1120.88,411.45,1128.1,419.17,1128.1,431.12Zm-28-.34c0,7.73,3.61,12.34,9.67,12.34s9.61-4.61,9.61-12.17c0-7.84-3.56-12.45-9.67-12.45S1100.1,423.11,1100.1,430.78Z"/><path class="cls-5" d="M1164.22,412.28v25.06c0,4.67-1.22,7.61-4,9.67a20.26,20.26,0,0,1-21.73,0c-2.78-2.06-4-5-4-9.67V412.28h8.34v24.5c0,2.5.39,3.62,1.5,4.67a8.39,8.39,0,0,0,10.05,0c1.11-1.05,1.5-2.17,1.5-4.67v-24.5Z"/><path class="cls-5" d="M1180.72,449.34l-12.22-37.06h8.94l4.89,16.89c0,.06.39,1.45.72,2.67s.62,2.17.89,3.22l1.11,4.11c1-4.11,1.28-5.22,2.62-10.05l4.94-16.84h8.72l-12.39,37.06Z"/><path class="cls-5" d="M1233.28,419.39H1214v7.23h16.84v6.55H1214v9.06h19.62v7.11h-27.95V412.28h27.61Z"/><path class="cls-5" d="M1248.06,442.23h18.12v7.11h-26.45V412.28h8.33Z"/><path class="cls-5" d="M1279.18,442.23h18.11v7.11h-26.45V412.28h8.34Z"/><path class="cls-5" d="M1329.58,419.39H1310.3v7.23h16.83v6.55H1310.3v9.06h19.61v7.11h-28V412.28h27.62Z"/><path class="cls-5" d="M1356.58,423.89v-.61c0-3.11-2.44-4.89-6.67-4.89-3.94,0-6.33,1.45-6.33,3.78,0,1.56,1.11,2.61,3.39,3.17l7.5,1.72c4.11,1,6.39,2,8.17,3.67a9.11,9.11,0,0,1,2.83,7c0,7.67-5.89,12.39-15.5,12.39-10,0-15.78-4.77-15.84-13.05h8.34c.16,4.22,2.55,6.11,7.61,6.11,4.28,0,6.89-1.56,6.89-4.17,0-1.83-1.33-3.11-4-3.78l-6.72-1.66c-4-.95-6.39-2-8.06-3.45a9.35,9.35,0,0,1-2.94-7.28c0-7.17,5.5-11.44,14.89-11.44,6,0,10.22,1.77,12.61,5.28,1.22,1.83,1.83,3.83,2.17,7.16Z"/><path class="cls-5" d="M1408.48,423.89v-.61c0-3.11-2.45-4.89-6.67-4.89-3.94,0-6.33,1.45-6.33,3.78,0,1.56,1.11,2.61,3.39,3.17l7.5,1.72c4.11,1,6.39,2,8.17,3.67a9.11,9.11,0,0,1,2.83,7c0,7.67-5.89,12.39-15.5,12.39-10,0-15.78-4.77-15.84-13.05h8.34c.16,4.22,2.55,6.11,7.61,6.11,4.28,0,6.89-1.56,6.89-4.17,0-1.83-1.33-3.11-4-3.78l-6.73-1.66c-3.94-.95-6.39-2-8.05-3.45a9.36,9.36,0,0,1-2.95-7.28c0-7.17,5.5-11.44,14.89-11.44,6,0,10.23,1.77,12.62,5.28,1.22,1.83,1.83,3.83,2.16,7.16Z"/><path class="cls-5" d="M1430.76,441.9l-2.33,7.44h-9.06l13-37.06h10.39l11.78,37.06H1445l-2-7.44Zm6.56-21.34-4.5,14.5h8.39Z"/><path class="cls-5" d="M1465.27,449.34,1453,412.28h9l4.89,16.89c0,.06.39,1.45.72,2.67s.61,2.17.89,3.22l1.11,4.11c1-4.11,1.28-5.22,2.61-10.05l5-16.84h8.72l-12.39,37.06Z"/><path class="cls-5" d="M1517.83,419.39h-19.28v7.23h16.84v6.55h-16.84v9.06h19.61v7.11h-28V412.28h27.62Z"/><path class="cls-5" d="M1554,412.28v25.06c0,4.67-1.22,7.61-4,9.67a20.24,20.24,0,0,1-21.72,0c-2.78-2.06-4-5-4-9.67V412.28h8.33v24.5c0,2.5.39,3.62,1.5,4.67a8.41,8.41,0,0,0,10.06,0c1.11-1.05,1.5-2.17,1.5-4.67v-24.5Z"/><path class="cls-5" d="M1570.06,449.34h-8.17V412.28h16.17c4.78,0,7.45.61,9.67,2.22a9.33,9.33,0,0,1,3.56,7.78c0,4.5-2,7.39-6.17,9,3.67,1.16,4.94,3.11,5.22,8l.28,5.28a7.81,7.81,0,0,0,1.5,4.83H1584c-1-.78-1.28-1.33-1.39-3.22l-.33-5.06c-.33-4.55-2.33-6.55-6.61-6.55h-5.56Zm8.17-21.39c3,0,4.72-1.56,4.72-4.28s-1.67-4.28-4.72-4.28h-8.17V428Z"/><path class="cls-5" d="M1618.79,423.89v-.61c0-3.11-2.44-4.89-6.67-4.89-3.94,0-6.33,1.45-6.33,3.78,0,1.56,1.11,2.61,3.39,3.17l7.5,1.72c4.11,1,6.39,2,8.17,3.67a9.11,9.11,0,0,1,2.83,7c0,7.67-5.89,12.39-15.5,12.39-10,0-15.78-4.77-15.84-13.05h8.34c.16,4.22,2.55,6.11,7.61,6.11,4.28,0,6.89-1.56,6.89-4.17,0-1.83-1.33-3.11-4-3.78l-6.72-1.66c-4-.95-6.4-2-8.06-3.45a9.36,9.36,0,0,1-3-7.28c0-7.17,5.5-11.44,14.89-11.44,6,0,10.23,1.77,12.62,5.28,1.22,1.83,1.83,3.83,2.16,7.16Z"/><path class="cls-5" d="M1657.13,424.5l-1.78,14.23h-4.22l-1.78-14.23V412.28h7.78Zm0,24.84h-7.78v-7.78h7.78Z"/><path class="cls-5" d="M1672.74,424.5,1671,438.73h-4.23L1665,424.5V412.28h7.78Zm0,24.84H1665v-7.78h7.78Z"/><path class="cls-5" d="M1688.36,424.5l-1.78,14.23h-4.22l-1.78-14.23V412.28h7.78Zm0,24.84h-7.78v-7.78h7.78Z"/><path class="cls-6" d="M1061.56,505.23l-10.8-32.75h7.9l4.32,14.93s.34,1.28.64,2.36.54,1.91.78,2.84l1,3.64c.88-3.64,1.13-4.62,2.3-8.89l4.37-14.88h7.71l-11,32.75Z"/><path class="cls-6" d="M1083.65,495.41c.45,3.24,2.36,5,5.36,5a4.45,4.45,0,0,0,4.12-2.11h7.07c-1.33,4.61-5.74,7.56-11.39,7.56-7.32,0-12.18-5-12.18-12.47s5-12.52,12.13-12.52c5,0,8.79,2.5,10.56,7a19.32,19.32,0,0,1,1.17,7.56Zm9.68-4.91c-.3-2.8-1.92-4.32-4.62-4.32s-4.47,1.52-5,4.32Z"/><path class="cls-6" d="M1108.79,481.52v2.31c2.56-2.36,4-3,6.49-3,5.15,0,8.29,3.44,8.29,9v15.37h-7V492.32c0-2.41-.15-3.34-.73-4.22a3.3,3.3,0,0,0-2.85-1.38,3.93,3.93,0,0,0-3,1.28c-.78.88-1,1.86-1,3.93v13.3h-7V481.52Z"/><path class="cls-6" d="M1132.07,495.41c.44,3.24,2.36,5,5.35,5a4.46,4.46,0,0,0,4.13-2.11h7.07c-1.33,4.61-5.75,7.56-11.39,7.56-7.32,0-12.18-5-12.18-12.47s5-12.52,12.13-12.52a10.7,10.7,0,0,1,10.55,7,19.12,19.12,0,0,1,1.18,7.56Zm9.67-4.91c-.29-2.8-1.91-4.32-4.61-4.32s-4.47,1.52-5,4.32Z"/><path class="cls-6" d="M1169.09,505.23h-21v-4.47l12.08-13.69h-11v-5.55h19v5.55l-11.44,12.61h12.22Z"/><path class="cls-6" d="M1201.29,505.23h-6.68v-2.55a7.32,7.32,0,0,1-6.53,3.19c-6.23,0-10.41-5-10.41-12.47s4.23-12.57,10.61-12.57a7.72,7.72,0,0,1,6,2.46V472.48h7Zm-16.74-11.88c0,4.17,2,6.87,5,6.87s5-2.75,5-6.77c0-4.22-2-7-5-7S1184.55,489.18,1184.55,493.35Z"/><path class="cls-6" d="M1209.79,495.41c.44,3.24,2.35,5,5.35,5a4.45,4.45,0,0,0,4.12-2.11h7.07c-1.32,4.61-5.74,7.56-11.39,7.56-7.31,0-12.17-5-12.17-12.47s5-12.52,12.12-12.52c5,0,8.79,2.5,10.56,7a19.3,19.3,0,0,1,1.18,7.56Zm9.67-4.91c-.3-2.8-1.92-4.32-4.62-4.32s-4.46,1.52-5,4.32Zm3-18.06-5.54,6.72h-4.77l2.31-6.72Z"/><path class="cls-6" d="M1243.27,490.06a4,4,0,0,0-4.32-3.53c-3.19,0-4.91,2.4-4.91,6.72,0,4.57,1.72,7,5,7,2.51,0,3.88-1.27,4.42-4.07l6.78.34c-1,6-5.11,9.38-11.39,9.38-7.22,0-11.79-4.81-11.79-12.42,0-7.86,4.52-12.57,12-12.57,6.19,0,10.41,3.53,10.85,9.18Z"/><path class="cls-6" d="M1275.19,493.55c0,7.17-5.3,12.32-12.62,12.32S1250,500.72,1250,493.35s5.21-12.47,12.57-12.47C1270.08,480.88,1275.19,486,1275.19,493.55Zm-18.17-.2c0,4.47,2,7,5.6,7s5.55-2.5,5.55-6.82c0-4.57-2-7.07-5.6-7.07S1257,488.93,1257,493.35Z"/><path class="cls-6" d="M1298.12,505.23h-6.62v-2.6a6.77,6.77,0,0,1-6.29,3.24,8.77,8.77,0,0,1-6.28-2.46c-1.62-1.61-2.26-3.63-2.26-7V481.52h7v13.35c0,2.31.1,2.9.74,3.73a3.64,3.64,0,0,0,3,1.38,3.54,3.54,0,0,0,3-1.38c.64-.83.74-1.37.74-3.73V481.52h7Z"/><path class="cls-6" d="M1306.52,505.23,1298,481.52h7.31l2.65,9.08c.49,1.67,1.08,3.93,1.87,6.83.54-2.66,1.13-5.41,1.47-6.83l2.41-9.08h7.46l-8,23.71Z"/><path class="cls-6" d="M1328,481.52l-.2,4.22c1.38-3.83,3.14-4.91,8.2-4.86v6.58a12,12,0,0,0-1.77-.1c-2.4,0-4.37,1.08-5.15,2.85-.69,1.57-.93,3.78-.93,8.34v6.68h-7V481.52Z"/><path class="cls-6" d="M1343.25,478.23h-7v-5.75h7Zm0,27h-7V481.52h7Z"/><path class="cls-6" d="M1352.73,481.52l-.2,4.22c1.38-3.83,3.14-4.91,8.2-4.86v6.58a12.09,12.09,0,0,0-1.77-.1c-2.4,0-4.37,1.08-5.15,2.85-.69,1.57-.94,3.78-.94,8.34v6.68h-7V481.52Z"/><path class="cls-6" d="M1377.07,505.23h-7V472.48h7Z"/><path class="cls-6" d="M1385.56,495.41c.44,3.24,2.36,5,5.35,5a4.46,4.46,0,0,0,4.13-2.11h7.07c-1.33,4.61-5.75,7.56-11.39,7.56-7.32,0-12.18-5-12.18-12.47s5-12.52,12.13-12.52a10.7,10.7,0,0,1,10.55,7,19.12,19.12,0,0,1,1.18,7.56Zm9.67-4.91c-.29-2.8-1.91-4.32-4.61-4.32s-4.47,1.52-5,4.32Z"/><path class="cls-6" d="M1416.94,488.64c-.3-1.77-1.72-2.7-4-2.7-2,0-3.34.78-3.34,2,0,.88.69,1.33,2.9,1.82l4.37.93c2.9.59,4.37,1.23,5.4,2.31a6.61,6.61,0,0,1,1.77,4.76c0,5-4.08,8.15-10.66,8.15s-10.65-3.09-11-8.35h6.53c.39,2.26,1.86,3.29,4.66,3.29,2.21,0,3.63-.88,3.63-2.3,0-1.13-.78-1.72-2.65-2.16l-4.32-1c-5.2-1.13-7.21-3-7.21-6.82,0-4.76,3.78-7.66,10.11-7.66,6.09,0,9.77,2.75,10.41,7.76Z"/><path class="cls-6" d="M1441,481.52v2.31c2.56-2.36,4-3,6.48-3,5.16,0,8.3,3.44,8.3,9v15.37h-7V492.32c0-2.41-.15-3.34-.74-4.22a3.29,3.29,0,0,0-2.84-1.38,3.93,3.93,0,0,0-3,1.28c-.79.88-1,1.86-1,3.93v13.3h-7V481.52Z"/><path class="cls-6" d="M1482.48,493.55c0,7.17-5.31,12.32-12.62,12.32s-12.57-5.15-12.57-12.52,5.2-12.47,12.57-12.47S1482.48,486,1482.48,493.55Zm-18.17-.2c0,4.47,2,7,5.6,7s5.54-2.5,5.54-6.82c0-4.57-2-7.07-5.59-7.07S1464.31,488.93,1464.31,493.35Z"/><path class="cls-6" d="M1505.41,505.23h-6.63v-2.6a6.77,6.77,0,0,1-6.29,3.24,8.79,8.79,0,0,1-6.28-2.46c-1.62-1.61-2.26-3.63-2.26-7V481.52h7v13.35c0,2.31.1,2.9.74,3.73a3.66,3.66,0,0,0,3,1.38,3.57,3.57,0,0,0,3-1.38c.64-.83.73-1.37.73-3.73V481.52h7Z"/><path class="cls-6" d="M1513.8,505.23l-8.49-23.71h7.32l2.65,9.08c.49,1.67,1.08,3.93,1.86,6.83.54-2.66,1.13-5.41,1.48-6.83l2.4-9.08h7.46l-8,23.71Z"/><path class="cls-6" d="M1533.64,495.41c.44,3.24,2.36,5,5.35,5a4.45,4.45,0,0,0,4.13-2.11h7.07c-1.33,4.61-5.75,7.56-11.39,7.56-7.32,0-12.18-5-12.18-12.47s5-12.52,12.13-12.52c5,0,8.79,2.5,10.55,7a19.12,19.12,0,0,1,1.18,7.56Zm9.67-4.91c-.29-2.8-1.91-4.32-4.61-4.32s-4.47,1.52-5,4.32Z"/><path class="cls-6" d="M1559.08,505.23h-7V472.48h7Z"/><path class="cls-6" d="M1568.7,505.23h-7V472.48h7Z"/><path class="cls-6" d="M1577.2,495.41c.44,3.24,2.35,5,5.35,5a4.45,4.45,0,0,0,4.12-2.11h7.07c-1.32,4.61-5.74,7.56-11.39,7.56-7.31,0-12.17-5-12.17-12.47s5-12.52,12.12-12.52c5,0,8.79,2.5,10.56,7a19.3,19.3,0,0,1,1.18,7.56Zm9.67-4.91c-.3-2.8-1.92-4.32-4.62-4.32s-4.46,1.52-5,4.32Z"/><path class="cls-6" d="M1608.57,488.64c-.29-1.77-1.71-2.7-4-2.7-2,0-3.34.78-3.34,2,0,.88.69,1.33,2.9,1.82l4.37.93c2.89.59,4.36,1.23,5.4,2.31a6.65,6.65,0,0,1,1.76,4.76c0,5-4.07,8.15-10.65,8.15s-10.65-3.09-11-8.35h6.53c.39,2.26,1.87,3.29,4.67,3.29,2.21,0,3.63-.88,3.63-2.3,0-1.13-.79-1.72-2.65-2.16l-4.32-1c-5.21-1.13-7.22-3-7.22-6.82,0-4.76,3.78-7.66,10.11-7.66,6.09,0,9.77,2.75,10.41,7.76Z"/><path class="cls-6" d="M1638.81,488.64c-.3-1.77-1.72-2.7-4-2.7-2,0-3.34.78-3.34,2,0,.88.69,1.33,2.9,1.82l4.37.93c2.9.59,4.37,1.23,5.4,2.31a6.61,6.61,0,0,1,1.77,4.76c0,5-4.08,8.15-10.66,8.15s-10.65-3.09-11-8.35h6.53c.39,2.26,1.86,3.29,4.66,3.29,2.21,0,3.63-.88,3.63-2.3,0-1.13-.78-1.72-2.65-2.16l-4.32-1c-5.2-1.13-7.22-3-7.22-6.82,0-4.76,3.78-7.66,10.12-7.66,6.09,0,9.77,2.75,10.41,7.76Z"/><path class="cls-6" d="M1647.25,489c.45-5.45,3.83-8.1,10.51-8.1,3.58,0,6.33.83,8.2,2.45,1.72,1.53,2.36,3.44,2.36,6.93v10.9c0,2.55.1,2.89.88,4.07h-7.12c-.29-.83-.29-1-.54-1.86a9.23,9.23,0,0,1-6.77,2.5c-5.26,0-8.74-2.95-8.74-7.41s2.79-6.78,9.42-7.86l3.78-.64c1.57-.24,2.11-.64,2.11-1.62,0-1.32-1.37-2.16-3.63-2.16-2.55,0-3.93.89-4.22,2.8Zm14.29,5a14.43,14.43,0,0,1-2.55.74l-2.51.54c-2.5.59-3.58,1.42-3.58,2.84,0,1.58,1.33,2.51,3.53,2.51a5.44,5.44,0,0,0,5.11-3Z"/><path class="cls-6" d="M1676.23,505.23l-8.5-23.71h7.32l2.65,9.08c.49,1.67,1.08,3.93,1.86,6.83.54-2.66,1.13-5.41,1.48-6.83l2.4-9.08h7.46l-8.05,23.71Z"/><path class="cls-6" d="M1696.06,495.41c.45,3.24,2.36,5,5.36,5a4.45,4.45,0,0,0,4.12-2.11h7.07c-1.33,4.61-5.75,7.56-11.39,7.56-7.32,0-12.18-5-12.18-12.47s5-12.52,12.13-12.52c5,0,8.79,2.5,10.56,7a19.32,19.32,0,0,1,1.17,7.56Zm9.68-4.91c-.3-2.8-1.92-4.32-4.62-4.32s-4.47,1.52-5,4.32Z"/><path class="cls-6" d="M1735.88,505.23h-6.62v-2.6a6.77,6.77,0,0,1-6.29,3.24,8.79,8.79,0,0,1-6.28-2.46c-1.62-1.61-2.26-3.63-2.26-7V481.52h7v13.35c0,2.31.1,2.9.74,3.73a3.65,3.65,0,0,0,3,1.38,3.57,3.57,0,0,0,3-1.38c.64-.83.73-1.37.73-3.73V481.52h7Z"/><path class="cls-6" d="M1745.41,481.52l-.19,4.22c1.37-3.83,3.14-4.91,8.2-4.86v6.58a12.09,12.09,0,0,0-1.77-.1c-2.41,0-4.37,1.08-5.16,2.85-.69,1.57-.93,3.78-.93,8.34v6.68h-7V481.52Z"/><path class="cls-6" d="M1767.11,488.64c-.29-1.77-1.71-2.7-4-2.7-2,0-3.34.78-3.34,2,0,.88.69,1.33,2.9,1.82l4.37.93c2.89.59,4.37,1.23,5.4,2.31a6.6,6.6,0,0,1,1.76,4.76c0,5-4.07,8.15-10.65,8.15s-10.65-3.09-11-8.35H1759c.4,2.26,1.87,3.29,4.67,3.29,2.21,0,3.63-.88,3.63-2.3,0-1.13-.78-1.72-2.65-2.16l-4.32-1c-5.21-1.13-7.22-3-7.22-6.82,0-4.76,3.78-7.66,10.12-7.66,6.08,0,9.77,2.75,10.4,7.76Z"/><path class="cls-6" d="M1782.88,498.36v5.89c0,4.76-2.46,7.81-7.12,8.84v-2.75a5.52,5.52,0,0,0,3.63-5.11H1776v-6.87Z"/><path class="cls-6" d="M1066.76,539.39c-.29-1.77-1.72-2.7-4-2.7-2,0-3.34.79-3.34,2,0,.89.68,1.33,2.89,1.82l4.37.93c2.9.59,4.37,1.23,5.4,2.31a6.61,6.61,0,0,1,1.77,4.76c0,5-4.07,8.15-10.65,8.15s-10.66-3.09-11-8.34h6.53c.39,2.26,1.87,3.29,4.66,3.29,2.21,0,3.64-.89,3.64-2.31,0-1.13-.79-1.72-2.65-2.16l-4.32-1c-5.21-1.13-7.22-3-7.22-6.83,0-4.76,3.78-7.66,10.11-7.66,6.09,0,9.77,2.75,10.41,7.76Z"/><path class="cls-6" d="M1075.55,539.74c.44-5.46,3.83-8.11,10.51-8.11,3.58,0,6.33.84,8.2,2.46s2.36,3.44,2.36,6.92v10.9c0,2.55.09,2.9.88,4.08h-7.12a18.38,18.38,0,0,1-.54-1.87,9.2,9.2,0,0,1-6.78,2.5c-5.25,0-8.74-2.94-8.74-7.41s2.8-6.77,9.43-7.85l3.78-.64c1.57-.25,2.11-.64,2.11-1.62,0-1.33-1.37-2.16-3.63-2.16-2.55,0-3.93.88-4.22,2.8Zm14.29,5a13.11,13.11,0,0,1-2.55.74l-2.51.54c-2.5.59-3.58,1.42-3.58,2.85s1.32,2.5,3.53,2.5a5.45,5.45,0,0,0,5.11-3Z"/><path class="cls-6" d="M1104.87,556l-8.5-23.72h7.32l2.65,9.09c.49,1.67,1.08,3.92,1.87,6.82.54-2.65,1.12-5.4,1.47-6.82l2.4-9.09h7.47L1111.49,556Z"/><path class="cls-6" d="M1125.05,546.17c.44,3.24,2.36,5,5.35,5a4.44,4.44,0,0,0,4.13-2.11h7.06c-1.32,4.62-5.74,7.56-11.39,7.56-7.31,0-12.17-5-12.17-12.47s5-12.52,12.13-12.52a10.71,10.71,0,0,1,10.55,7,19.12,19.12,0,0,1,1.18,7.56Zm9.67-4.91c-.29-2.8-1.91-4.32-4.61-4.32s-4.47,1.52-5,4.32Z"/><path class="cls-6" d="M1165.21,556h-6.62v-2.61a6.77,6.77,0,0,1-6.29,3.24,8.83,8.83,0,0,1-6.28-2.45c-1.62-1.62-2.26-3.63-2.26-7V532.27h7v13.36c0,2.3.1,2.89.74,3.73a3.67,3.67,0,0,0,3,1.37,3.59,3.59,0,0,0,3-1.37c.63-.84.73-1.38.73-3.73V532.27h7Z"/><path class="cls-6" d="M1175.09,532.27l-.2,4.22c1.37-3.82,3.14-4.9,8.2-4.86v6.58a12.09,12.09,0,0,0-1.77-.1,5.38,5.38,0,0,0-5.15,2.85c-.69,1.57-.94,3.78-.94,8.35V556h-7V532.27Z"/><path class="cls-3" d="M1203.12,541.85V556h-7.36V523.24h7.36v12.32h12V523.24h7.37V556h-7.37V541.85Z"/><path class="cls-3" d="M1257.43,539.88c0,10-6.63,16.84-16.2,16.84-9.73,0-16.26-6.87-16.26-17.13,0-5.35,1.82-10,5.06-12.91a16.12,16.12,0,0,1,11.15-4.18C1251,522.5,1257.43,529.33,1257.43,539.88Zm-24.75-.29c0,6.82,3.19,10.9,8.55,10.9s8.49-4.08,8.49-10.75c0-6.93-3.14-11-8.54-11S1232.68,532.81,1232.68,539.59Z"/><path class="cls-3" d="M1273.68,556h-7.36V529.52h-9.92v-6.28h27.2v6.28h-9.92Z"/><path class="cls-3" d="M1284.44,523.24h11.1c6.62,0,10.11,1.18,13.06,4.52a17.47,17.47,0,0,1,4,11.68,18.24,18.24,0,0,1-4.27,12.23c-2.85,3-6.48,4.32-12.57,4.32h-11.34Zm12.32,26.46c3.34,0,5.36-.93,6.73-3.19a13.25,13.25,0,0,0,1.62-6.92,13.09,13.09,0,0,0-1.57-6.78c-1.28-2.26-3.29-3.29-6.29-3.29h-5.45V549.7Z"/><path class="cls-3" d="M1346.16,539.88c0,10-6.63,16.84-16.2,16.84-9.72,0-16.25-6.87-16.25-17.13,0-5.35,1.81-10,5-12.91a16.12,16.12,0,0,1,11.15-4.18C1339.78,522.5,1346.16,529.33,1346.16,539.88Zm-24.75-.29c0,6.82,3.2,10.9,8.55,10.9s8.49-4.08,8.49-10.75c0-6.93-3.14-11-8.54-11S1321.41,532.81,1321.41,539.59Z"/><path class="cls-3" d="M1377.63,537.87V556h-4.41l-1-4.18c-2.26,3.54-5.06,4.91-9.82,4.91-9.28,0-15-6.43-15-16.89s6.29-17.33,15.91-17.33c7.17,0,12.57,4.08,14.09,10.66l-7.12.44c-.78-3.05-3.34-4.86-6.92-4.86-5.3,0-8.59,4-8.59,10.6,0,7.07,3.19,11.29,8.54,11.29a7.84,7.84,0,0,0,8-6.72h-8v-6Z"/><path class="cls-6" d="M1397.82,546.17c.44,3.24,2.36,5,5.35,5a4.44,4.44,0,0,0,4.13-2.11h7.06c-1.32,4.62-5.74,7.56-11.39,7.56-7.31,0-12.17-5-12.17-12.47s5-12.52,12.13-12.52a10.71,10.71,0,0,1,10.55,7,19.12,19.12,0,0,1,1.18,7.56Zm9.67-4.91c-.29-2.8-1.91-4.32-4.61-4.32s-4.47,1.52-5,4.32Z"/><path class="cls-6" d="M1428.41,537.48h-4.27v9.23c0,3.73.15,4,1.77,4h2.5V556h-4.27c-3.05,0-4.57-.45-5.6-1.57s-1.37-2.46-1.37-6.14v-10.8h-3.34v-4.91h3.34v-7.51h7v7.51h4.27Z"/><path class="cls-6" d="M1453.8,539.39c-.3-1.77-1.72-2.7-4-2.7-2,0-3.34.79-3.34,2,0,.89.69,1.33,2.9,1.82l4.37.93c2.9.59,4.37,1.23,5.4,2.31a6.61,6.61,0,0,1,1.77,4.76c0,5-4.08,8.15-10.66,8.15s-10.65-3.09-11-8.34h6.53c.39,2.26,1.86,3.29,4.66,3.29,2.21,0,3.63-.89,3.63-2.31,0-1.13-.78-1.72-2.65-2.16l-4.32-1c-5.2-1.13-7.22-3-7.22-6.83,0-4.76,3.78-7.66,10.12-7.66,6.09,0,9.77,2.75,10.41,7.76Z"/><path class="cls-6" d="M1462.59,539.74c.44-5.46,3.83-8.11,10.5-8.11,3.59,0,6.34.84,8.2,2.46s2.36,3.44,2.36,6.92v10.9c0,2.55.1,2.9.88,4.08h-7.12c-.29-.84-.29-1-.54-1.87a9.16,9.16,0,0,1-6.77,2.5c-5.25,0-8.74-2.94-8.74-7.41s2.8-6.77,9.43-7.85l3.78-.64c1.57-.25,2.11-.64,2.11-1.62,0-1.33-1.38-2.16-3.64-2.16-2.55,0-3.92.88-4.22,2.8Zm14.28,5a12.7,12.7,0,0,1-2.55.74l-2.5.54c-2.51.59-3.59,1.42-3.59,2.85s1.33,2.5,3.54,2.5a5.43,5.43,0,0,0,5.1-3Z"/><path class="cls-6" d="M1491.9,556l-8.49-23.72h7.31l2.66,9.09c.49,1.67,1.08,3.92,1.86,6.82.54-2.65,1.13-5.4,1.47-6.82l2.41-9.09h7.46l-8,23.72Z"/><path class="cls-6" d="M1512.09,546.17c.44,3.24,2.35,5,5.35,5a4.43,4.43,0,0,0,4.12-2.11h7.07c-1.32,4.62-5.74,7.56-11.39,7.56-7.32,0-12.18-5-12.18-12.47s5-12.52,12.13-12.52a10.72,10.72,0,0,1,10.56,7,19.3,19.3,0,0,1,1.18,7.56Zm9.67-4.91c-.3-2.8-1.92-4.32-4.62-4.32s-4.47,1.52-5,4.32Z"/><path class="cls-6" d="M1552.25,556h-6.63v-2.61a6.76,6.76,0,0,1-6.28,3.24,8.83,8.83,0,0,1-6.29-2.45c-1.62-1.62-2.26-3.63-2.26-7V532.27h7v13.36c0,2.3.09,2.89.73,3.73a3.69,3.69,0,0,0,3,1.37,3.59,3.59,0,0,0,3-1.37c.64-.84.74-1.38.74-3.73V532.27h7Z"/><path class="cls-6" d="M1562.12,532.27l-.2,4.22c1.38-3.82,3.15-4.9,8.2-4.86v6.58a11.9,11.9,0,0,0-1.76-.1,5.4,5.4,0,0,0-5.16,2.85c-.69,1.57-.93,3.78-.93,8.35V556h-7V532.27Z"/><path class="cls-3" d="M1600.76,533.5V533c0-2.75-2.16-4.32-5.89-4.32-3.48,0-5.6,1.28-5.6,3.34,0,1.37,1,2.3,3,2.8l6.63,1.52c3.63.88,5.64,1.77,7.21,3.24a8.06,8.06,0,0,1,2.51,6.23c0,6.78-5.21,11-13.7,11-8.84,0-13.94-4.22-14-11.53h7.36c.15,3.73,2.26,5.4,6.73,5.4,3.78,0,6.09-1.38,6.09-3.69,0-1.62-1.18-2.75-3.54-3.33l-5.94-1.48c-3.49-.83-5.65-1.77-7.12-3a8.28,8.28,0,0,1-2.6-6.43c0-6.34,4.86-10.12,13.16-10.12,5.3,0,9,1.57,11.14,4.67a12.92,12.92,0,0,1,1.92,6.33Z"/><path class="cls-3" d="M1617.31,549.41l-2.06,6.58h-8l11.44-32.75h9.18L1638.28,556h-8.35l-1.77-6.58Zm5.8-18.86-4,12.82h7.41Z"/><path class="cls-3" d="M1664.55,523.24v22.14c0,4.13-1.08,6.73-3.54,8.54a17.84,17.84,0,0,1-19.19,0c-2.46-1.81-3.54-4.41-3.54-8.54V523.24h7.37v21.65c0,2.21.34,3.19,1.32,4.12a7.41,7.41,0,0,0,8.89,0c1-.93,1.32-1.91,1.32-4.12V523.24Z"/><path class="cls-3" d="M1680.9,556l-4.51-17.43c-.35-1.48-.64-2.51-.84-3.19a20,20,0,0,0-.59-2.17c.1,1.18.1,2,.1,2.56l0,3.14V556h-6.73V523.24h10.36l4.18,17.13c.63,2.56,1.17,5.26,1.57,7.42a9.7,9.7,0,0,0,.19-1l.54-2.11c.1-.59.3-1.33.49-2.21.25-1,.49-2.07.49-2.16l4.28-17h10.26V556H1694V538.9l0-3.14c0-.64,0-1.38.1-2.56-.54,2-.88,3.29-1,3.74-.3.88-.44,1.52-.49,1.57L1688.17,556Z"/><path class="cls-3" d="M1735.65,539.88c0,10-6.63,16.84-16.2,16.84-9.72,0-16.25-6.87-16.25-17.13,0-5.35,1.81-10,5-12.91a16.12,16.12,0,0,1,11.15-4.18C1729.27,522.5,1735.65,529.33,1735.65,539.88Zm-24.74-.29c0,6.82,3.19,10.9,8.54,10.9s8.49-4.08,8.49-10.75c0-6.93-3.14-11-8.54-11S1710.91,532.81,1710.91,539.59Z"/><path class="cls-3" d="M1757.41,556l-9.28-16.75-3.39-6.38c.1,1.72.1,2.95.1,3.93,0,1.77,0,3.68,0,5.74V556h-6.72V523.24h7.66l9,16.3c1.28,2.45,2.11,4.17,3.34,6.63-.1-1.33-.1-2.21-.1-3.19l0-2.46V523.24h6.73V556Z"/><path class="cls-3" d="M1786.13,534l-1.57,12.57h-3.73L1779.26,534v-10.8h6.87Zm0,22h-6.87v-6.88h6.87Z"/></g></svg>