<svg xmlns="http://www.w3.org/2000/svg" viewBox="0 0 79.39 64.6"><defs><style>.cls-1{fill:#e6a116;}</style></defs><g id="Calque_2" data-name="Calque 2"><g id="Calque_21" data-name="Calque 21"><path id="Icon_ionic-logo-twitter" data-name="Icon ionic-logo-twitter" class="cls-1" d="M79.39,7.65A32.81,32.81,0,0,1,70,10.23a16.35,16.35,0,0,0,7.17-9,32.39,32.39,0,0,1-10.35,4A16.29,16.29,0,0,0,38.67,16.3,16.64,16.64,0,0,0,39.09,20,46.17,46.17,0,0,1,5.52,3a16.31,16.31,0,0,0,5.06,21.76,15.85,15.85,0,0,1-7.4-2v.2a16.3,16.3,0,0,0,13.07,16,16.36,16.36,0,0,1-4.29.57,14.31,14.31,0,0,1-3.06-.3A16.31,16.31,0,0,0,24.12,50.48a32.58,32.58,0,0,1-20.23,7A33.7,33.7,0,0,1,0,57.23,45.5,45.5,0,0,0,24.93,64.6c30,0,46.38-24.85,46.38-46.4,0-.71,0-1.41,0-2.1A33.16,33.16,0,0,0,79.39,7.65Z"/></g></g></svg>