<svg xmlns="http://www.w3.org/2000/svg" viewBox="0 0 145.16 44.49"><defs><style>.cls-1{fill:#e6a116;}</style></defs><g id="Calque_2" data-name="Calque 2"><g id="Calque_21" data-name="Calque 21"><path id="Icon_simple-visa" data-name="Icon simple-visa" class="cls-1" d="M105.51,1.82A30.17,30.17,0,0,0,95,0C83.38,0,75.18,5.86,75.12,14.24,75.05,20.41,81,23.89,85.41,26s6.11,3.45,6.1,5.36c0,2.88-3.66,4.19-7,4.19A24.89,24.89,0,0,1,73.4,33.23L72,32.56l-1.63,9.66a39,39,0,0,0,13.15,2.27c12.35,0,20.41-5.81,20.51-14.75.1-4.92-3.08-8.65-9.8-11.72-4.08-2-6.62-3.33-6.62-5.36,0-1.79,2.17-3.7,6.71-3.7a21.56,21.56,0,0,1,8.8,1.65l1.09.49,1.64-9.34-.28.06Zm30.14-1h-9.07c-2.82,0-4.93.77-6.18,3.57L103,43.88H115.3l2.47-6.47h15.06c.37,1.52,1.45,6.46,1.45,6.46h10.88ZM58.43.43H70.18L62.83,43.55H51.07L58.43.42ZM28.55,24.19l1.23,6L41.28.79H53.73l-18.52,43H22.79L12.63,7.38A2.45,2.45,0,0,0,11.54,6,49.44,49.44,0,0,0,0,1.67L.15.76H19.09c2.56.1,4.63.91,5.34,3.66l4.13,19.8v0Zm92.59,4.4,4.69-12.06c-.06.12,1-2.49,1.56-4.11l.8,3.72,2.71,12.44h-9.76Z"/></g></g></svg>