<svg xmlns="http://www.w3.org/2000/svg" viewBox="0 0 86.11 64.6"><defs><style>.cls-1{fill:#e6a116;}</style></defs><g id="Calque_2" data-name="Calque 2"><g id="Calque_21" data-name="Calque 21"><path id="Icon_ionic-logo-youtube" data-name="Icon ionic-logo-youtube" class="cls-1" d="M85.55,14.26C85.55,6.69,80,.6,73.11.6,63.79.17,54.28,0,44.58,0h-3C31.86,0,22.34.17,13,.61,6.16.61.59,6.73.59,14.3c-.42,6-.6,12-.59,18s.18,12,.57,18C.57,57.81,6.14,64,13,64c9.79.46,19.83.66,30,.64s20.24-.18,30.05-.64c6.88,0,12.44-6.14,12.44-13.7q.6-9,.58-18T85.55,14.26ZM34.82,48.76v-33L59.21,32.23Z"/></g></g></svg>